<?xml version="1.0" encoding="UTF-8" standalone="no"?><svg xmlns="http://www.w3.org/2000/svg" xmlns:xlink="http://www.w3.org/1999/xlink" contentScriptType="application/ecmascript" contentStyleType="text/css" height="670px" preserveAspectRatio="none" style="width:1629px;height:670px;" version="1.1" viewBox="0 0 1629 670" width="1629px" zoomAndPan="magnify"><defs><filter height="300%" id="f1e8wy8ai2snah" width="300%" x="-1" y="-1"><feGaussianBlur result="blurOut" stdDeviation="2.0"/><feColorMatrix in="blurOut" result="blurOut2" type="matrix" values="0 0 0 0 0 0 0 0 0 0 0 0 0 0 0 0 0 0 .4 0"/><feOffset dx="4.0" dy="4.0" in="blurOut2" result="blurOut3"/><feBlend in="SourceGraphic" in2="blurOut3" mode="normal"/></filter></defs><g><text fill="#000000" font-family="sans-serif" font-size="18" lengthAdjust="spacingAndGlyphs" textLength="343" x="646.5" y="16.708">Implementation model of MiniKraken</text><!--MD5=[8ee553aa523013b7aec90ad38c2bcb9f]
class GoalArg--><rect fill="#FEFECE" filter="url(#f1e8wy8ai2snah)" height="48" id="GoalArg" style="stroke: #A80036; stroke-width: 1.5;" width="79" x="1163.5" y="35.4531"/><ellipse cx="1178.5" cy="51.4531" fill="#A9DCDF" rx="11" ry="11" style="stroke: #A80036; stroke-width: 1.0;"/><path d="M1180.5781,53.2656 L1180.9688,54.25 L1180.5781,54.25 C1180.125,54.25 1180.0156,54.2656 1179.8594,54.375 C1179.6094,54.5313 1179.4531,54.8125 1179.4531,55.1094 C1179.4531,55.375 1179.5938,55.625 1179.8125,55.7813 C1179.9531,55.9063 1180.1563,55.9531 1180.5781,55.9531 L1182.9375,55.9531 C1183.2969,55.9531 1183.5156,55.9219 1183.6563,55.8281 C1183.9063,55.6875 1184.0625,55.3906 1184.0625,55.1094 C1184.0625,54.8281 1183.9219,54.5781 1183.7031,54.4219 C1183.5313,54.2813 1183.375,54.25 1182.9063,54.25 L1179.5156,46.0469 L1175.8438,46.0469 C1175.3906,46.0469 1175.2656,46.0625 1175.1094,46.1563 C1174.8594,46.3281 1174.7031,46.6094 1174.7031,46.8906 C1174.7031,47.1719 1174.8438,47.4219 1175.0625,47.5938 C1175.2344,47.7031 1175.4063,47.7344 1175.8438,47.7344 L1176.9219,47.7344 L1174.2813,54.25 C1173.8594,54.25 1173.7031,54.2656 1173.5469,54.375 C1173.2969,54.5313 1173.1406,54.8125 1173.1406,55.1094 C1173.1406,55.6719 1173.5156,55.9531 1174.2656,55.9531 L1176.5313,55.9531 C1176.8906,55.9531 1177.1094,55.9219 1177.2344,55.8281 C1177.5,55.6875 1177.6406,55.3906 1177.6406,55.1094 C1177.6406,54.8281 1177.5156,54.5781 1177.2969,54.4063 C1177.125,54.2813 1176.9844,54.25 1176.5313,54.25 L1176.1406,54.25 L1176.5313,53.2656 L1180.5781,53.2656 Z M1179.875,51.5625 L1177.2031,51.5625 L1178.5469,48.2969 L1179.875,51.5625 Z "/><text fill="#000000" font-family="sans-serif" font-size="12" font-style="italic" lengthAdjust="spacingAndGlyphs" textLength="47" x="1192.5" y="55.6074">GoalArg</text><line style="stroke: #A80036; stroke-width: 1.5;" x1="1164.5" x2="1241.5" y1="67.4531" y2="67.4531"/><line style="stroke: #A80036; stroke-width: 1.5;" x1="1164.5" x2="1241.5" y1="75.4531" y2="75.4531"/><!--MD5=[9d35236b92952560f647498cf8a29acb]
class Term--><rect fill="#FEFECE" filter="url(#f1e8wy8ai2snah)" height="73.6094" id="Term" style="stroke: #A80036; stroke-width: 1.5;" width="186" x="788" y="169.9531"/><ellipse cx="861.25" cy="185.9531" fill="#A9DCDF" rx="11" ry="11" style="stroke: #A80036; stroke-width: 1.0;"/><path d="M863.3281,187.7656 L863.7188,188.75 L863.3281,188.75 C862.875,188.75 862.7656,188.7656 862.6094,188.875 C862.3594,189.0313 862.2031,189.3125 862.2031,189.6094 C862.2031,189.875 862.3438,190.125 862.5625,190.2813 C862.7031,190.4063 862.9063,190.4531 863.3281,190.4531 L865.6875,190.4531 C866.0469,190.4531 866.2656,190.4219 866.4063,190.3281 C866.6563,190.1875 866.8125,189.8906 866.8125,189.6094 C866.8125,189.3281 866.6719,189.0781 866.4531,188.9219 C866.2813,188.7813 866.125,188.75 865.6563,188.75 L862.2656,180.5469 L858.5938,180.5469 C858.1406,180.5469 858.0156,180.5625 857.8594,180.6563 C857.6094,180.8281 857.4531,181.1094 857.4531,181.3906 C857.4531,181.6719 857.5938,181.9219 857.8125,182.0938 C857.9844,182.2031 858.1563,182.2344 858.5938,182.2344 L859.6719,182.2344 L857.0313,188.75 C856.6094,188.75 856.4531,188.7656 856.2969,188.875 C856.0469,189.0313 855.8906,189.3125 855.8906,189.6094 C855.8906,190.1719 856.2656,190.4531 857.0156,190.4531 L859.2813,190.4531 C859.6406,190.4531 859.8594,190.4219 859.9844,190.3281 C860.25,190.1875 860.3906,189.8906 860.3906,189.6094 C860.3906,189.3281 860.2656,189.0781 860.0469,188.9063 C859.875,188.7813 859.7344,188.75 859.2813,188.75 L858.8906,188.75 L859.2813,187.7656 L863.3281,187.7656 Z M862.625,186.0625 L859.9531,186.0625 L861.2969,182.7969 L862.625,186.0625 Z "/><text fill="#000000" font-family="sans-serif" font-size="12" font-style="italic" lengthAdjust="spacingAndGlyphs" textLength="31" x="881.75" y="190.1074">Term</text><line style="stroke: #A80036; stroke-width: 1.5;" x1="789" x2="973" y1="201.9531" y2="201.9531"/><line style="stroke: #A80036; stroke-width: 1.5;" x1="789" x2="973" y1="209.9531" y2="209.9531"/><text fill="#000000" font-family="sans-serif" font-size="11" lengthAdjust="spacingAndGlyphs" textLength="164" x="794" y="224.1636">fresh?(Vocabulary) : Boolean</text><text fill="#000000" font-family="sans-serif" font-size="11" lengthAdjust="spacingAndGlyphs" textLength="174" x="794" y="236.9683">ground?(Vocabulary) : Boolean</text><!--MD5=[d2e9e165ba3003c0cac1a5694f9c6cd6]
class AtomicTerm--><rect fill="#FEFECE" filter="url(#f1e8wy8ai2snah)" height="60.8047" id="AtomicTerm" style="stroke: #A80036; stroke-width: 1.5;" width="105" x="979.5" y="336.4531"/><ellipse cx="994.5" cy="352.4531" fill="#A9DCDF" rx="11" ry="11" style="stroke: #A80036; stroke-width: 1.0;"/><path d="M996.5781,354.2656 L996.9688,355.25 L996.5781,355.25 C996.125,355.25 996.0156,355.2656 995.8594,355.375 C995.6094,355.5313 995.4531,355.8125 995.4531,356.1094 C995.4531,356.375 995.5938,356.625 995.8125,356.7813 C995.9531,356.9063 996.1563,356.9531 996.5781,356.9531 L998.9375,356.9531 C999.2969,356.9531 999.5156,356.9219 999.6563,356.8281 C999.9063,356.6875 1000.0625,356.3906 1000.0625,356.1094 C1000.0625,355.8281 999.9219,355.5781 999.7031,355.4219 C999.5313,355.2813 999.375,355.25 998.9063,355.25 L995.5156,347.0469 L991.8438,347.0469 C991.3906,347.0469 991.2656,347.0625 991.1094,347.1563 C990.8594,347.3281 990.7031,347.6094 990.7031,347.8906 C990.7031,348.1719 990.8438,348.4219 991.0625,348.5938 C991.2344,348.7031 991.4063,348.7344 991.8438,348.7344 L992.9219,348.7344 L990.2813,355.25 C989.8594,355.25 989.7031,355.2656 989.5469,355.375 C989.2969,355.5313 989.1406,355.8125 989.1406,356.1094 C989.1406,356.6719 989.5156,356.9531 990.2656,356.9531 L992.5313,356.9531 C992.8906,356.9531 993.1094,356.9219 993.2344,356.8281 C993.5,356.6875 993.6406,356.3906 993.6406,356.1094 C993.6406,355.8281 993.5156,355.5781 993.2969,355.4063 C993.125,355.2813 992.9844,355.25 992.5313,355.25 L992.1406,355.25 L992.5313,354.2656 L996.5781,354.2656 Z M995.875,352.5625 L993.2031,352.5625 L994.5469,349.2969 L995.875,352.5625 Z "/><text fill="#000000" font-family="sans-serif" font-size="12" font-style="italic" lengthAdjust="spacingAndGlyphs" textLength="73" x="1008.5" y="356.6074">AtomicTerm</text><line style="stroke: #A80036; stroke-width: 1.5;" x1="980.5" x2="1083.5" y1="368.4531" y2="368.4531"/><text fill="#000000" font-family="sans-serif" font-size="11" lengthAdjust="spacingAndGlyphs" textLength="32" x="985.5" y="382.6636">value</text><line style="stroke: #A80036; stroke-width: 1.5;" x1="980.5" x2="1083.5" y1="389.2578" y2="389.2578"/><!--MD5=[92a14fe00a6f93c5cefea7481ed0f2af]
class KInteger--><rect fill="#FEFECE" filter="url(#f1e8wy8ai2snah)" height="48" id="KInteger" style="stroke: #A80036; stroke-width: 1.5;" width="83" x="914.5" y="483.9531"/><ellipse cx="929.5" cy="499.9531" fill="#ADD1B2" rx="11" ry="11" style="stroke: #A80036; stroke-width: 1.0;"/><path d="M931.8438,495.625 C930.9063,495.1875 930.3125,495.0469 929.4375,495.0469 C926.8125,495.0469 924.8125,497.125 924.8125,499.8438 L924.8125,500.9688 C924.8125,503.5469 926.9219,505.4375 929.8125,505.4375 C931.0313,505.4375 932.1875,505.1406 932.9375,504.5938 C933.5156,504.1875 933.8438,503.7344 933.8438,503.3438 C933.8438,502.8906 933.4531,502.5 932.9844,502.5 C932.7656,502.5 932.5625,502.5781 932.375,502.7656 C931.9219,503.25 931.9219,503.25 931.7344,503.3438 C931.3125,503.6094 930.625,503.7344 929.8594,503.7344 C927.8125,503.7344 926.5156,502.6406 926.5156,500.9375 L926.5156,499.8438 C926.5156,498.0625 927.7656,496.75 929.5,496.75 C930.0781,496.75 930.6875,496.9063 931.1563,497.1563 C931.6406,497.4375 931.8125,497.6563 931.9063,498.0625 C931.9688,498.4688 932,498.5938 932.1406,498.7188 C932.2813,498.8594 932.5156,498.9688 932.7344,498.9688 C933,498.9688 933.2656,498.8281 933.4375,498.6094 C933.5469,498.4531 933.5781,498.2656 933.5781,497.8438 L933.5781,496.4219 C933.5781,495.9844 933.5625,495.8594 933.4688,495.7031 C933.3125,495.4375 933.0313,495.2969 932.7344,495.2969 C932.4375,495.2969 932.2344,495.3906 932.0156,495.7031 L931.8438,495.625 Z "/><text fill="#000000" font-family="sans-serif" font-size="12" lengthAdjust="spacingAndGlyphs" textLength="51" x="943.5" y="504.1074">KInteger</text><line style="stroke: #A80036; stroke-width: 1.5;" x1="915.5" x2="996.5" y1="515.9531" y2="515.9531"/><line style="stroke: #A80036; stroke-width: 1.5;" x1="915.5" x2="996.5" y1="523.9531" y2="523.9531"/><!--MD5=[c4b501835d82bec6a309fa07b2f52c16]
class KSymbol--><rect fill="#FEFECE" filter="url(#f1e8wy8ai2snah)" height="48" id="KSymbol" style="stroke: #A80036; stroke-width: 1.5;" width="85" x="1032.5" y="483.9531"/><ellipse cx="1047.5" cy="499.9531" fill="#ADD1B2" rx="11" ry="11" style="stroke: #A80036; stroke-width: 1.0;"/><path d="M1049.8438,495.625 C1048.9063,495.1875 1048.3125,495.0469 1047.4375,495.0469 C1044.8125,495.0469 1042.8125,497.125 1042.8125,499.8438 L1042.8125,500.9688 C1042.8125,503.5469 1044.9219,505.4375 1047.8125,505.4375 C1049.0313,505.4375 1050.1875,505.1406 1050.9375,504.5938 C1051.5156,504.1875 1051.8438,503.7344 1051.8438,503.3438 C1051.8438,502.8906 1051.4531,502.5 1050.9844,502.5 C1050.7656,502.5 1050.5625,502.5781 1050.375,502.7656 C1049.9219,503.25 1049.9219,503.25 1049.7344,503.3438 C1049.3125,503.6094 1048.625,503.7344 1047.8594,503.7344 C1045.8125,503.7344 1044.5156,502.6406 1044.5156,500.9375 L1044.5156,499.8438 C1044.5156,498.0625 1045.7656,496.75 1047.5,496.75 C1048.0781,496.75 1048.6875,496.9063 1049.1563,497.1563 C1049.6406,497.4375 1049.8125,497.6563 1049.9063,498.0625 C1049.9688,498.4688 1050,498.5938 1050.1406,498.7188 C1050.2813,498.8594 1050.5156,498.9688 1050.7344,498.9688 C1051,498.9688 1051.2656,498.8281 1051.4375,498.6094 C1051.5469,498.4531 1051.5781,498.2656 1051.5781,497.8438 L1051.5781,496.4219 C1051.5781,495.9844 1051.5625,495.8594 1051.4688,495.7031 C1051.3125,495.4375 1051.0313,495.2969 1050.7344,495.2969 C1050.4375,495.2969 1050.2344,495.3906 1050.0156,495.7031 L1049.8438,495.625 Z "/><text fill="#000000" font-family="sans-serif" font-size="12" lengthAdjust="spacingAndGlyphs" textLength="53" x="1061.5" y="504.1074">KSymbol</text><line style="stroke: #A80036; stroke-width: 1.5;" x1="1033.5" x2="1116.5" y1="515.9531" y2="515.9531"/><line style="stroke: #A80036; stroke-width: 1.5;" x1="1033.5" x2="1116.5" y1="523.9531" y2="523.9531"/><!--MD5=[dadecc702c5f9f05dca7ab580a8e400a]
class CompositeTerm--><rect fill="#FEFECE" filter="url(#f1e8wy8ai2snah)" height="48" id="CompositeTerm" style="stroke: #A80036; stroke-width: 1.5;" width="126" x="818" y="342.9531"/><ellipse cx="833" cy="358.9531" fill="#A9DCDF" rx="11" ry="11" style="stroke: #A80036; stroke-width: 1.0;"/><path d="M835.0781,360.7656 L835.4688,361.75 L835.0781,361.75 C834.625,361.75 834.5156,361.7656 834.3594,361.875 C834.1094,362.0313 833.9531,362.3125 833.9531,362.6094 C833.9531,362.875 834.0938,363.125 834.3125,363.2813 C834.4531,363.4063 834.6563,363.4531 835.0781,363.4531 L837.4375,363.4531 C837.7969,363.4531 838.0156,363.4219 838.1563,363.3281 C838.4063,363.1875 838.5625,362.8906 838.5625,362.6094 C838.5625,362.3281 838.4219,362.0781 838.2031,361.9219 C838.0313,361.7813 837.875,361.75 837.4063,361.75 L834.0156,353.5469 L830.3438,353.5469 C829.8906,353.5469 829.7656,353.5625 829.6094,353.6563 C829.3594,353.8281 829.2031,354.1094 829.2031,354.3906 C829.2031,354.6719 829.3438,354.9219 829.5625,355.0938 C829.7344,355.2031 829.9063,355.2344 830.3438,355.2344 L831.4219,355.2344 L828.7813,361.75 C828.3594,361.75 828.2031,361.7656 828.0469,361.875 C827.7969,362.0313 827.6406,362.3125 827.6406,362.6094 C827.6406,363.1719 828.0156,363.4531 828.7656,363.4531 L831.0313,363.4531 C831.3906,363.4531 831.6094,363.4219 831.7344,363.3281 C832,363.1875 832.1406,362.8906 832.1406,362.6094 C832.1406,362.3281 832.0156,362.0781 831.7969,361.9063 C831.625,361.7813 831.4844,361.75 831.0313,361.75 L830.6406,361.75 L831.0313,360.7656 L835.0781,360.7656 Z M834.375,359.0625 L831.7031,359.0625 L833.0469,355.7969 L834.375,359.0625 Z "/><text fill="#000000" font-family="sans-serif" font-size="12" font-style="italic" lengthAdjust="spacingAndGlyphs" textLength="94" x="847" y="363.1074">CompositeTerm</text><line style="stroke: #A80036; stroke-width: 1.5;" x1="819" x2="943" y1="374.9531" y2="374.9531"/><line style="stroke: #A80036; stroke-width: 1.5;" x1="819" x2="943" y1="382.9531" y2="382.9531"/><!--MD5=[5c45ff2388ddc1722c3a4d58960e2301]
class ConsCell--><rect fill="#FEFECE" filter="url(#f1e8wy8ai2snah)" height="73.6094" id="ConsCell" style="stroke: #A80036; stroke-width: 1.5;" width="84" x="795" y="470.9531"/><ellipse cx="810" cy="486.9531" fill="#ADD1B2" rx="11" ry="11" style="stroke: #A80036; stroke-width: 1.0;"/><path d="M812.3438,482.625 C811.4063,482.1875 810.8125,482.0469 809.9375,482.0469 C807.3125,482.0469 805.3125,484.125 805.3125,486.8438 L805.3125,487.9688 C805.3125,490.5469 807.4219,492.4375 810.3125,492.4375 C811.5313,492.4375 812.6875,492.1406 813.4375,491.5938 C814.0156,491.1875 814.3438,490.7344 814.3438,490.3438 C814.3438,489.8906 813.9531,489.5 813.4844,489.5 C813.2656,489.5 813.0625,489.5781 812.875,489.7656 C812.4219,490.25 812.4219,490.25 812.2344,490.3438 C811.8125,490.6094 811.125,490.7344 810.3594,490.7344 C808.3125,490.7344 807.0156,489.6406 807.0156,487.9375 L807.0156,486.8438 C807.0156,485.0625 808.2656,483.75 810,483.75 C810.5781,483.75 811.1875,483.9063 811.6563,484.1563 C812.1406,484.4375 812.3125,484.6563 812.4063,485.0625 C812.4688,485.4688 812.5,485.5938 812.6406,485.7188 C812.7813,485.8594 813.0156,485.9688 813.2344,485.9688 C813.5,485.9688 813.7656,485.8281 813.9375,485.6094 C814.0469,485.4531 814.0781,485.2656 814.0781,484.8438 L814.0781,483.4219 C814.0781,482.9844 814.0625,482.8594 813.9688,482.7031 C813.8125,482.4375 813.5313,482.2969 813.2344,482.2969 C812.9375,482.2969 812.7344,482.3906 812.5156,482.7031 L812.3438,482.625 Z "/><text fill="#000000" font-family="sans-serif" font-size="12" lengthAdjust="spacingAndGlyphs" textLength="52" x="824" y="491.1074">ConsCell</text><line style="stroke: #A80036; stroke-width: 1.5;" x1="796" x2="878" y1="502.9531" y2="502.9531"/><text fill="#000000" font-family="sans-serif" font-size="11" lengthAdjust="spacingAndGlyphs" textLength="58" x="801" y="517.1636">car : Term</text><text fill="#000000" font-family="sans-serif" font-size="11" lengthAdjust="spacingAndGlyphs" textLength="58" x="801" y="529.9683">cdr : Term</text><line style="stroke: #A80036; stroke-width: 1.5;" x1="796" x2="878" y1="536.5625" y2="536.5625"/><!--MD5=[232882a74bb3d7ca169cfb1ce7c7ca46]
class Designation--><rect fill="#FEFECE" filter="url(#f1e8wy8ai2snah)" height="79.5469" id="Designation" style="stroke: #A80036; stroke-width: 1.5;" width="149" x="561.5" y="166.9531"/><ellipse cx="597.2" cy="185.9219" fill="#DA70D6" rx="11" ry="11" style="stroke: #A80036; stroke-width: 1.0;"/><path d="M594.1063,184.3125 L596.1219,188.5781 L597.6688,188.5781 L599.5594,184.3125 L599.5594,189.2188 L598.9656,189.2188 C598.5125,189.2188 598.4031,189.2344 598.2469,189.3438 C597.9969,189.5 597.8406,189.7813 597.8406,190.0781 C597.8406,190.3281 597.9656,190.5938 598.2,190.75 C598.325,190.875 598.575,190.9219 598.9656,190.9219 L601.1688,190.9219 C601.5125,190.9219 601.7625,190.875 601.8875,190.7969 C602.1375,190.6406 602.2938,190.3594 602.2938,190.0781 C602.2938,189.5313 601.9188,189.2188 601.2469,189.2188 L601.2469,182.7031 C601.8094,182.6563 602.1375,182.3594 602.1375,181.8594 C602.1375,181.5938 601.9969,181.3281 601.7938,181.1563 C601.6219,181.0469 601.4813,181.0156 601.0125,181.0156 L599.1531,181.0156 L596.8563,186.0625 L594.5125,181.0156 L592.6531,181.0156 C592.6375,181 592.6219,181 592.5906,181 C592.3875,181 592.0281,181.0625 591.9344,181.1094 C591.6844,181.2813 591.5281,181.5781 591.5281,181.8438 C591.5281,182.3594 591.8563,182.6563 592.4188,182.7031 L592.4188,189.2188 C591.7469,189.2188 591.3719,189.5313 591.3719,190.0781 C591.3719,190.3438 591.5125,190.5938 591.7313,190.75 C591.8875,190.875 592.1063,190.9219 592.5125,190.9219 L594.7156,190.9219 C595.0438,190.9219 595.3094,190.875 595.4188,190.7969 C595.6844,190.6406 595.825,190.3594 595.825,190.0781 C595.825,189.7969 595.7156,189.5469 595.4969,189.375 C595.3094,189.25 595.1688,189.2188 594.7156,189.2188 L594.1063,189.2188 L594.1063,184.3125 Z "/><text fill="#000000" font-family="sans-serif" font-size="12" font-style="italic" lengthAdjust="spacingAndGlyphs" textLength="59" x="621.8" y="183.0918">«module»</text><text fill="#000000" font-family="sans-serif" font-size="12" lengthAdjust="spacingAndGlyphs" textLength="71" x="615.8" y="197.0605">Designation</text><line style="stroke: #A80036; stroke-width: 1.5;" x1="562.5" x2="709.5" y1="204.8906" y2="204.8906"/><text fill="#000000" font-family="sans-serif" font-size="11" lengthAdjust="spacingAndGlyphs" textLength="77" x="567.5" y="219.1011">name : String</text><line style="stroke: #A80036; stroke-width: 1.5;" x1="562.5" x2="709.5" y1="225.6953" y2="225.6953"/><text fill="#000000" font-family="sans-serif" font-size="11" lengthAdjust="spacingAndGlyphs" textLength="137" x="567.5" y="239.9058">add_assoc(String, Term)</text><!--MD5=[1e667c6ad6db7468aaf1f24fbbf1ec5d]
class Variable--><rect fill="#FEFECE" filter="url(#f1e8wy8ai2snah)" height="60.8047" id="Variable" style="stroke: #A80036; stroke-width: 1.5;" width="98" x="503" y="477.4531"/><ellipse cx="525.65" cy="493.4531" fill="#ADD1B2" rx="11" ry="11" style="stroke: #A80036; stroke-width: 1.0;"/><path d="M527.9938,489.125 C527.0563,488.6875 526.4625,488.5469 525.5875,488.5469 C522.9625,488.5469 520.9625,490.625 520.9625,493.3438 L520.9625,494.4688 C520.9625,497.0469 523.0719,498.9375 525.9625,498.9375 C527.1813,498.9375 528.3375,498.6406 529.0875,498.0938 C529.6656,497.6875 529.9938,497.2344 529.9938,496.8438 C529.9938,496.3906 529.6031,496 529.1344,496 C528.9156,496 528.7125,496.0781 528.525,496.2656 C528.0719,496.75 528.0719,496.75 527.8844,496.8438 C527.4625,497.1094 526.775,497.2344 526.0094,497.2344 C523.9625,497.2344 522.6656,496.1406 522.6656,494.4375 L522.6656,493.3438 C522.6656,491.5625 523.9156,490.25 525.65,490.25 C526.2281,490.25 526.8375,490.4063 527.3063,490.6563 C527.7906,490.9375 527.9625,491.1563 528.0563,491.5625 C528.1188,491.9688 528.15,492.0938 528.2906,492.2188 C528.4313,492.3594 528.6656,492.4688 528.8844,492.4688 C529.15,492.4688 529.4156,492.3281 529.5875,492.1094 C529.6969,491.9531 529.7281,491.7656 529.7281,491.3438 L529.7281,489.9219 C529.7281,489.4844 529.7125,489.3594 529.6188,489.2031 C529.4625,488.9375 529.1813,488.7969 528.8844,488.7969 C528.5875,488.7969 528.3844,488.8906 528.1656,489.2031 L527.9938,489.125 Z "/><text fill="#000000" font-family="sans-serif" font-size="12" lengthAdjust="spacingAndGlyphs" textLength="49" x="541.35" y="497.6074">Variable</text><line style="stroke: #A80036; stroke-width: 1.5;" x1="504" x2="600" y1="509.4531" y2="509.4531"/><text fill="#000000" font-family="sans-serif" font-size="11" lengthAdjust="spacingAndGlyphs" textLength="86" x="509" y="523.6636">i_name : String</text><line style="stroke: #A80036; stroke-width: 1.5;" x1="504" x2="600" y1="530.2578" y2="530.2578"/><!--MD5=[a24e4d517bba806fa2e9b9fac30c71bc]
class VariableRef--><rect fill="#FEFECE" filter="url(#f1e8wy8ai2snah)" height="48" id="VariableRef" style="stroke: #A80036; stroke-width: 1.5;" width="100" x="683" y="342.9531"/><ellipse cx="698" cy="358.9531" fill="#ADD1B2" rx="11" ry="11" style="stroke: #A80036; stroke-width: 1.0;"/><path d="M700.3438,354.625 C699.4063,354.1875 698.8125,354.0469 697.9375,354.0469 C695.3125,354.0469 693.3125,356.125 693.3125,358.8438 L693.3125,359.9688 C693.3125,362.5469 695.4219,364.4375 698.3125,364.4375 C699.5313,364.4375 700.6875,364.1406 701.4375,363.5938 C702.0156,363.1875 702.3438,362.7344 702.3438,362.3438 C702.3438,361.8906 701.9531,361.5 701.4844,361.5 C701.2656,361.5 701.0625,361.5781 700.875,361.7656 C700.4219,362.25 700.4219,362.25 700.2344,362.3438 C699.8125,362.6094 699.125,362.7344 698.3594,362.7344 C696.3125,362.7344 695.0156,361.6406 695.0156,359.9375 L695.0156,358.8438 C695.0156,357.0625 696.2656,355.75 698,355.75 C698.5781,355.75 699.1875,355.9063 699.6563,356.1563 C700.1406,356.4375 700.3125,356.6563 700.4063,357.0625 C700.4688,357.4688 700.5,357.5938 700.6406,357.7188 C700.7813,357.8594 701.0156,357.9688 701.2344,357.9688 C701.5,357.9688 701.7656,357.8281 701.9375,357.6094 C702.0469,357.4531 702.0781,357.2656 702.0781,356.8438 L702.0781,355.4219 C702.0781,354.9844 702.0625,354.8594 701.9688,354.7031 C701.8125,354.4375 701.5313,354.2969 701.2344,354.2969 C700.9375,354.2969 700.7344,354.3906 700.5156,354.7031 L700.3438,354.625 Z "/><text fill="#000000" font-family="sans-serif" font-size="12" lengthAdjust="spacingAndGlyphs" textLength="68" x="712" y="363.1074">VariableRef</text><line style="stroke: #A80036; stroke-width: 1.5;" x1="684" x2="782" y1="374.9531" y2="374.9531"/><line style="stroke: #A80036; stroke-width: 1.5;" x1="684" x2="782" y1="382.9531" y2="382.9531"/><!--MD5=[b9be2c694e35ab9e85e666b830f85409]
class Association--><rect fill="#FEFECE" filter="url(#f1e8wy8ai2snah)" height="60.8047" id="Association" style="stroke: #A80036; stroke-width: 1.5;" width="101" x="423.5" y="336.4531"/><ellipse cx="438.5" cy="352.4531" fill="#ADD1B2" rx="11" ry="11" style="stroke: #A80036; stroke-width: 1.0;"/><path d="M440.8438,348.125 C439.9063,347.6875 439.3125,347.5469 438.4375,347.5469 C435.8125,347.5469 433.8125,349.625 433.8125,352.3438 L433.8125,353.4688 C433.8125,356.0469 435.9219,357.9375 438.8125,357.9375 C440.0313,357.9375 441.1875,357.6406 441.9375,357.0938 C442.5156,356.6875 442.8438,356.2344 442.8438,355.8438 C442.8438,355.3906 442.4531,355 441.9844,355 C441.7656,355 441.5625,355.0781 441.375,355.2656 C440.9219,355.75 440.9219,355.75 440.7344,355.8438 C440.3125,356.1094 439.625,356.2344 438.8594,356.2344 C436.8125,356.2344 435.5156,355.1406 435.5156,353.4375 L435.5156,352.3438 C435.5156,350.5625 436.7656,349.25 438.5,349.25 C439.0781,349.25 439.6875,349.4063 440.1563,349.6563 C440.6406,349.9375 440.8125,350.1563 440.9063,350.5625 C440.9688,350.9688 441,351.0938 441.1406,351.2188 C441.2813,351.3594 441.5156,351.4688 441.7344,351.4688 C442,351.4688 442.2656,351.3281 442.4375,351.1094 C442.5469,350.9531 442.5781,350.7656 442.5781,350.3438 L442.5781,348.9219 C442.5781,348.4844 442.5625,348.3594 442.4688,348.2031 C442.3125,347.9375 442.0313,347.7969 441.7344,347.7969 C441.4375,347.7969 441.2344,347.8906 441.0156,348.2031 L440.8438,348.125 Z "/><text fill="#000000" font-family="sans-serif" font-size="12" lengthAdjust="spacingAndGlyphs" textLength="69" x="452.5" y="356.6074">Association</text><line style="stroke: #A80036; stroke-width: 1.5;" x1="424.5" x2="523.5" y1="368.4531" y2="368.4531"/><text fill="#000000" font-family="sans-serif" font-size="11" lengthAdjust="spacingAndGlyphs" textLength="86" x="429.5" y="382.6636">i_name : String</text><line style="stroke: #A80036; stroke-width: 1.5;" x1="424.5" x2="523.5" y1="389.2578" y2="389.2578"/><!--MD5=[534474e9f05b14d7c70186ae077f30e0]
class Relation--><rect fill="#FEFECE" filter="url(#f1e8wy8ai2snah)" height="86.4141" id="Relation" style="stroke: #A80036; stroke-width: 1.5;" width="333" x="1139.5" y="323.9531"/><ellipse cx="1277.75" cy="339.9531" fill="#A9DCDF" rx="11" ry="11" style="stroke: #A80036; stroke-width: 1.0;"/><path d="M1279.8281,341.7656 L1280.2188,342.75 L1279.8281,342.75 C1279.375,342.75 1279.2656,342.7656 1279.1094,342.875 C1278.8594,343.0313 1278.7031,343.3125 1278.7031,343.6094 C1278.7031,343.875 1278.8438,344.125 1279.0625,344.2813 C1279.2031,344.4063 1279.4063,344.4531 1279.8281,344.4531 L1282.1875,344.4531 C1282.5469,344.4531 1282.7656,344.4219 1282.9063,344.3281 C1283.1563,344.1875 1283.3125,343.8906 1283.3125,343.6094 C1283.3125,343.3281 1283.1719,343.0781 1282.9531,342.9219 C1282.7813,342.7813 1282.625,342.75 1282.1563,342.75 L1278.7656,334.5469 L1275.0938,334.5469 C1274.6406,334.5469 1274.5156,334.5625 1274.3594,334.6563 C1274.1094,334.8281 1273.9531,335.1094 1273.9531,335.3906 C1273.9531,335.6719 1274.0938,335.9219 1274.3125,336.0938 C1274.4844,336.2031 1274.6563,336.2344 1275.0938,336.2344 L1276.1719,336.2344 L1273.5313,342.75 C1273.1094,342.75 1272.9531,342.7656 1272.7969,342.875 C1272.5469,343.0313 1272.3906,343.3125 1272.3906,343.6094 C1272.3906,344.1719 1272.7656,344.4531 1273.5156,344.4531 L1275.7813,344.4531 C1276.1406,344.4531 1276.3594,344.4219 1276.4844,344.3281 C1276.75,344.1875 1276.8906,343.8906 1276.8906,343.6094 C1276.8906,343.3281 1276.7656,343.0781 1276.5469,342.9063 C1276.375,342.7813 1276.2344,342.75 1275.7813,342.75 L1275.3906,342.75 L1275.7813,341.7656 L1279.8281,341.7656 Z M1279.125,340.0625 L1276.4531,340.0625 L1277.7969,336.7969 L1279.125,340.0625 Z "/><text fill="#000000" font-family="sans-serif" font-size="12" font-style="italic" lengthAdjust="spacingAndGlyphs" textLength="48" x="1298.25" y="344.1074">Relation</text><line style="stroke: #A80036; stroke-width: 1.5;" x1="1140.5" x2="1471.5" y1="355.9531" y2="355.9531"/><text fill="#000000" font-family="sans-serif" font-size="11" lengthAdjust="spacingAndGlyphs" textLength="77" x="1145.5" y="370.1636">name : String</text><text fill="#000000" font-family="sans-serif" font-size="11" lengthAdjust="spacingAndGlyphs" textLength="97" x="1145.5" y="382.9683">alt_name : String</text><line style="stroke: #A80036; stroke-width: 1.5;" x1="1140.5" x2="1471.5" y1="389.5625" y2="389.5625"/><text fill="#000000" font-family="sans-serif" font-size="11" lengthAdjust="spacingAndGlyphs" textLength="321" x="1145.5" y="403.7729">solver_for(Array&lt;Term&gt;, Vocabulary) : Fiber&lt;Outcome&gt;</text><!--MD5=[95412cb64f4ffb7d0a53d0e17e0de9d7]
class GoalRelation--><rect fill="#FEFECE" filter="url(#f1e8wy8ai2snah)" height="48" id="GoalRelation" style="stroke: #A80036; stroke-width: 1.5;" width="106" x="1463" y="483.9531"/><ellipse cx="1478" cy="499.9531" fill="#A9DCDF" rx="11" ry="11" style="stroke: #A80036; stroke-width: 1.0;"/><path d="M1480.0781,501.7656 L1480.4688,502.75 L1480.0781,502.75 C1479.625,502.75 1479.5156,502.7656 1479.3594,502.875 C1479.1094,503.0313 1478.9531,503.3125 1478.9531,503.6094 C1478.9531,503.875 1479.0938,504.125 1479.3125,504.2813 C1479.4531,504.4063 1479.6563,504.4531 1480.0781,504.4531 L1482.4375,504.4531 C1482.7969,504.4531 1483.0156,504.4219 1483.1563,504.3281 C1483.4063,504.1875 1483.5625,503.8906 1483.5625,503.6094 C1483.5625,503.3281 1483.4219,503.0781 1483.2031,502.9219 C1483.0313,502.7813 1482.875,502.75 1482.4063,502.75 L1479.0156,494.5469 L1475.3438,494.5469 C1474.8906,494.5469 1474.7656,494.5625 1474.6094,494.6563 C1474.3594,494.8281 1474.2031,495.1094 1474.2031,495.3906 C1474.2031,495.6719 1474.3438,495.9219 1474.5625,496.0938 C1474.7344,496.2031 1474.9063,496.2344 1475.3438,496.2344 L1476.4219,496.2344 L1473.7813,502.75 C1473.3594,502.75 1473.2031,502.7656 1473.0469,502.875 C1472.7969,503.0313 1472.6406,503.3125 1472.6406,503.6094 C1472.6406,504.1719 1473.0156,504.4531 1473.7656,504.4531 L1476.0313,504.4531 C1476.3906,504.4531 1476.6094,504.4219 1476.7344,504.3281 C1477,504.1875 1477.1406,503.8906 1477.1406,503.6094 C1477.1406,503.3281 1477.0156,503.0781 1476.7969,502.9063 C1476.625,502.7813 1476.4844,502.75 1476.0313,502.75 L1475.6406,502.75 L1476.0313,501.7656 L1480.0781,501.7656 Z M1479.375,500.0625 L1476.7031,500.0625 L1478.0469,496.7969 L1479.375,500.0625 Z "/><text fill="#000000" font-family="sans-serif" font-size="12" font-style="italic" lengthAdjust="spacingAndGlyphs" textLength="74" x="1492" y="504.1074">GoalRelation</text><line style="stroke: #A80036; stroke-width: 1.5;" x1="1464" x2="1568" y1="515.9531" y2="515.9531"/><line style="stroke: #A80036; stroke-width: 1.5;" x1="1464" x2="1568" y1="523.9531" y2="523.9531"/><!--MD5=[67b523df484b7b041d90f7257977ead4]
class NullaryRelation--><rect fill="#FEFECE" filter="url(#f1e8wy8ai2snah)" height="60.8047" id="NullaryRelation" style="stroke: #A80036; stroke-width: 1.5;" width="122" x="1153" y="477.4531"/><ellipse cx="1168" cy="493.4531" fill="#A9DCDF" rx="11" ry="11" style="stroke: #A80036; stroke-width: 1.0;"/><path d="M1170.0781,495.2656 L1170.4688,496.25 L1170.0781,496.25 C1169.625,496.25 1169.5156,496.2656 1169.3594,496.375 C1169.1094,496.5313 1168.9531,496.8125 1168.9531,497.1094 C1168.9531,497.375 1169.0938,497.625 1169.3125,497.7813 C1169.4531,497.9063 1169.6563,497.9531 1170.0781,497.9531 L1172.4375,497.9531 C1172.7969,497.9531 1173.0156,497.9219 1173.1563,497.8281 C1173.4063,497.6875 1173.5625,497.3906 1173.5625,497.1094 C1173.5625,496.8281 1173.4219,496.5781 1173.2031,496.4219 C1173.0313,496.2813 1172.875,496.25 1172.4063,496.25 L1169.0156,488.0469 L1165.3438,488.0469 C1164.8906,488.0469 1164.7656,488.0625 1164.6094,488.1563 C1164.3594,488.3281 1164.2031,488.6094 1164.2031,488.8906 C1164.2031,489.1719 1164.3438,489.4219 1164.5625,489.5938 C1164.7344,489.7031 1164.9063,489.7344 1165.3438,489.7344 L1166.4219,489.7344 L1163.7813,496.25 C1163.3594,496.25 1163.2031,496.2656 1163.0469,496.375 C1162.7969,496.5313 1162.6406,496.8125 1162.6406,497.1094 C1162.6406,497.6719 1163.0156,497.9531 1163.7656,497.9531 L1166.0313,497.9531 C1166.3906,497.9531 1166.6094,497.9219 1166.7344,497.8281 C1167,497.6875 1167.1406,497.3906 1167.1406,497.1094 C1167.1406,496.8281 1167.0156,496.5781 1166.7969,496.4063 C1166.625,496.2813 1166.4844,496.25 1166.0313,496.25 L1165.6406,496.25 L1166.0313,495.2656 L1170.0781,495.2656 Z M1169.375,493.5625 L1166.7031,493.5625 L1168.0469,490.2969 L1169.375,493.5625 Z "/><text fill="#000000" font-family="sans-serif" font-size="12" font-style="italic" lengthAdjust="spacingAndGlyphs" textLength="90" x="1182" y="497.6074">NullaryRelation</text><line style="stroke: #A80036; stroke-width: 1.5;" x1="1154" x2="1274" y1="509.4531" y2="509.4531"/><line style="stroke: #A80036; stroke-width: 1.5;" x1="1154" x2="1274" y1="517.4531" y2="517.4531"/><text fill="#000000" font-family="sans-serif" font-size="11" lengthAdjust="spacingAndGlyphs" textLength="85" x="1159" y="531.6636">arity() : Integer</text><!--MD5=[0f49711e09a4e276ecfadbbcb416eaaf]
class Fail--><rect fill="#FEFECE" filter="url(#f1e8wy8ai2snah)" height="53.9375" id="Fail" style="stroke: #A80036; stroke-width: 1.5;" width="97" x="1177.5" y="605.9531"/><ellipse cx="1192.5" cy="624.9219" fill="#FF7700" rx="11" ry="11" style="stroke: #A80036; stroke-width: 1.0;"/><path d="M1196.2813,620.8906 C1196.2813,620.4531 1196.2656,620.3125 1196.1719,620.1563 C1196.0313,619.9219 1195.75,619.7656 1195.4531,619.7656 C1195.1094,619.7656 1194.9688,619.9063 1194.7969,620.3281 C1194.2031,619.9531 1193.4531,619.7656 1192.5781,619.7656 C1190.4688,619.7656 1188.8906,621.0625 1188.8906,622.7813 C1188.8906,623.75 1189.4219,624.6563 1190.2813,625.1406 C1190.8281,625.4531 1191.375,625.625 1192.4844,625.8125 C1193.6406,626.0156 1193.9063,626.0781 1194.2656,626.2656 C1194.6406,626.4688 1194.875,626.8125 1194.875,627.1719 C1194.875,627.9063 1193.8906,628.4531 1192.6406,628.4531 C1191.5156,628.4531 1190.4375,627.9688 1190.2656,627.3594 C1190.1406,626.8906 1190.1406,626.8906 1190.0156,626.7813 C1189.8594,626.625 1189.6406,626.5313 1189.4063,626.5313 C1189.125,626.5313 1188.875,626.6563 1188.7031,626.875 C1188.5938,627.0469 1188.5469,627.2344 1188.5469,627.6563 L1188.5469,628.7813 C1188.5469,629.5469 1188.8281,629.9063 1189.4219,629.9063 C1189.6875,629.9063 1189.8125,629.8438 1190.0938,629.5 C1190.9375,629.9375 1191.8281,630.1563 1192.75,630.1563 C1195.0781,630.1563 1196.6406,628.9688 1196.6406,627.2031 C1196.6406,626.3125 1196.3281,625.625 1195.6406,625.0781 C1195.1094,624.6563 1194.4688,624.4063 1192.9844,624.1406 C1191.7188,623.9063 1191.625,623.875 1191.2969,623.7031 C1190.9219,623.5156 1190.6563,623.125 1190.6563,622.7656 C1190.6563,622.0313 1191.5156,621.4688 1192.5781,621.4688 C1193.6406,621.4688 1194.4531,621.9375 1194.6094,622.6094 C1194.7188,623.1563 1194.7188,623.1563 1194.8438,623.2969 C1194.9844,623.4219 1195.2188,623.5313 1195.4531,623.5313 C1195.7188,623.5313 1195.9688,623.3906 1196.1406,623.1719 C1196.25,623 1196.2813,622.8594 1196.2813,622.3906 L1196.2813,620.8906 Z "/><text fill="#000000" font-family="sans-serif" font-size="12" font-style="italic" lengthAdjust="spacingAndGlyphs" textLength="69" x="1204.5" y="622.0918">«singleton»</text><text fill="#000000" font-family="sans-serif" font-size="12" lengthAdjust="spacingAndGlyphs" textLength="20" x="1229" y="636.0605">Fail</text><line style="stroke: #A80036; stroke-width: 1.5;" x1="1178.5" x2="1273.5" y1="643.8906" y2="643.8906"/><line style="stroke: #A80036; stroke-width: 1.5;" x1="1178.5" x2="1273.5" y1="651.8906" y2="651.8906"/><!--MD5=[dba040c6cba649971931ef65e20ad63c]
class Succeed--><rect fill="#FEFECE" filter="url(#f1e8wy8ai2snah)" height="53.9375" id="Succeed" style="stroke: #A80036; stroke-width: 1.5;" width="97" x="1045.5" y="605.9531"/><ellipse cx="1060.5" cy="624.9219" fill="#FF7700" rx="11" ry="11" style="stroke: #A80036; stroke-width: 1.0;"/><path d="M1064.2813,620.8906 C1064.2813,620.4531 1064.2656,620.3125 1064.1719,620.1563 C1064.0313,619.9219 1063.75,619.7656 1063.4531,619.7656 C1063.1094,619.7656 1062.9688,619.9063 1062.7969,620.3281 C1062.2031,619.9531 1061.4531,619.7656 1060.5781,619.7656 C1058.4688,619.7656 1056.8906,621.0625 1056.8906,622.7813 C1056.8906,623.75 1057.4219,624.6563 1058.2813,625.1406 C1058.8281,625.4531 1059.375,625.625 1060.4844,625.8125 C1061.6406,626.0156 1061.9063,626.0781 1062.2656,626.2656 C1062.6406,626.4688 1062.875,626.8125 1062.875,627.1719 C1062.875,627.9063 1061.8906,628.4531 1060.6406,628.4531 C1059.5156,628.4531 1058.4375,627.9688 1058.2656,627.3594 C1058.1406,626.8906 1058.1406,626.8906 1058.0156,626.7813 C1057.8594,626.625 1057.6406,626.5313 1057.4063,626.5313 C1057.125,626.5313 1056.875,626.6563 1056.7031,626.875 C1056.5938,627.0469 1056.5469,627.2344 1056.5469,627.6563 L1056.5469,628.7813 C1056.5469,629.5469 1056.8281,629.9063 1057.4219,629.9063 C1057.6875,629.9063 1057.8125,629.8438 1058.0938,629.5 C1058.9375,629.9375 1059.8281,630.1563 1060.75,630.1563 C1063.0781,630.1563 1064.6406,628.9688 1064.6406,627.2031 C1064.6406,626.3125 1064.3281,625.625 1063.6406,625.0781 C1063.1094,624.6563 1062.4688,624.4063 1060.9844,624.1406 C1059.7188,623.9063 1059.625,623.875 1059.2969,623.7031 C1058.9219,623.5156 1058.6563,623.125 1058.6563,622.7656 C1058.6563,622.0313 1059.5156,621.4688 1060.5781,621.4688 C1061.6406,621.4688 1062.4531,621.9375 1062.6094,622.6094 C1062.7188,623.1563 1062.7188,623.1563 1062.8438,623.2969 C1062.9844,623.4219 1063.2188,623.5313 1063.4531,623.5313 C1063.7188,623.5313 1063.9688,623.3906 1064.1406,623.1719 C1064.25,623 1064.2813,622.8594 1064.2813,622.3906 L1064.2813,620.8906 Z "/><text fill="#000000" font-family="sans-serif" font-size="12" font-style="italic" lengthAdjust="spacingAndGlyphs" textLength="69" x="1072.5" y="622.0918">«singleton»</text><text fill="#000000" font-family="sans-serif" font-size="12" lengthAdjust="spacingAndGlyphs" textLength="53" x="1080.5" y="636.0605">Succeed</text><line style="stroke: #A80036; stroke-width: 1.5;" x1="1046.5" x2="1141.5" y1="643.8906" y2="643.8906"/><line style="stroke: #A80036; stroke-width: 1.5;" x1="1046.5" x2="1141.5" y1="651.8906" y2="651.8906"/><!--MD5=[534d042e5b1117877e2c9e5c358927c2]
class BinaryRelation--><rect fill="#FEFECE" filter="url(#f1e8wy8ai2snah)" height="60.8047" id="BinaryRelation" style="stroke: #A80036; stroke-width: 1.5;" width="118" x="1310" y="477.4531"/><ellipse cx="1325" cy="493.4531" fill="#A9DCDF" rx="11" ry="11" style="stroke: #A80036; stroke-width: 1.0;"/><path d="M1327.0781,495.2656 L1327.4688,496.25 L1327.0781,496.25 C1326.625,496.25 1326.5156,496.2656 1326.3594,496.375 C1326.1094,496.5313 1325.9531,496.8125 1325.9531,497.1094 C1325.9531,497.375 1326.0938,497.625 1326.3125,497.7813 C1326.4531,497.9063 1326.6563,497.9531 1327.0781,497.9531 L1329.4375,497.9531 C1329.7969,497.9531 1330.0156,497.9219 1330.1563,497.8281 C1330.4063,497.6875 1330.5625,497.3906 1330.5625,497.1094 C1330.5625,496.8281 1330.4219,496.5781 1330.2031,496.4219 C1330.0313,496.2813 1329.875,496.25 1329.4063,496.25 L1326.0156,488.0469 L1322.3438,488.0469 C1321.8906,488.0469 1321.7656,488.0625 1321.6094,488.1563 C1321.3594,488.3281 1321.2031,488.6094 1321.2031,488.8906 C1321.2031,489.1719 1321.3438,489.4219 1321.5625,489.5938 C1321.7344,489.7031 1321.9063,489.7344 1322.3438,489.7344 L1323.4219,489.7344 L1320.7813,496.25 C1320.3594,496.25 1320.2031,496.2656 1320.0469,496.375 C1319.7969,496.5313 1319.6406,496.8125 1319.6406,497.1094 C1319.6406,497.6719 1320.0156,497.9531 1320.7656,497.9531 L1323.0313,497.9531 C1323.3906,497.9531 1323.6094,497.9219 1323.7344,497.8281 C1324,497.6875 1324.1406,497.3906 1324.1406,497.1094 C1324.1406,496.8281 1324.0156,496.5781 1323.7969,496.4063 C1323.625,496.2813 1323.4844,496.25 1323.0313,496.25 L1322.6406,496.25 L1323.0313,495.2656 L1327.0781,495.2656 Z M1326.375,493.5625 L1323.7031,493.5625 L1325.0469,490.2969 L1326.375,493.5625 Z "/><text fill="#000000" font-family="sans-serif" font-size="12" font-style="italic" lengthAdjust="spacingAndGlyphs" textLength="86" x="1339" y="497.6074">BinaryRelation</text><line style="stroke: #A80036; stroke-width: 1.5;" x1="1311" x2="1427" y1="509.4531" y2="509.4531"/><line style="stroke: #A80036; stroke-width: 1.5;" x1="1311" x2="1427" y1="517.4531" y2="517.4531"/><text fill="#000000" font-family="sans-serif" font-size="11" lengthAdjust="spacingAndGlyphs" textLength="85" x="1316" y="531.6636">arity() : Integer</text><!--MD5=[dd047b06638785db7c5e5d57995e2c0b]
class Equals--><rect fill="#FEFECE" filter="url(#f1e8wy8ai2snah)" height="53.9375" id="Equals" style="stroke: #A80036; stroke-width: 1.5;" width="97" x="1320.5" y="605.9531"/><ellipse cx="1335.5" cy="624.9219" fill="#FF7700" rx="11" ry="11" style="stroke: #A80036; stroke-width: 1.0;"/><path d="M1339.2813,620.8906 C1339.2813,620.4531 1339.2656,620.3125 1339.1719,620.1563 C1339.0313,619.9219 1338.75,619.7656 1338.4531,619.7656 C1338.1094,619.7656 1337.9688,619.9063 1337.7969,620.3281 C1337.2031,619.9531 1336.4531,619.7656 1335.5781,619.7656 C1333.4688,619.7656 1331.8906,621.0625 1331.8906,622.7813 C1331.8906,623.75 1332.4219,624.6563 1333.2813,625.1406 C1333.8281,625.4531 1334.375,625.625 1335.4844,625.8125 C1336.6406,626.0156 1336.9063,626.0781 1337.2656,626.2656 C1337.6406,626.4688 1337.875,626.8125 1337.875,627.1719 C1337.875,627.9063 1336.8906,628.4531 1335.6406,628.4531 C1334.5156,628.4531 1333.4375,627.9688 1333.2656,627.3594 C1333.1406,626.8906 1333.1406,626.8906 1333.0156,626.7813 C1332.8594,626.625 1332.6406,626.5313 1332.4063,626.5313 C1332.125,626.5313 1331.875,626.6563 1331.7031,626.875 C1331.5938,627.0469 1331.5469,627.2344 1331.5469,627.6563 L1331.5469,628.7813 C1331.5469,629.5469 1331.8281,629.9063 1332.4219,629.9063 C1332.6875,629.9063 1332.8125,629.8438 1333.0938,629.5 C1333.9375,629.9375 1334.8281,630.1563 1335.75,630.1563 C1338.0781,630.1563 1339.6406,628.9688 1339.6406,627.2031 C1339.6406,626.3125 1339.3281,625.625 1338.6406,625.0781 C1338.1094,624.6563 1337.4688,624.4063 1335.9844,624.1406 C1334.7188,623.9063 1334.625,623.875 1334.2969,623.7031 C1333.9219,623.5156 1333.6563,623.125 1333.6563,622.7656 C1333.6563,622.0313 1334.5156,621.4688 1335.5781,621.4688 C1336.6406,621.4688 1337.4531,621.9375 1337.6094,622.6094 C1337.7188,623.1563 1337.7188,623.1563 1337.8438,623.2969 C1337.9844,623.4219 1338.2188,623.5313 1338.4531,623.5313 C1338.7188,623.5313 1338.9688,623.3906 1339.1406,623.1719 C1339.25,623 1339.2813,622.8594 1339.2813,622.3906 L1339.2813,620.8906 Z "/><text fill="#000000" font-family="sans-serif" font-size="12" font-style="italic" lengthAdjust="spacingAndGlyphs" textLength="69" x="1347.5" y="622.0918">«singleton»</text><text fill="#000000" font-family="sans-serif" font-size="12" lengthAdjust="spacingAndGlyphs" textLength="39" x="1362.5" y="636.0605">Equals</text><line style="stroke: #A80036; stroke-width: 1.5;" x1="1321.5" x2="1416.5" y1="643.8906" y2="643.8906"/><line style="stroke: #A80036; stroke-width: 1.5;" x1="1321.5" x2="1416.5" y1="651.8906" y2="651.8906"/><!--MD5=[ab582a0c263dba417ad352e606b068fa]
class Vocabulary--><rect fill="#FEFECE" filter="url(#f1e8wy8ai2snah)" height="79.5469" id="Vocabulary" style="stroke: #A80036; stroke-width: 1.5;" width="149" x="257.5" y="166.9531"/><ellipse cx="295" cy="185.9219" fill="#DA70D6" rx="11" ry="11" style="stroke: #A80036; stroke-width: 1.0;"/><path d="M291.9063,184.3125 L293.9219,188.5781 L295.4688,188.5781 L297.3594,184.3125 L297.3594,189.2188 L296.7656,189.2188 C296.3125,189.2188 296.2031,189.2344 296.0469,189.3438 C295.7969,189.5 295.6406,189.7813 295.6406,190.0781 C295.6406,190.3281 295.7656,190.5938 296,190.75 C296.125,190.875 296.375,190.9219 296.7656,190.9219 L298.9688,190.9219 C299.3125,190.9219 299.5625,190.875 299.6875,190.7969 C299.9375,190.6406 300.0938,190.3594 300.0938,190.0781 C300.0938,189.5313 299.7188,189.2188 299.0469,189.2188 L299.0469,182.7031 C299.6094,182.6563 299.9375,182.3594 299.9375,181.8594 C299.9375,181.5938 299.7969,181.3281 299.5938,181.1563 C299.4219,181.0469 299.2813,181.0156 298.8125,181.0156 L296.9531,181.0156 L294.6563,186.0625 L292.3125,181.0156 L290.4531,181.0156 C290.4375,181 290.4219,181 290.3906,181 C290.1875,181 289.8281,181.0625 289.7344,181.1094 C289.4844,181.2813 289.3281,181.5781 289.3281,181.8438 C289.3281,182.3594 289.6563,182.6563 290.2188,182.7031 L290.2188,189.2188 C289.5469,189.2188 289.1719,189.5313 289.1719,190.0781 C289.1719,190.3438 289.3125,190.5938 289.5313,190.75 C289.6875,190.875 289.9063,190.9219 290.3125,190.9219 L292.5156,190.9219 C292.8438,190.9219 293.1094,190.875 293.2188,190.7969 C293.4844,190.6406 293.625,190.3594 293.625,190.0781 C293.625,189.7969 293.5156,189.5469 293.2969,189.375 C293.1094,189.25 292.9688,189.2188 292.5156,189.2188 L291.9063,189.2188 L291.9063,184.3125 Z "/><text fill="#000000" font-family="sans-serif" font-size="12" font-style="italic" lengthAdjust="spacingAndGlyphs" textLength="59" x="318" y="183.0918">«module»</text><text fill="#000000" font-family="sans-serif" font-size="12" lengthAdjust="spacingAndGlyphs" textLength="67" x="314" y="197.0605">Vocabulary</text><line style="stroke: #A80036; stroke-width: 1.5;" x1="258.5" x2="405.5" y1="204.8906" y2="204.8906"/><text fill="#000000" font-family="sans-serif" font-size="11" lengthAdjust="spacingAndGlyphs" textLength="86" x="263.5" y="219.1011">rankings : Hash</text><line style="stroke: #A80036; stroke-width: 1.5;" x1="258.5" x2="405.5" y1="225.6953" y2="225.6953"/><text fill="#000000" font-family="sans-serif" font-size="11" lengthAdjust="spacingAndGlyphs" textLength="137" x="263.5" y="239.9058">add_assoc(String, Term)</text><!--MD5=[d532c0e1c1a56a633926945c99b7d3fc]
class Conj2--><rect fill="#FEFECE" filter="url(#f1e8wy8ai2snah)" height="53.9375" id="Conj2" style="stroke: #A80036; stroke-width: 1.5;" width="97" x="1467.5" y="605.9531"/><ellipse cx="1482.5" cy="624.9219" fill="#FF7700" rx="11" ry="11" style="stroke: #A80036; stroke-width: 1.0;"/><path d="M1486.2813,620.8906 C1486.2813,620.4531 1486.2656,620.3125 1486.1719,620.1563 C1486.0313,619.9219 1485.75,619.7656 1485.4531,619.7656 C1485.1094,619.7656 1484.9688,619.9063 1484.7969,620.3281 C1484.2031,619.9531 1483.4531,619.7656 1482.5781,619.7656 C1480.4688,619.7656 1478.8906,621.0625 1478.8906,622.7813 C1478.8906,623.75 1479.4219,624.6563 1480.2813,625.1406 C1480.8281,625.4531 1481.375,625.625 1482.4844,625.8125 C1483.6406,626.0156 1483.9063,626.0781 1484.2656,626.2656 C1484.6406,626.4688 1484.875,626.8125 1484.875,627.1719 C1484.875,627.9063 1483.8906,628.4531 1482.6406,628.4531 C1481.5156,628.4531 1480.4375,627.9688 1480.2656,627.3594 C1480.1406,626.8906 1480.1406,626.8906 1480.0156,626.7813 C1479.8594,626.625 1479.6406,626.5313 1479.4063,626.5313 C1479.125,626.5313 1478.875,626.6563 1478.7031,626.875 C1478.5938,627.0469 1478.5469,627.2344 1478.5469,627.6563 L1478.5469,628.7813 C1478.5469,629.5469 1478.8281,629.9063 1479.4219,629.9063 C1479.6875,629.9063 1479.8125,629.8438 1480.0938,629.5 C1480.9375,629.9375 1481.8281,630.1563 1482.75,630.1563 C1485.0781,630.1563 1486.6406,628.9688 1486.6406,627.2031 C1486.6406,626.3125 1486.3281,625.625 1485.6406,625.0781 C1485.1094,624.6563 1484.4688,624.4063 1482.9844,624.1406 C1481.7188,623.9063 1481.625,623.875 1481.2969,623.7031 C1480.9219,623.5156 1480.6563,623.125 1480.6563,622.7656 C1480.6563,622.0313 1481.5156,621.4688 1482.5781,621.4688 C1483.6406,621.4688 1484.4531,621.9375 1484.6094,622.6094 C1484.7188,623.1563 1484.7188,623.1563 1484.8438,623.2969 C1484.9844,623.4219 1485.2188,623.5313 1485.4531,623.5313 C1485.7188,623.5313 1485.9688,623.3906 1486.1406,623.1719 C1486.25,623 1486.2813,622.8594 1486.2813,622.3906 L1486.2813,620.8906 Z "/><text fill="#000000" font-family="sans-serif" font-size="12" font-style="italic" lengthAdjust="spacingAndGlyphs" textLength="69" x="1494.5" y="622.0918">«singleton»</text><text fill="#000000" font-family="sans-serif" font-size="12" lengthAdjust="spacingAndGlyphs" textLength="34" x="1512" y="636.0605">Conj2</text><line style="stroke: #A80036; stroke-width: 1.5;" x1="1468.5" x2="1563.5" y1="643.8906" y2="643.8906"/><line style="stroke: #A80036; stroke-width: 1.5;" x1="1468.5" x2="1563.5" y1="651.8906" y2="651.8906"/><!--MD5=[5d0a77e8f66918aa15fe0099dd6d4ba9]
class Environment--><rect fill="#FEFECE" filter="url(#f1e8wy8ai2snah)" height="73.6094" id="Environment" style="stroke: #A80036; stroke-width: 1.5;" width="112" x="276" y="329.9531"/><ellipse cx="293.7" cy="345.9531" fill="#ADD1B2" rx="11" ry="11" style="stroke: #A80036; stroke-width: 1.0;"/><path d="M296.0438,341.625 C295.1063,341.1875 294.5125,341.0469 293.6375,341.0469 C291.0125,341.0469 289.0125,343.125 289.0125,345.8438 L289.0125,346.9688 C289.0125,349.5469 291.1219,351.4375 294.0125,351.4375 C295.2313,351.4375 296.3875,351.1406 297.1375,350.5938 C297.7156,350.1875 298.0438,349.7344 298.0438,349.3438 C298.0438,348.8906 297.6531,348.5 297.1844,348.5 C296.9656,348.5 296.7625,348.5781 296.575,348.7656 C296.1219,349.25 296.1219,349.25 295.9344,349.3438 C295.5125,349.6094 294.825,349.7344 294.0594,349.7344 C292.0125,349.7344 290.7156,348.6406 290.7156,346.9375 L290.7156,345.8438 C290.7156,344.0625 291.9656,342.75 293.7,342.75 C294.2781,342.75 294.8875,342.9063 295.3563,343.1563 C295.8406,343.4375 296.0125,343.6563 296.1063,344.0625 C296.1688,344.4688 296.2,344.5938 296.3406,344.7188 C296.4813,344.8594 296.7156,344.9688 296.9344,344.9688 C297.2,344.9688 297.4656,344.8281 297.6375,344.6094 C297.7469,344.4531 297.7781,344.2656 297.7781,343.8438 L297.7781,342.4219 C297.7781,341.9844 297.7625,341.8594 297.6688,341.7031 C297.5125,341.4375 297.2313,341.2969 296.9344,341.2969 C296.6375,341.2969 296.4344,341.3906 296.2156,341.7031 L296.0438,341.625 Z "/><text fill="#000000" font-family="sans-serif" font-size="12" lengthAdjust="spacingAndGlyphs" textLength="74" x="308.3" y="350.1074">Environment</text><line style="stroke: #A80036; stroke-width: 1.5;" x1="277" x2="387" y1="361.9531" y2="361.9531"/><text fill="#000000" font-family="sans-serif" font-size="11" lengthAdjust="spacingAndGlyphs" textLength="66" x="282" y="376.1636">ivars : Hash</text><line style="stroke: #A80036; stroke-width: 1.5;" x1="277" x2="387" y1="382.7578" y2="382.7578"/><text fill="#000000" font-family="sans-serif" font-size="11" lengthAdjust="spacingAndGlyphs" textLength="100" x="282" y="396.9683">add_var(Variable)</text><!--MD5=[651984b30145f63e53adab6e7e9bc4b7]
class Outcome--><rect fill="#FEFECE" filter="url(#f1e8wy8ai2snah)" height="60.8047" id="Outcome" style="stroke: #A80036; stroke-width: 1.5;" width="116" x="125" y="336.4531"/><ellipse cx="153.05" cy="352.4531" fill="#ADD1B2" rx="11" ry="11" style="stroke: #A80036; stroke-width: 1.0;"/><path d="M155.3938,348.125 C154.4563,347.6875 153.8625,347.5469 152.9875,347.5469 C150.3625,347.5469 148.3625,349.625 148.3625,352.3438 L148.3625,353.4688 C148.3625,356.0469 150.4719,357.9375 153.3625,357.9375 C154.5813,357.9375 155.7375,357.6406 156.4875,357.0938 C157.0656,356.6875 157.3938,356.2344 157.3938,355.8438 C157.3938,355.3906 157.0031,355 156.5344,355 C156.3156,355 156.1125,355.0781 155.925,355.2656 C155.4719,355.75 155.4719,355.75 155.2844,355.8438 C154.8625,356.1094 154.175,356.2344 153.4094,356.2344 C151.3625,356.2344 150.0656,355.1406 150.0656,353.4375 L150.0656,352.3438 C150.0656,350.5625 151.3156,349.25 153.05,349.25 C153.6281,349.25 154.2375,349.4063 154.7063,349.6563 C155.1906,349.9375 155.3625,350.1563 155.4563,350.5625 C155.5188,350.9688 155.55,351.0938 155.6906,351.2188 C155.8313,351.3594 156.0656,351.4688 156.2844,351.4688 C156.55,351.4688 156.8156,351.3281 156.9875,351.1094 C157.0969,350.9531 157.1281,350.7656 157.1281,350.3438 L157.1281,348.9219 C157.1281,348.4844 157.1125,348.3594 157.0188,348.2031 C156.8625,347.9375 156.5813,347.7969 156.2844,347.7969 C155.9875,347.7969 155.7844,347.8906 155.5656,348.2031 L155.3938,348.125 Z "/><text fill="#000000" font-family="sans-serif" font-size="12" lengthAdjust="spacingAndGlyphs" textLength="55" x="169.95" y="356.6074">Outcome</text><line style="stroke: #A80036; stroke-width: 1.5;" x1="126" x2="240" y1="368.4531" y2="368.4531"/><text fill="#000000" font-family="sans-serif" font-size="11" lengthAdjust="spacingAndGlyphs" textLength="104" x="131" y="382.6636">resultant : Symbol</text><line style="stroke: #A80036; stroke-width: 1.5;" x1="126" x2="240" y1="389.2578" y2="389.2578"/><!--MD5=[87f82f60fd461676c9145eb5c5c61f17]
class Glue::FreshEnv--><rect fill="#FEFECE" filter="url(#f1e8wy8ai2snah)" height="60.8047" id="Glue::FreshEnv" style="stroke: #A80036; stroke-width: 1.5;" width="224" x="6" y="477.4531"/><ellipse cx="68.75" cy="493.4531" fill="#ADD1B2" rx="11" ry="11" style="stroke: #A80036; stroke-width: 1.0;"/><path d="M71.0938,489.125 C70.1563,488.6875 69.5625,488.5469 68.6875,488.5469 C66.0625,488.5469 64.0625,490.625 64.0625,493.3438 L64.0625,494.4688 C64.0625,497.0469 66.1719,498.9375 69.0625,498.9375 C70.2813,498.9375 71.4375,498.6406 72.1875,498.0938 C72.7656,497.6875 73.0938,497.2344 73.0938,496.8438 C73.0938,496.3906 72.7031,496 72.2344,496 C72.0156,496 71.8125,496.0781 71.625,496.2656 C71.1719,496.75 71.1719,496.75 70.9844,496.8438 C70.5625,497.1094 69.875,497.2344 69.1094,497.2344 C67.0625,497.2344 65.7656,496.1406 65.7656,494.4375 L65.7656,493.3438 C65.7656,491.5625 67.0156,490.25 68.75,490.25 C69.3281,490.25 69.9375,490.4063 70.4063,490.6563 C70.8906,490.9375 71.0625,491.1563 71.1563,491.5625 C71.2188,491.9688 71.25,492.0938 71.3906,492.2188 C71.5313,492.3594 71.7656,492.4688 71.9844,492.4688 C72.25,492.4688 72.5156,492.3281 72.6875,492.1094 C72.7969,491.9531 72.8281,491.7656 72.8281,491.3438 L72.8281,489.9219 C72.8281,489.4844 72.8125,489.3594 72.7188,489.2031 C72.5625,488.9375 72.2813,488.7969 71.9844,488.7969 C71.6875,488.7969 71.4844,488.8906 71.2656,489.2031 L71.0938,489.125 Z "/><text fill="#000000" font-family="sans-serif" font-size="12" lengthAdjust="spacingAndGlyphs" textLength="90" x="89.25" y="497.6074">Glue::FreshEnv</text><line style="stroke: #A80036; stroke-width: 1.5;" x1="7" x2="229" y1="509.4531" y2="509.4531"/><line style="stroke: #A80036; stroke-width: 1.5;" x1="7" x2="229" y1="517.4531" y2="517.4531"/><text fill="#000000" font-family="sans-serif" font-size="11" lengthAdjust="spacingAndGlyphs" textLength="212" x="12" y="531.6636">attain(Vocabulary) : Fiber&lt;Outcome&gt;</text><!--MD5=[0992d3fdc9d3d7c02b735131bb70871d]
class Goal--><rect fill="#FEFECE" filter="url(#f1e8wy8ai2snah)" height="60.8047" id="Goal" style="stroke: #A80036; stroke-width: 1.5;" width="224" x="1091" y="176.4531"/><ellipse cx="1185.25" cy="192.4531" fill="#ADD1B2" rx="11" ry="11" style="stroke: #A80036; stroke-width: 1.0;"/><path d="M1187.5938,188.125 C1186.6563,187.6875 1186.0625,187.5469 1185.1875,187.5469 C1182.5625,187.5469 1180.5625,189.625 1180.5625,192.3438 L1180.5625,193.4688 C1180.5625,196.0469 1182.6719,197.9375 1185.5625,197.9375 C1186.7813,197.9375 1187.9375,197.6406 1188.6875,197.0938 C1189.2656,196.6875 1189.5938,196.2344 1189.5938,195.8438 C1189.5938,195.3906 1189.2031,195 1188.7344,195 C1188.5156,195 1188.3125,195.0781 1188.125,195.2656 C1187.6719,195.75 1187.6719,195.75 1187.4844,195.8438 C1187.0625,196.1094 1186.375,196.2344 1185.6094,196.2344 C1183.5625,196.2344 1182.2656,195.1406 1182.2656,193.4375 L1182.2656,192.3438 C1182.2656,190.5625 1183.5156,189.25 1185.25,189.25 C1185.8281,189.25 1186.4375,189.4063 1186.9063,189.6563 C1187.3906,189.9375 1187.5625,190.1563 1187.6563,190.5625 C1187.7188,190.9688 1187.75,191.0938 1187.8906,191.2188 C1188.0313,191.3594 1188.2656,191.4688 1188.4844,191.4688 C1188.75,191.4688 1189.0156,191.3281 1189.1875,191.1094 C1189.2969,190.9531 1189.3281,190.7656 1189.3281,190.3438 L1189.3281,188.9219 C1189.3281,188.4844 1189.3125,188.3594 1189.2188,188.2031 C1189.0625,187.9375 1188.7813,187.7969 1188.4844,187.7969 C1188.1875,187.7969 1187.9844,187.8906 1187.7656,188.2031 L1187.5938,188.125 Z "/><text fill="#000000" font-family="sans-serif" font-size="12" lengthAdjust="spacingAndGlyphs" textLength="27" x="1205.75" y="196.6074">Goal</text><line style="stroke: #A80036; stroke-width: 1.5;" x1="1092" x2="1314" y1="208.4531" y2="208.4531"/><line style="stroke: #A80036; stroke-width: 1.5;" x1="1092" x2="1314" y1="216.4531" y2="216.4531"/><text fill="#000000" font-family="sans-serif" font-size="11" lengthAdjust="spacingAndGlyphs" textLength="212" x="1097" y="230.6636">attain(Vocabulary) : Fiber&lt;Outcome&gt;</text><!--MD5=[e3dfa27533b99e6d7ec16ccfe52dc068]
class AnyValue--><rect fill="#FEFECE" filter="url(#f1e8wy8ai2snah)" height="60.8047" id="AnyValue" style="stroke: #A80036; stroke-width: 1.5;" width="88" x="1371" y="28.9531"/><ellipse cx="1386.45" cy="44.9531" fill="#ADD1B2" rx="11" ry="11" style="stroke: #A80036; stroke-width: 1.0;"/><path d="M1388.7938,40.625 C1387.8563,40.1875 1387.2625,40.0469 1386.3875,40.0469 C1383.7625,40.0469 1381.7625,42.125 1381.7625,44.8438 L1381.7625,45.9688 C1381.7625,48.5469 1383.8719,50.4375 1386.7625,50.4375 C1387.9813,50.4375 1389.1375,50.1406 1389.8875,49.5938 C1390.4656,49.1875 1390.7938,48.7344 1390.7938,48.3438 C1390.7938,47.8906 1390.4031,47.5 1389.9344,47.5 C1389.7156,47.5 1389.5125,47.5781 1389.325,47.7656 C1388.8719,48.25 1388.8719,48.25 1388.6844,48.3438 C1388.2625,48.6094 1387.575,48.7344 1386.8094,48.7344 C1384.7625,48.7344 1383.4656,47.6406 1383.4656,45.9375 L1383.4656,44.8438 C1383.4656,43.0625 1384.7156,41.75 1386.45,41.75 C1387.0281,41.75 1387.6375,41.9063 1388.1063,42.1563 C1388.5906,42.4375 1388.7625,42.6563 1388.8563,43.0625 C1388.9188,43.4688 1388.95,43.5938 1389.0906,43.7188 C1389.2313,43.8594 1389.4656,43.9688 1389.6844,43.9688 C1389.95,43.9688 1390.2156,43.8281 1390.3875,43.6094 C1390.4969,43.4531 1390.5281,43.2656 1390.5281,42.8438 L1390.5281,41.4219 C1390.5281,40.9844 1390.5125,40.8594 1390.4188,40.7031 C1390.2625,40.4375 1389.9813,40.2969 1389.6844,40.2969 C1389.3875,40.2969 1389.1844,40.3906 1388.9656,40.7031 L1388.7938,40.625 Z "/><text fill="#000000" font-family="sans-serif" font-size="12" lengthAdjust="spacingAndGlyphs" textLength="55" x="1400.55" y="49.1074">AnyValue</text><line style="stroke: #A80036; stroke-width: 1.5;" x1="1372" x2="1458" y1="60.9531" y2="60.9531"/><text fill="#000000" font-family="sans-serif" font-size="11" lengthAdjust="spacingAndGlyphs" textLength="76" x="1377" y="75.1636">rank : Integer</text><line style="stroke: #A80036; stroke-width: 1.5;" x1="1372" x2="1458" y1="81.7578" y2="81.7578"/><!--MD5=[0d306c77e59f0c941f615a0514849b05]
class AssociationWalker--><rect fill="#FEFECE" filter="url(#f1e8wy8ai2snah)" height="60.8047" id="AssociationWalker" style="stroke: #A80036; stroke-width: 1.5;" width="143" x="260.5" y="28.9531"/><ellipse cx="275.5" cy="44.9531" fill="#ADD1B2" rx="11" ry="11" style="stroke: #A80036; stroke-width: 1.0;"/><path d="M277.8438,40.625 C276.9063,40.1875 276.3125,40.0469 275.4375,40.0469 C272.8125,40.0469 270.8125,42.125 270.8125,44.8438 L270.8125,45.9688 C270.8125,48.5469 272.9219,50.4375 275.8125,50.4375 C277.0313,50.4375 278.1875,50.1406 278.9375,49.5938 C279.5156,49.1875 279.8438,48.7344 279.8438,48.3438 C279.8438,47.8906 279.4531,47.5 278.9844,47.5 C278.7656,47.5 278.5625,47.5781 278.375,47.7656 C277.9219,48.25 277.9219,48.25 277.7344,48.3438 C277.3125,48.6094 276.625,48.7344 275.8594,48.7344 C273.8125,48.7344 272.5156,47.6406 272.5156,45.9375 L272.5156,44.8438 C272.5156,43.0625 273.7656,41.75 275.5,41.75 C276.0781,41.75 276.6875,41.9063 277.1563,42.1563 C277.6406,42.4375 277.8125,42.6563 277.9063,43.0625 C277.9688,43.4688 278,43.5938 278.1406,43.7188 C278.2813,43.8594 278.5156,43.9688 278.7344,43.9688 C279,43.9688 279.2656,43.8281 279.4375,43.6094 C279.5469,43.4531 279.5781,43.2656 279.5781,42.8438 L279.5781,41.4219 C279.5781,40.9844 279.5625,40.8594 279.4688,40.7031 C279.3125,40.4375 279.0313,40.2969 278.7344,40.2969 C278.4375,40.2969 278.2344,40.3906 278.0156,40.7031 L277.8438,40.625 Z "/><text fill="#000000" font-family="sans-serif" font-size="12" lengthAdjust="spacingAndGlyphs" textLength="111" x="289.5" y="49.1074">AssociationWalker</text><line style="stroke: #A80036; stroke-width: 1.5;" x1="261.5" x2="402.5" y1="60.9531" y2="60.9531"/><text fill="#000000" font-family="sans-serif" font-size="11" lengthAdjust="spacingAndGlyphs" textLength="45" x="266.5" y="75.1636">visitees</text><line style="stroke: #A80036; stroke-width: 1.5;" x1="261.5" x2="402.5" y1="81.7578" y2="81.7578"/><!--MD5=[ade207c4727b5b2deab7d1a601d5255e]
class CompositeGoal--><rect fill="#FEFECE" filter="url(#f1e8wy8ai2snah)" height="48" id="CompositeGoal" style="stroke: #A80036; stroke-width: 1.5;" width="124" x="1494" y="35.4531"/><ellipse cx="1509" cy="51.4531" fill="#ADD1B2" rx="11" ry="11" style="stroke: #A80036; stroke-width: 1.0;"/><path d="M1511.3438,47.125 C1510.4063,46.6875 1509.8125,46.5469 1508.9375,46.5469 C1506.3125,46.5469 1504.3125,48.625 1504.3125,51.3438 L1504.3125,52.4688 C1504.3125,55.0469 1506.4219,56.9375 1509.3125,56.9375 C1510.5313,56.9375 1511.6875,56.6406 1512.4375,56.0938 C1513.0156,55.6875 1513.3438,55.2344 1513.3438,54.8438 C1513.3438,54.3906 1512.9531,54 1512.4844,54 C1512.2656,54 1512.0625,54.0781 1511.875,54.2656 C1511.4219,54.75 1511.4219,54.75 1511.2344,54.8438 C1510.8125,55.1094 1510.125,55.2344 1509.3594,55.2344 C1507.3125,55.2344 1506.0156,54.1406 1506.0156,52.4375 L1506.0156,51.3438 C1506.0156,49.5625 1507.2656,48.25 1509,48.25 C1509.5781,48.25 1510.1875,48.4063 1510.6563,48.6563 C1511.1406,48.9375 1511.3125,49.1563 1511.4063,49.5625 C1511.4688,49.9688 1511.5,50.0938 1511.6406,50.2188 C1511.7813,50.3594 1512.0156,50.4688 1512.2344,50.4688 C1512.5,50.4688 1512.7656,50.3281 1512.9375,50.1094 C1513.0469,49.9531 1513.0781,49.7656 1513.0781,49.3438 L1513.0781,47.9219 C1513.0781,47.4844 1513.0625,47.3594 1512.9688,47.2031 C1512.8125,46.9375 1512.5313,46.7969 1512.2344,46.7969 C1511.9375,46.7969 1511.7344,46.8906 1511.5156,47.2031 L1511.3438,47.125 Z "/><text fill="#000000" font-family="sans-serif" font-size="12" lengthAdjust="spacingAndGlyphs" textLength="92" x="1523" y="55.6074">CompositeGoal</text><line style="stroke: #A80036; stroke-width: 1.5;" x1="1495" x2="1617" y1="67.4531" y2="67.4531"/><line style="stroke: #A80036; stroke-width: 1.5;" x1="1495" x2="1617" y1="75.4531" y2="75.4531"/><!--MD5=[e2fd993529b9c3b41cc3045dcb105886]
class DuckFiber--><rect fill="#FEFECE" filter="url(#f1e8wy8ai2snah)" height="73.6094" id="DuckFiber" style="stroke: #A80036; stroke-width: 1.5;" width="129" x="1350.5" y="169.9531"/><ellipse cx="1381.7" cy="185.9531" fill="#ADD1B2" rx="11" ry="11" style="stroke: #A80036; stroke-width: 1.0;"/><path d="M1384.0438,181.625 C1383.1063,181.1875 1382.5125,181.0469 1381.6375,181.0469 C1379.0125,181.0469 1377.0125,183.125 1377.0125,185.8438 L1377.0125,186.9688 C1377.0125,189.5469 1379.1219,191.4375 1382.0125,191.4375 C1383.2313,191.4375 1384.3875,191.1406 1385.1375,190.5938 C1385.7156,190.1875 1386.0438,189.7344 1386.0438,189.3438 C1386.0438,188.8906 1385.6531,188.5 1385.1844,188.5 C1384.9656,188.5 1384.7625,188.5781 1384.575,188.7656 C1384.1219,189.25 1384.1219,189.25 1383.9344,189.3438 C1383.5125,189.6094 1382.825,189.7344 1382.0594,189.7344 C1380.0125,189.7344 1378.7156,188.6406 1378.7156,186.9375 L1378.7156,185.8438 C1378.7156,184.0625 1379.9656,182.75 1381.7,182.75 C1382.2781,182.75 1382.8875,182.9063 1383.3563,183.1563 C1383.8406,183.4375 1384.0125,183.6563 1384.1063,184.0625 C1384.1688,184.4688 1384.2,184.5938 1384.3406,184.7188 C1384.4813,184.8594 1384.7156,184.9688 1384.9344,184.9688 C1385.2,184.9688 1385.4656,184.8281 1385.6375,184.6094 C1385.7469,184.4531 1385.7781,184.2656 1385.7781,183.8438 L1385.7781,182.4219 C1385.7781,181.9844 1385.7625,181.8594 1385.6688,181.7031 C1385.5125,181.4375 1385.2313,181.2969 1384.9344,181.2969 C1384.6375,181.2969 1384.4344,181.3906 1384.2156,181.7031 L1384.0438,181.625 Z "/><text fill="#000000" font-family="sans-serif" font-size="12" lengthAdjust="spacingAndGlyphs" textLength="61" x="1399.3" y="190.1074">DuckFiber</text><line style="stroke: #A80036; stroke-width: 1.5;" x1="1351.5" x2="1478.5" y1="201.9531" y2="201.9531"/><text fill="#000000" font-family="sans-serif" font-size="11" lengthAdjust="spacingAndGlyphs" textLength="113" x="1356.5" y="216.1636">outcome : Outcome</text><line style="stroke: #A80036; stroke-width: 1.5;" x1="1351.5" x2="1478.5" y1="222.7578" y2="222.7578"/><text fill="#000000" font-family="sans-serif" font-size="11" lengthAdjust="spacingAndGlyphs" textLength="117" x="1356.5" y="236.9683">resume() : OutCome</text><!--MD5=[a8ba5e2a6b9f24fee84407bac00b4a54]
class Freshness--><rect fill="#FEFECE" filter="url(#f1e8wy8ai2snah)" height="60.8047" id="Freshness" style="stroke: #A80036; stroke-width: 1.5;" width="108" x="59" y="28.9531"/><ellipse cx="79.85" cy="44.9531" fill="#ADD1B2" rx="11" ry="11" style="stroke: #A80036; stroke-width: 1.0;"/><path d="M82.1938,40.625 C81.2563,40.1875 80.6625,40.0469 79.7875,40.0469 C77.1625,40.0469 75.1625,42.125 75.1625,44.8438 L75.1625,45.9688 C75.1625,48.5469 77.2719,50.4375 80.1625,50.4375 C81.3813,50.4375 82.5375,50.1406 83.2875,49.5938 C83.8656,49.1875 84.1938,48.7344 84.1938,48.3438 C84.1938,47.8906 83.8031,47.5 83.3344,47.5 C83.1156,47.5 82.9125,47.5781 82.725,47.7656 C82.2719,48.25 82.2719,48.25 82.0844,48.3438 C81.6625,48.6094 80.975,48.7344 80.2094,48.7344 C78.1625,48.7344 76.8656,47.6406 76.8656,45.9375 L76.8656,44.8438 C76.8656,43.0625 78.1156,41.75 79.85,41.75 C80.4281,41.75 81.0375,41.9063 81.5063,42.1563 C81.9906,42.4375 82.1625,42.6563 82.2563,43.0625 C82.3188,43.4688 82.35,43.5938 82.4906,43.7188 C82.6313,43.8594 82.8656,43.9688 83.0844,43.9688 C83.35,43.9688 83.6156,43.8281 83.7875,43.6094 C83.8969,43.4531 83.9281,43.2656 83.9281,42.8438 L83.9281,41.4219 C83.9281,40.9844 83.9125,40.8594 83.8188,40.7031 C83.6625,40.4375 83.3813,40.2969 83.0844,40.2969 C82.7875,40.2969 82.5844,40.3906 82.3656,40.7031 L82.1938,40.625 Z "/><text fill="#000000" font-family="sans-serif" font-size="12" lengthAdjust="spacingAndGlyphs" textLength="63" x="95.15" y="49.1074">Freshness</text><line style="stroke: #A80036; stroke-width: 1.5;" x1="60" x2="166" y1="60.9531" y2="60.9531"/><text fill="#000000" font-family="sans-serif" font-size="11" lengthAdjust="spacingAndGlyphs" textLength="96" x="65" y="75.1636">degree : Symbol</text><line style="stroke: #A80036; stroke-width: 1.5;" x1="60" x2="166" y1="81.7578" y2="81.7578"/><!--MD5=[dd2ad3db6ae5bc2e7470118455985156]
class Glue::RunStarExpression--><rect fill="#FEFECE" filter="url(#f1e8wy8ai2snah)" height="60.8047" id="Glue::RunStarExpression" style="stroke: #A80036; stroke-width: 1.5;" width="179" x="265.5" y="477.4531"/><ellipse cx="280.5" cy="493.4531" fill="#ADD1B2" rx="11" ry="11" style="stroke: #A80036; stroke-width: 1.0;"/><path d="M282.8438,489.125 C281.9063,488.6875 281.3125,488.5469 280.4375,488.5469 C277.8125,488.5469 275.8125,490.625 275.8125,493.3438 L275.8125,494.4688 C275.8125,497.0469 277.9219,498.9375 280.8125,498.9375 C282.0313,498.9375 283.1875,498.6406 283.9375,498.0938 C284.5156,497.6875 284.8438,497.2344 284.8438,496.8438 C284.8438,496.3906 284.4531,496 283.9844,496 C283.7656,496 283.5625,496.0781 283.375,496.2656 C282.9219,496.75 282.9219,496.75 282.7344,496.8438 C282.3125,497.1094 281.625,497.2344 280.8594,497.2344 C278.8125,497.2344 277.5156,496.1406 277.5156,494.4375 L277.5156,493.3438 C277.5156,491.5625 278.7656,490.25 280.5,490.25 C281.0781,490.25 281.6875,490.4063 282.1563,490.6563 C282.6406,490.9375 282.8125,491.1563 282.9063,491.5625 C282.9688,491.9688 283,492.0938 283.1406,492.2188 C283.2813,492.3594 283.5156,492.4688 283.7344,492.4688 C284,492.4688 284.2656,492.3281 284.4375,492.1094 C284.5469,491.9531 284.5781,491.7656 284.5781,491.3438 L284.5781,489.9219 C284.5781,489.4844 284.5625,489.3594 284.4688,489.2031 C284.3125,488.9375 284.0313,488.7969 283.7344,488.7969 C283.4375,488.7969 283.2344,488.8906 283.0156,489.2031 L282.8438,489.125 Z "/><text fill="#000000" font-family="sans-serif" font-size="12" lengthAdjust="spacingAndGlyphs" textLength="147" x="294.5" y="497.6074">Glue::RunStarExpression</text><line style="stroke: #A80036; stroke-width: 1.5;" x1="266.5" x2="443.5" y1="509.4531" y2="509.4531"/><line style="stroke: #A80036; stroke-width: 1.5;" x1="266.5" x2="443.5" y1="517.4531" y2="517.4531"/><text fill="#000000" font-family="sans-serif" font-size="11" lengthAdjust="spacingAndGlyphs" textLength="87" x="271.5" y="531.6636">run() : ConsCell</text><!--MD5=[826a19f7adc4b9edf1c71abe4843a767]
reverse link GoalArg to Term--><path d="M1144.74,86.7781 C1093.29,110.0251 1017.81,144.1351 960.759,169.9131 " fill="none" id="GoalArg&lt;-Term" style="stroke: #A80036; stroke-width: 1.0;"/><polygon fill="none" points="1142.09,80.2971,1163.19,78.4401,1147.85,93.0551,1142.09,80.2971" style="stroke: #A80036; stroke-width: 1.0;"/><!--MD5=[92e0258f4e52996d9373c0e33ac58346]
reverse link GoalArg to Goal--><path d="M1191.24,103.6321 C1189.59,127.0121 1190,155.3041 1192.48,176.2071 " fill="none" id="GoalArg&lt;-Goal" style="stroke: #A80036; stroke-width: 1.0;"/><polygon fill="none" points="1184.3,102.6501,1193.39,83.5081,1198.22,104.1391,1184.3,102.6501" style="stroke: #A80036; stroke-width: 1.0;"/><!--MD5=[a90fa51e29f0bab382b620627c634d4a]
link Goal to GoalArg--><path d="M1214.14,176.2071 C1217.58,148.7651 1217.26,108.5891 1213.18,83.5081 " fill="none" id="Goal-GoalArg" style="stroke: #A80036; stroke-width: 1.0;"/><ellipse cx="1154.7293" cy="99.2439" fill="#000000" rx="2.5" ry="2.5" style="stroke: #000000; stroke-width: 0.0;"/><text fill="#000000" font-family="sans-serif" font-size="13" lengthAdjust="spacingAndGlyphs" textLength="46" x="1162.2293" y="103.678">actuals</text><!--MD5=[2889d1d5329a2eb83895881dc2d76812]
reverse link Term to AtomicTerm--><path d="M929.791,259.0051 C954.178,284.5241 982.834,314.5081 1003.588,336.2241 " fill="none" id="Term&lt;-AtomicTerm" style="stroke: #A80036; stroke-width: 1.0;"/><polygon fill="none" points="924.4,263.4971,915.642,244.2011,934.521,253.8241,924.4,263.4971" style="stroke: #A80036; stroke-width: 1.0;"/><!--MD5=[d79c32de261f8af34570b36b088ee1bc]
reverse link Term to CompositeTerm--><path d="M868.729,264.2761 C867.561,291.2311 868.53,322.0331 871.635,342.6051 " fill="none" id="Term&lt;-CompositeTerm" style="stroke: #A80036; stroke-width: 1.0;"/><polygon fill="none" points="861.753,263.6861,870.081,244.2011,875.721,264.6271,861.753,263.6861" style="stroke: #A80036; stroke-width: 1.0;"/><!--MD5=[1bd549c9af1d7a421e7f4512b5543062]
link Term to CompositeTerm--><path d="M892.562,244.2011 C895.135,269.7231 895.146,303.7631 892.596,329.3601 " fill="none" id="Term-&gt;CompositeTerm" style="stroke: #A80036; stroke-width: 1.0;"/><polygon fill="#FFFFFF" points="890.916,342.6051,895.6391,337.1561,892.4258,330.7005,887.7027,336.1495,890.916,342.6051" style="stroke: #A80036; stroke-width: 1.0;"/><ellipse cx="831.7598" cy="259.2887" fill="#000000" rx="2.5" ry="2.5" style="stroke: #000000; stroke-width: 0.0;"/><text fill="#000000" font-family="sans-serif" font-size="13" lengthAdjust="spacingAndGlyphs" textLength="50" x="839.2598" y="263.7228">children</text><!--MD5=[4659537fceaa90790865c3ce9b9d683e]
reverse link Term to VariableRef--><path d="M833.045,259.1491 C806.728,287.2431 775.374,320.7161 754.87,342.6051 " fill="none" id="Term&lt;-VariableRef" style="stroke: #A80036; stroke-width: 1.0;"/><polygon fill="none" points="828.264,254.0121,847.046,244.2011,838.482,263.5831,828.264,254.0121" style="stroke: #A80036; stroke-width: 1.0;"/><!--MD5=[b3a45eb562896e1c690f25a232e7eb22]
reverse link Term to Association--><path d="M828.173,246.9631 C802.718,263.9371 771.03,282.5221 740,293.9531 C660.603,323.2021 632.154,296.8481 552,323.9531 C542.384,327.2051 532.542,331.5711 523.229,336.2621 " fill="none" id="Term&lt;-Association" style="stroke: #A80036; stroke-width: 1.0;"/><polygon fill="#A80036" points="832.527,244.0351,822.8266,245.7384,828.378,246.8254,827.291,252.3769,832.527,244.0351" style="stroke: #A80036; stroke-width: 1.0;"/><text fill="#000000" font-family="sans-serif" font-size="13" lengthAdjust="spacingAndGlyphs" textLength="35" x="786.6002" y="263.5293">value</text><!--MD5=[cc5b15aadff0384191eb493d8c6ed843]
reverse link AtomicTerm to KInteger--><path d="M1005.95,415.5971 C993.389,438.5701 978.889,465.0901 968.759,483.6181 " fill="none" id="AtomicTerm&lt;-KInteger" style="stroke: #A80036; stroke-width: 1.0;"/><polygon fill="none" points="999.959,411.9621,1015.7,397.7721,1012.24,418.6781,999.959,411.9621" style="stroke: #A80036; stroke-width: 1.0;"/><!--MD5=[b8750604a170845709796474ff3ec1ff]
reverse link AtomicTerm to KSymbol--><path d="M1047.16,416.9731 C1054.17,439.6221 1062.16,465.4581 1067.78,483.6181 " fill="none" id="AtomicTerm&lt;-KSymbol" style="stroke: #A80036; stroke-width: 1.0;"/><polygon fill="none" points="1040.45,418.9471,1041.22,397.7721,1053.82,414.8101,1040.45,418.9471" style="stroke: #A80036; stroke-width: 1.0;"/><!--MD5=[831c2759321870bfde109678cbecadbb]
reverse link CompositeTerm to ConsCell--><path d="M867.529,410.5081 C861.425,429.7911 854.285,452.3481 848.445,470.7971 " fill="none" id="CompositeTerm&lt;-ConsCell" style="stroke: #A80036; stroke-width: 1.0;"/><polygon fill="none" points="860.926,408.1731,873.635,391.2181,874.273,412.3991,860.926,408.1731" style="stroke: #A80036; stroke-width: 1.0;"/><!--MD5=[18a70ffd6d618da076a3651578d616bd]
reverse link Designation to Variable--><path d="M619.503,266.6741 C601.7,330.0461 574.057,428.4391 560.326,477.3151 " fill="none" id="Designation&lt;-Variable" style="stroke: #A80036; stroke-width: 1.0; stroke-dasharray: 7.0,7.0;"/><polygon fill="none" points="612.87,264.4031,625.018,247.0421,626.348,268.1901,612.87,264.4031" style="stroke: #A80036; stroke-width: 1.0;"/><text fill="#000000" font-family="sans-serif" font-size="13" lengthAdjust="spacingAndGlyphs" textLength="51" x="605" y="371.52">«mixin»</text><!--MD5=[7f2cf121c181ec1b116c8ccd37c4696c]
reverse link Designation to VariableRef--><path d="M670.662,264.4121 C687.168,291.2981 706.007,321.9861 718.616,342.5231 " fill="none" id="Designation&lt;-VariableRef" style="stroke: #A80036; stroke-width: 1.0; stroke-dasharray: 7.0,7.0;"/><polygon fill="none" points="664.476,267.7161,659.978,247.0091,676.407,260.3911,664.476,267.7161" style="stroke: #A80036; stroke-width: 1.0;"/><text fill="#000000" font-family="sans-serif" font-size="13" lengthAdjust="spacingAndGlyphs" textLength="51" x="689" y="290.02">«mixin»</text><!--MD5=[fb498302028e8b8264f96fc7ca04cbc0]
reverse link Relation to GoalRelation--><path d="M1386.32,421.1181 C1419.07,442.7951 1455.22,466.7201 1481.01,483.7921 " fill="none" id="Relation&lt;-GoalRelation" style="stroke: #A80036; stroke-width: 1.0;"/><polygon fill="none" points="1382.39,426.9111,1369.58,410.0351,1390.12,415.2371,1382.39,426.9111" style="stroke: #A80036; stroke-width: 1.0;"/><!--MD5=[27507e58ee5e91d71d233bef69412f4e]
reverse link Relation to NullaryRelation--><path d="M1266.94,426.9681 C1255.42,444.3661 1243.31,462.6621 1233.59,477.3581 " fill="none" id="Relation&lt;-NullaryRelation" style="stroke: #A80036; stroke-width: 1.0;"/><polygon fill="none" points="1261.27,422.8491,1278.15,410.0351,1272.95,430.5761,1261.27,422.8491" style="stroke: #A80036; stroke-width: 1.0;"/><!--MD5=[b6514cfe319be025ceea78dda0fd5704]
reverse link NullaryRelation to Fail--><path d="M1218.87,558.8551 C1220.44,574.9428 1222.11,592.1291 1223.45,605.7927 " fill="none" id="NullaryRelation&lt;-Fail" style="stroke: #A80036; stroke-width: 1.0;"/><polygon fill="none" points="1211.88,559.3131,1216.9,538.7281,1225.81,557.9541,1211.88,559.3131" style="stroke: #A80036; stroke-width: 1.0;"/><!--MD5=[887005c7a797e8b3ba9ea2035a81b18c]
reverse link NullaryRelation to Succeed--><path d="M1170.82,553.2151 C1153.62,570.8386 1134.43,590.5171 1119.52,605.7927 " fill="none" id="NullaryRelation&lt;-Succeed" style="stroke: #A80036; stroke-width: 1.0;"/><polygon fill="none" points="1165.97,548.1551,1184.95,538.7281,1176,557.9321,1165.97,548.1551" style="stroke: #A80036; stroke-width: 1.0;"/><!--MD5=[f7764002450bfebcb08b621ea20d0e9c]
reverse link Relation to BinaryRelation--><path d="M1333.36,428.3291 C1341.06,445.3171 1349.1,463.0451 1355.59,477.3581 " fill="none" id="Relation&lt;-BinaryRelation" style="stroke: #A80036; stroke-width: 1.0;"/><polygon fill="none" points="1326.95,431.1411,1325.07,410.0351,1339.71,425.3611,1326.95,431.1411" style="stroke: #A80036; stroke-width: 1.0;"/><!--MD5=[fa21b6a5620788cd26beb4c4a59adf23]
reverse link BinaryRelation to Equals--><path d="M1369,558.8551 C1369,574.9428 1369,592.1291 1369,605.7927 " fill="none" id="BinaryRelation&lt;-Equals" style="stroke: #A80036; stroke-width: 1.0;"/><polygon fill="none" points="1362,558.7281,1369,538.7281,1376,558.7281,1362,558.7281" style="stroke: #A80036; stroke-width: 1.0;"/><!--MD5=[103117b6c5ec4613cc9f65e63599f933]
reverse link GoalRelation to Conj2--><path d="M1516,552.3481 C1516,570.2477 1516,590.394 1516,605.9408 " fill="none" id="GoalRelation&lt;-Conj2" style="stroke: #A80036; stroke-width: 1.0;"/><polygon fill="none" points="1509,552.0881,1516,532.0881,1523,552.0881,1509,552.0881" style="stroke: #A80036; stroke-width: 1.0;"/><!--MD5=[33fa57f93f93f3984c13143aac43ff09]
link Vocabulary to Vocabulary--><path d="M406.722,192.4571 C426.511,193.2851 441.5,198.1171 441.5,206.9531 C441.5,214.9611 429.19,219.6801 412.153,221.1111 " fill="none" id="Vocabulary-&gt;Vocabulary" style="stroke: #A80036; stroke-width: 1.0;"/><polygon fill="#A80036" points="406.722,221.4491,415.9537,224.8808,411.7123,221.1377,415.4554,216.8963,406.722,221.4491" style="stroke: #A80036; stroke-width: 1.0;"/><text fill="#000000" font-family="sans-serif" font-size="13" lengthAdjust="spacingAndGlyphs" textLength="66" x="414.6328" y="219.0513">0,1 parent</text><!--MD5=[63214d50ccc2993d9eed0392b128bea7]
reverse link Vocabulary to Environment--><path d="M332,267.1451 C332,288.1901 332,311.2411 332,329.7801 " fill="none" id="Vocabulary&lt;-Environment" style="stroke: #A80036; stroke-width: 1.0; stroke-dasharray: 7.0,7.0;"/><polygon fill="none" points="325,267.0091,332,247.0091,339,267.0091,325,267.0091" style="stroke: #A80036; stroke-width: 1.0;"/><text fill="#000000" font-family="sans-serif" font-size="13" lengthAdjust="spacingAndGlyphs" textLength="51" x="333" y="290.02">«mixin»</text><!--MD5=[5ec97a51db700dad5d527e80b12f1012]
reverse link Vocabulary to Association--><path d="M375.81,256.6991 C399.192,282.7161 427.208,313.8891 447.32,336.2661 " fill="none" id="Vocabulary&lt;-Association" style="stroke: #A80036; stroke-width: 1.0;"/><polygon fill="#FFFFFF" points="367.101,247.0091,368.1368,254.1454,375.1226,255.934,374.0868,248.7977,367.101,247.0091" style="stroke: #A80036; stroke-width: 1.0;"/><ellipse cx="456.8048" cy="321.0567" fill="#000000" rx="2.5" ry="2.5" style="stroke: #000000; stroke-width: 0.0;"/><text fill="#000000" font-family="sans-serif" font-size="13" lengthAdjust="spacingAndGlyphs" textLength="79" x="464.3048" y="325.4908">associations</text><!--MD5=[e828372997c108f2c3729937ef02db2c]
reverse link AssociationWalker to Vocabulary--><path d="M332,95.3031 C332,116.8361 332,144.5171 332,166.8051 " fill="none" id="AssociationWalker&lt;-Vocabulary" style="stroke: #A80036; stroke-width: 1.0; stroke-dasharray: 7.0,7.0;"/><polygon fill="#A80036" points="332,90.2481,328,99.2481,332,95.2481,336,99.2481,332,90.2481" style="stroke: #A80036; stroke-width: 1.0;"/><text fill="#000000" font-family="sans-serif" font-size="13" lengthAdjust="spacingAndGlyphs" textLength="57" x="333" y="133.02">«create»</text><!--MD5=[e2e6c6bf04fd43cc1133d22f4c6325a0]
reverse link Environment to Variable--><path d="M399.437,410.5611 C433.72,432.2221 474.525,458.0031 505.305,477.4501 " fill="none" id="Environment&lt;-Variable" style="stroke: #A80036; stroke-width: 1.0;"/><polygon fill="#FFFFFF" points="388.085,403.3881,391.021,409.9745,398.2299,409.7976,395.2939,403.2112,388.085,403.3881" style="stroke: #A80036; stroke-width: 1.0;"/><ellipse cx="459.5158" cy="464.2889" fill="#000000" rx="2.5" ry="2.5" style="stroke: #000000; stroke-width: 0.0;"/><text fill="#000000" font-family="sans-serif" font-size="13" lengthAdjust="spacingAndGlyphs" textLength="28" x="467.0158" y="468.7229">vars</text><!--MD5=[a58eb651b81396447c85d4bfc2251fca]
reverse link Vocabulary to Outcome--><path d="M281.439,261.5681 C257.901,286.5271 230.797,315.2691 210.996,336.2661 " fill="none" id="Vocabulary&lt;-Outcome" style="stroke: #A80036; stroke-width: 1.0; stroke-dasharray: 7.0,7.0;"/><polygon fill="none" points="276.354,256.7571,295.169,247.0091,286.54,266.3621,276.354,256.7571" style="stroke: #A80036; stroke-width: 1.0;"/><text fill="#000000" font-family="sans-serif" font-size="13" lengthAdjust="spacingAndGlyphs" textLength="51" x="268" y="290.02">«mixin»</text><!--MD5=[58d9b0931a8075feeb536e8146a7c889]
reverse link Freshness to AssociationWalker--><path d="M172.144,59.4531 C199.309,59.4531 231.761,59.4531 260.305,59.4531 " fill="none" id="Freshness&lt;-AssociationWalker" style="stroke: #A80036; stroke-width: 1.0; stroke-dasharray: 7.0,7.0;"/><polygon fill="#A80036" points="167.135,59.4531,176.135,63.4531,172.135,59.4531,176.135,55.4531,167.135,59.4531" style="stroke: #A80036; stroke-width: 1.0;"/><text fill="#000000" font-family="sans-serif" font-size="13" lengthAdjust="spacingAndGlyphs" textLength="57" x="185.25" y="52.52">«create»</text><!--MD5=[84f632f3dafc24cd1c5892dee938bb66]
link Goal to Relation--><path d="M1222.37,237.6721 C1238.22,261.9861 1260.84,296.6711 1278.55,323.8451 " fill="none" id="Goal-Relation" style="stroke: #A80036; stroke-width: 1.0;"/><text fill="#000000" font-family="sans-serif" font-size="13" lengthAdjust="spacingAndGlyphs" textLength="8" x="1265.5377" y="312.824">1</text><!--MD5=[cc4f549ea03aa9b457592c6bdca3d9d8]
reverse link Environment to Glue::FreshEnv--><path d="M259.28,415.1871 C227.61,435.7581 191.46,459.2391 163.655,477.2991 " fill="none" id="Environment&lt;-Glue::FreshEnv" style="stroke: #A80036; stroke-width: 1.0;"/><polygon fill="none" points="255.747,409.1351,276.333,404.1111,263.373,420.8751,255.747,409.1351" style="stroke: #A80036; stroke-width: 1.0;"/><!--MD5=[9a20c11237e8f7ffcccef175a8ffe4b3]
link Environment to Glue::RunStarExpression--><path d="M337.983,404.1111 C341.018,422.4531 344.725,444.8551 347.903,464.0641 " fill="none" id="Environment-&gt;Glue::RunStarExpression" style="stroke: #A80036; stroke-width: 1.0;"/><polygon fill="#FFFFFF" points="350.056,477.0711,353.0225,470.4985,348.0965,465.2322,345.1299,471.8048,350.056,477.0711" style="stroke: #A80036; stroke-width: 1.0;"/><text fill="#000000" font-family="sans-serif" font-size="13" lengthAdjust="spacingAndGlyphs" textLength="36" x="299.9927" y="423.6178">1 env</text><!--MD5=[2b1be27ff040a54df173d64dc4b7bf9b]
link AnyValue to CompositeGoal--><!--MD5=[fc3b780b6dfa2bbc88b094a97fa8341c]
link AnyValue to DuckFiber--><!--MD5=[ea9103306a046bead606727e3a96c306]
@startuml
title Implementation model of MiniKraken
  ' This file uses the syntax of PlantUML diagramming tool
  '   Plantuml documentation: https://plantuml.com/
  ' The diagrams can be rendered online with the PlantText web application
  '   PlantText website: https://www.planttext.com/

  ' **** CLASSES ****
  abstract class GoalArg

  abstract class Term {
    fresh?(Vocabulary) : Boolean
    ground?(Vocabulary) : Boolean
  }
  abstract class AtomicTerm {
    value
  }
  class KInteger
  class KSymbol
  abstract class CompositeTerm
  class ConsCell {
    car : Term
    cdr : Term
  }
  class Designation <<(M,orchid) module>> {
    name : String
    add_assoc(String, Term)
  }
  class Variable {
    i_name : String
  }
  class VariableRef
  class Association {
    i_name : String
  }
  abstract class Relation {
    name : String
    alt_name : String
    solver_for(Array<Term>, Vocabulary) : Fiber<Outcome>
  }
  abstract class GoalRelation
  abstract class NullaryRelation {
    arity() : Integer
  }
  class Fail <<(S,#FF7700) singleton>>
  class Succeed <<(S,#FF7700) singleton>>
  abstract class BinaryRelation {
    arity() : Integer
  }
  class Equals <<(S,#FF7700) singleton>>
  class Vocabulary <<(M,orchid) module>> {
    rankings : Hash
    add_assoc(String, Term)
  }
  class Conj2 <<(S,#FF7700) singleton>>
  class Environment {
    ivars : Hash
    add_var(Variable)
  }
  class Outcome {
    resultant : Symbol
  }
  class Glue::FreshEnv {
    attain(Vocabulary) : Fiber<Outcome>
  }
  class Goal {
    attain(Vocabulary) : Fiber<Outcome>
  }
  class AnyValue {
    rank : Integer
  }
  class AssociationWalker {
    visitees
  }
  class CompositeGoal
  class DuckFiber {
    outcome : Outcome
    resume() : OutCome
  }
  class Freshness {
    degree : Symbol
  }
  class Glue::RunStarExpression {
    run() : ConsCell
  }

  ' **** RELATIONS ****
  GoalArg <|- - Term
  GoalArg <|- - Goal
  Term <|- - AtomicTerm
  Term <|- - CompositeTerm
  Term <|- - VariableRef
  Term "value" <- - Association
  AtomicTerm <|- - KInteger
  AtomicTerm <|- - KSymbol
  CompositeTerm <|- - ConsCell
  Term "* children" - -o CompositeTerm
  Designation <|.. Variable : <<mixin>>
  Designation <|.. VariableRef : <<mixin>>
  Relation <|- - GoalRelation  
  Relation <|- - NullaryRelation
  NullaryRelation <|- - Fail
  NullaryRelation <|- - Succeed
  Relation <|- - BinaryRelation
  BinaryRelation <|- - Equals
  GoalRelation <|- - Conj2
  Vocabulary - -> "0,1 parent" Vocabulary
  Vocabulary <|..  Environment : <<mixin>>
  Vocabulary o- - "* associations" Association
  AssociationWalker <.. Vocabulary : <<create>>
  Environment o- - "* vars" Variable
  Vocabulary <|..  Outcome : <<mixin>>
  Freshness <. AssociationWalker : <<create>>
  Goal - - "1" Relation
  Goal O- - "* actuals" GoalArg
  Environment <|- - Glue::FreshEnv
  Environment "1 env"- -o Glue::RunStarExpression
@enduml

@startuml
title Implementation model of MiniKraken

  abstract class GoalArg

  abstract class Term {
    fresh?(Vocabulary) : Boolean
    ground?(Vocabulary) : Boolean
  }
  abstract class AtomicTerm {
    value
  }
  class KInteger
  class KSymbol
  abstract class CompositeTerm
  class ConsCell {
    car : Term
    cdr : Term
  }
  class Designation <<(M,orchid) module>> {
    name : String
    add_assoc(String, Term)
  }
  class Variable {
    i_name : String
  }
  class VariableRef
  class Association {
    i_name : String
  }
  abstract class Relation {
    name : String
    alt_name : String
    solver_for(Array<Term>, Vocabulary) : Fiber<Outcome>
  }
  abstract class GoalRelation
  abstract class NullaryRelation {
    arity() : Integer
  }
  class Fail <<(S,#FF7700) singleton>>
  class Succeed <<(S,#FF7700) singleton>>
  abstract class BinaryRelation {
    arity() : Integer
  }
  class Equals <<(S,#FF7700) singleton>>
  class Vocabulary <<(M,orchid) module>> {
    rankings : Hash
    add_assoc(String, Term)
  }
  class Conj2 <<(S,#FF7700) singleton>>
  class Environment {
    ivars : Hash
    add_var(Variable)
  }
  class Outcome {
    resultant : Symbol
  }
  class Glue::FreshEnv {
    attain(Vocabulary) : Fiber<Outcome>
  }
  class Goal {
    attain(Vocabulary) : Fiber<Outcome>
  }
  class AnyValue {
    rank : Integer
  }
  class AssociationWalker {
    visitees
  }
  class CompositeGoal
  class DuckFiber {
    outcome : Outcome
    resume() : OutCome
  }
  class Freshness {
    degree : Symbol
  }
  class Glue::RunStarExpression {
    run() : ConsCell
  }

  GoalArg <|- - Term
  GoalArg <|- - Goal
  Term <|- - AtomicTerm
  Term <|- - CompositeTerm
  Term <|- - VariableRef
  Term "value" <- - Association
  AtomicTerm <|- - KInteger
  AtomicTerm <|- - KSymbol
  CompositeTerm <|- - ConsCell
  Term "* children" - -o CompositeTerm
  Designation <|.. Variable : <<mixin>>
  Designation <|.. VariableRef : <<mixin>>
  Relation <|- - GoalRelation  
  Relation <|- - NullaryRelation
  NullaryRelation <|- - Fail
  NullaryRelation <|- - Succeed
  Relation <|- - BinaryRelation
  BinaryRelation <|- - Equals
  GoalRelation <|- - Conj2
  Vocabulary - -> "0,1 parent" Vocabulary
  Vocabulary <|..  Environment : <<mixin>>
  Vocabulary o- - "* associations" Association
  AssociationWalker <.. Vocabulary : <<create>>
  Environment o- - "* vars" Variable
  Vocabulary <|..  Outcome : <<mixin>>
  Freshness <. AssociationWalker : <<create>>
  Goal - - "1" Relation
  Goal O- - "* actuals" GoalArg
  Environment <|- - Glue::FreshEnv
  Environment "1 env"- -o Glue::RunStarExpression
@enduml

PlantUML version 1.2020.10(Sun May 17 09:35:57 UTC 2020)
(GPL source distribution)
Java Runtime: Java(TM) SE Runtime Environment
JVM: Java HotSpot(TM) 64-Bit Server VM
Java Version: 14.0.1+7
Operating System: Linux
Default Encoding: UTF-8
Language: en
Country: US
--></g></svg>