<?xml version="1.0" encoding="UTF-8" standalone="no"?><svg xmlns="http://www.w3.org/2000/svg" xmlns:xlink="http://www.w3.org/1999/xlink" contentScriptType="application/ecmascript" contentStyleType="text/css" height="549px" preserveAspectRatio="none" style="width:1515px;height:549px;" version="1.1" viewBox="0 0 1515 549" width="1515px" zoomAndPan="magnify"><defs><filter height="300%" id="fp69zhgfjrpa8" width="300%" x="-1" y="-1"><feGaussianBlur result="blurOut" stdDeviation="2.0"/><feColorMatrix in="blurOut" result="blurOut2" type="matrix" values="0 0 0 0 0 0 0 0 0 0 0 0 0 0 0 0 0 0 .4 0"/><feOffset dx="4.0" dy="4.0" in="blurOut2" result="blurOut3"/><feBlend in="SourceGraphic" in2="blurOut3" mode="normal"/></filter></defs><g><text fill="#000000" font-family="sans-serif" font-size="18" lengthAdjust="spacingAndGlyphs" textLength="516" x="503.5" y="16.708">Implementation model of MiniKraken (as of 2020/10/05)</text><!--MD5=[9d35236b92952560f647498cf8a29acb]
class Term--><rect fill="#FEFECE" filter="url(#fp69zhgfjrpa8)" height="48" id="Term" style="stroke: #A80036; stroke-width: 1.5;" width="63" x="857.5" y="185.9531"/><ellipse cx="872.5" cy="201.9531" fill="#A9DCDF" rx="11" ry="11" style="stroke: #A80036; stroke-width: 1.0;"/><path d="M874.5781,203.7656 L874.9688,204.75 L874.5781,204.75 C874.125,204.75 874.0156,204.7656 873.8594,204.875 C873.6094,205.0313 873.4531,205.3125 873.4531,205.6094 C873.4531,205.875 873.5938,206.125 873.8125,206.2813 C873.9531,206.4063 874.1563,206.4531 874.5781,206.4531 L876.9375,206.4531 C877.2969,206.4531 877.5156,206.4219 877.6563,206.3281 C877.9063,206.1875 878.0625,205.8906 878.0625,205.6094 C878.0625,205.3281 877.9219,205.0781 877.7031,204.9219 C877.5313,204.7813 877.375,204.75 876.9063,204.75 L873.5156,196.5469 L869.8438,196.5469 C869.3906,196.5469 869.2656,196.5625 869.1094,196.6563 C868.8594,196.8281 868.7031,197.1094 868.7031,197.3906 C868.7031,197.6719 868.8438,197.9219 869.0625,198.0938 C869.2344,198.2031 869.4063,198.2344 869.8438,198.2344 L870.9219,198.2344 L868.2813,204.75 C867.8594,204.75 867.7031,204.7656 867.5469,204.875 C867.2969,205.0313 867.1406,205.3125 867.1406,205.6094 C867.1406,206.1719 867.5156,206.4531 868.2656,206.4531 L870.5313,206.4531 C870.8906,206.4531 871.1094,206.4219 871.2344,206.3281 C871.5,206.1875 871.6406,205.8906 871.6406,205.6094 C871.6406,205.3281 871.5156,205.0781 871.2969,204.9063 C871.125,204.7813 870.9844,204.75 870.5313,204.75 L870.1406,204.75 L870.5313,203.7656 L874.5781,203.7656 Z M873.875,202.0625 L871.2031,202.0625 L872.5469,198.7969 L873.875,202.0625 Z "/><text fill="#000000" font-family="sans-serif" font-size="12" font-style="italic" lengthAdjust="spacingAndGlyphs" textLength="31" x="886.5" y="206.1074">Term</text><line style="stroke: #A80036; stroke-width: 1.5;" x1="858.5" x2="919.5" y1="217.9531" y2="217.9531"/><line style="stroke: #A80036; stroke-width: 1.5;" x1="858.5" x2="919.5" y1="225.9531" y2="225.9531"/><!--MD5=[d2e9e165ba3003c0cac1a5694f9c6cd6]
class AtomicTerm--><rect fill="#FEFECE" filter="url(#fp69zhgfjrpa8)" height="60.8047" id="AtomicTerm" style="stroke: #A80036; stroke-width: 1.5;" width="105" x="685.5" y="336.4531"/><ellipse cx="700.5" cy="352.4531" fill="#A9DCDF" rx="11" ry="11" style="stroke: #A80036; stroke-width: 1.0;"/><path d="M702.5781,354.2656 L702.9688,355.25 L702.5781,355.25 C702.125,355.25 702.0156,355.2656 701.8594,355.375 C701.6094,355.5313 701.4531,355.8125 701.4531,356.1094 C701.4531,356.375 701.5938,356.625 701.8125,356.7813 C701.9531,356.9063 702.1563,356.9531 702.5781,356.9531 L704.9375,356.9531 C705.2969,356.9531 705.5156,356.9219 705.6563,356.8281 C705.9063,356.6875 706.0625,356.3906 706.0625,356.1094 C706.0625,355.8281 705.9219,355.5781 705.7031,355.4219 C705.5313,355.2813 705.375,355.25 704.9063,355.25 L701.5156,347.0469 L697.8438,347.0469 C697.3906,347.0469 697.2656,347.0625 697.1094,347.1563 C696.8594,347.3281 696.7031,347.6094 696.7031,347.8906 C696.7031,348.1719 696.8438,348.4219 697.0625,348.5938 C697.2344,348.7031 697.4063,348.7344 697.8438,348.7344 L698.9219,348.7344 L696.2813,355.25 C695.8594,355.25 695.7031,355.2656 695.5469,355.375 C695.2969,355.5313 695.1406,355.8125 695.1406,356.1094 C695.1406,356.6719 695.5156,356.9531 696.2656,356.9531 L698.5313,356.9531 C698.8906,356.9531 699.1094,356.9219 699.2344,356.8281 C699.5,356.6875 699.6406,356.3906 699.6406,356.1094 C699.6406,355.8281 699.5156,355.5781 699.2969,355.4063 C699.125,355.2813 698.9844,355.25 698.5313,355.25 L698.1406,355.25 L698.5313,354.2656 L702.5781,354.2656 Z M701.875,352.5625 L699.2031,352.5625 L700.5469,349.2969 L701.875,352.5625 Z "/><text fill="#000000" font-family="sans-serif" font-size="12" font-style="italic" lengthAdjust="spacingAndGlyphs" textLength="73" x="714.5" y="356.6074">AtomicTerm</text><line style="stroke: #A80036; stroke-width: 1.5;" x1="686.5" x2="789.5" y1="368.4531" y2="368.4531"/><text fill="#000000" font-family="sans-serif" font-size="11" lengthAdjust="spacingAndGlyphs" textLength="32" x="691.5" y="382.6636">value</text><line style="stroke: #A80036; stroke-width: 1.5;" x1="686.5" x2="789.5" y1="389.2578" y2="389.2578"/><!--MD5=[92a14fe00a6f93c5cefea7481ed0f2af]
class KInteger--><rect fill="#FEFECE" filter="url(#fp69zhgfjrpa8)" height="48" id="KInteger" style="stroke: #A80036; stroke-width: 1.5;" width="83" x="732.5" y="477.9531"/><ellipse cx="747.5" cy="493.9531" fill="#ADD1B2" rx="11" ry="11" style="stroke: #A80036; stroke-width: 1.0;"/><path d="M749.8438,489.625 C748.9063,489.1875 748.3125,489.0469 747.4375,489.0469 C744.8125,489.0469 742.8125,491.125 742.8125,493.8438 L742.8125,494.9688 C742.8125,497.5469 744.9219,499.4375 747.8125,499.4375 C749.0313,499.4375 750.1875,499.1406 750.9375,498.5938 C751.5156,498.1875 751.8438,497.7344 751.8438,497.3438 C751.8438,496.8906 751.4531,496.5 750.9844,496.5 C750.7656,496.5 750.5625,496.5781 750.375,496.7656 C749.9219,497.25 749.9219,497.25 749.7344,497.3438 C749.3125,497.6094 748.625,497.7344 747.8594,497.7344 C745.8125,497.7344 744.5156,496.6406 744.5156,494.9375 L744.5156,493.8438 C744.5156,492.0625 745.7656,490.75 747.5,490.75 C748.0781,490.75 748.6875,490.9063 749.1563,491.1563 C749.6406,491.4375 749.8125,491.6563 749.9063,492.0625 C749.9688,492.4688 750,492.5938 750.1406,492.7188 C750.2813,492.8594 750.5156,492.9688 750.7344,492.9688 C751,492.9688 751.2656,492.8281 751.4375,492.6094 C751.5469,492.4531 751.5781,492.2656 751.5781,491.8438 L751.5781,490.4219 C751.5781,489.9844 751.5625,489.8594 751.4688,489.7031 C751.3125,489.4375 751.0313,489.2969 750.7344,489.2969 C750.4375,489.2969 750.2344,489.3906 750.0156,489.7031 L749.8438,489.625 Z "/><text fill="#000000" font-family="sans-serif" font-size="12" lengthAdjust="spacingAndGlyphs" textLength="51" x="761.5" y="498.1074">KInteger</text><line style="stroke: #A80036; stroke-width: 1.5;" x1="733.5" x2="814.5" y1="509.9531" y2="509.9531"/><line style="stroke: #A80036; stroke-width: 1.5;" x1="733.5" x2="814.5" y1="517.9531" y2="517.9531"/><!--MD5=[c4b501835d82bec6a309fa07b2f52c16]
class KSymbol--><rect fill="#FEFECE" filter="url(#fp69zhgfjrpa8)" height="48" id="KSymbol" style="stroke: #A80036; stroke-width: 1.5;" width="85" x="612.5" y="477.9531"/><ellipse cx="627.5" cy="493.9531" fill="#ADD1B2" rx="11" ry="11" style="stroke: #A80036; stroke-width: 1.0;"/><path d="M629.8438,489.625 C628.9063,489.1875 628.3125,489.0469 627.4375,489.0469 C624.8125,489.0469 622.8125,491.125 622.8125,493.8438 L622.8125,494.9688 C622.8125,497.5469 624.9219,499.4375 627.8125,499.4375 C629.0313,499.4375 630.1875,499.1406 630.9375,498.5938 C631.5156,498.1875 631.8438,497.7344 631.8438,497.3438 C631.8438,496.8906 631.4531,496.5 630.9844,496.5 C630.7656,496.5 630.5625,496.5781 630.375,496.7656 C629.9219,497.25 629.9219,497.25 629.7344,497.3438 C629.3125,497.6094 628.625,497.7344 627.8594,497.7344 C625.8125,497.7344 624.5156,496.6406 624.5156,494.9375 L624.5156,493.8438 C624.5156,492.0625 625.7656,490.75 627.5,490.75 C628.0781,490.75 628.6875,490.9063 629.1563,491.1563 C629.6406,491.4375 629.8125,491.6563 629.9063,492.0625 C629.9688,492.4688 630,492.5938 630.1406,492.7188 C630.2813,492.8594 630.5156,492.9688 630.7344,492.9688 C631,492.9688 631.2656,492.8281 631.4375,492.6094 C631.5469,492.4531 631.5781,492.2656 631.5781,491.8438 L631.5781,490.4219 C631.5781,489.9844 631.5625,489.8594 631.4688,489.7031 C631.3125,489.4375 631.0313,489.2969 630.7344,489.2969 C630.4375,489.2969 630.2344,489.3906 630.0156,489.7031 L629.8438,489.625 Z "/><text fill="#000000" font-family="sans-serif" font-size="12" lengthAdjust="spacingAndGlyphs" textLength="53" x="641.5" y="498.1074">KSymbol</text><line style="stroke: #A80036; stroke-width: 1.5;" x1="613.5" x2="696.5" y1="509.9531" y2="509.9531"/><line style="stroke: #A80036; stroke-width: 1.5;" x1="613.5" x2="696.5" y1="517.9531" y2="517.9531"/><!--MD5=[dadecc702c5f9f05dca7ab580a8e400a]
class CompositeTerm--><rect fill="#FEFECE" filter="url(#fp69zhgfjrpa8)" height="48" id="CompositeTerm" style="stroke: #A80036; stroke-width: 1.5;" width="126" x="826" y="342.9531"/><ellipse cx="841" cy="358.9531" fill="#A9DCDF" rx="11" ry="11" style="stroke: #A80036; stroke-width: 1.0;"/><path d="M843.0781,360.7656 L843.4688,361.75 L843.0781,361.75 C842.625,361.75 842.5156,361.7656 842.3594,361.875 C842.1094,362.0313 841.9531,362.3125 841.9531,362.6094 C841.9531,362.875 842.0938,363.125 842.3125,363.2813 C842.4531,363.4063 842.6563,363.4531 843.0781,363.4531 L845.4375,363.4531 C845.7969,363.4531 846.0156,363.4219 846.1563,363.3281 C846.4063,363.1875 846.5625,362.8906 846.5625,362.6094 C846.5625,362.3281 846.4219,362.0781 846.2031,361.9219 C846.0313,361.7813 845.875,361.75 845.4063,361.75 L842.0156,353.5469 L838.3438,353.5469 C837.8906,353.5469 837.7656,353.5625 837.6094,353.6563 C837.3594,353.8281 837.2031,354.1094 837.2031,354.3906 C837.2031,354.6719 837.3438,354.9219 837.5625,355.0938 C837.7344,355.2031 837.9063,355.2344 838.3438,355.2344 L839.4219,355.2344 L836.7813,361.75 C836.3594,361.75 836.2031,361.7656 836.0469,361.875 C835.7969,362.0313 835.6406,362.3125 835.6406,362.6094 C835.6406,363.1719 836.0156,363.4531 836.7656,363.4531 L839.0313,363.4531 C839.3906,363.4531 839.6094,363.4219 839.7344,363.3281 C840,363.1875 840.1406,362.8906 840.1406,362.6094 C840.1406,362.3281 840.0156,362.0781 839.7969,361.9063 C839.625,361.7813 839.4844,361.75 839.0313,361.75 L838.6406,361.75 L839.0313,360.7656 L843.0781,360.7656 Z M842.375,359.0625 L839.7031,359.0625 L841.0469,355.7969 L842.375,359.0625 Z "/><text fill="#000000" font-family="sans-serif" font-size="12" font-style="italic" lengthAdjust="spacingAndGlyphs" textLength="94" x="855" y="363.1074">CompositeTerm</text><line style="stroke: #A80036; stroke-width: 1.5;" x1="827" x2="951" y1="374.9531" y2="374.9531"/><line style="stroke: #A80036; stroke-width: 1.5;" x1="827" x2="951" y1="382.9531" y2="382.9531"/><!--MD5=[5c45ff2388ddc1722c3a4d58960e2301]
class ConsCell--><rect fill="#FEFECE" filter="url(#fp69zhgfjrpa8)" height="73.6094" id="ConsCell" style="stroke: #A80036; stroke-width: 1.5;" width="84" x="851" y="464.9531"/><ellipse cx="866" cy="480.9531" fill="#ADD1B2" rx="11" ry="11" style="stroke: #A80036; stroke-width: 1.0;"/><path d="M868.3438,476.625 C867.4063,476.1875 866.8125,476.0469 865.9375,476.0469 C863.3125,476.0469 861.3125,478.125 861.3125,480.8438 L861.3125,481.9688 C861.3125,484.5469 863.4219,486.4375 866.3125,486.4375 C867.5313,486.4375 868.6875,486.1406 869.4375,485.5938 C870.0156,485.1875 870.3438,484.7344 870.3438,484.3438 C870.3438,483.8906 869.9531,483.5 869.4844,483.5 C869.2656,483.5 869.0625,483.5781 868.875,483.7656 C868.4219,484.25 868.4219,484.25 868.2344,484.3438 C867.8125,484.6094 867.125,484.7344 866.3594,484.7344 C864.3125,484.7344 863.0156,483.6406 863.0156,481.9375 L863.0156,480.8438 C863.0156,479.0625 864.2656,477.75 866,477.75 C866.5781,477.75 867.1875,477.9063 867.6563,478.1563 C868.1406,478.4375 868.3125,478.6563 868.4063,479.0625 C868.4688,479.4688 868.5,479.5938 868.6406,479.7188 C868.7813,479.8594 869.0156,479.9688 869.2344,479.9688 C869.5,479.9688 869.7656,479.8281 869.9375,479.6094 C870.0469,479.4531 870.0781,479.2656 870.0781,478.8438 L870.0781,477.4219 C870.0781,476.9844 870.0625,476.8594 869.9688,476.7031 C869.8125,476.4375 869.5313,476.2969 869.2344,476.2969 C868.9375,476.2969 868.7344,476.3906 868.5156,476.7031 L868.3438,476.625 Z "/><text fill="#000000" font-family="sans-serif" font-size="12" lengthAdjust="spacingAndGlyphs" textLength="52" x="880" y="485.1074">ConsCell</text><line style="stroke: #A80036; stroke-width: 1.5;" x1="852" x2="934" y1="496.9531" y2="496.9531"/><text fill="#000000" font-family="sans-serif" font-size="11" lengthAdjust="spacingAndGlyphs" textLength="58" x="857" y="511.1636">car : Term</text><text fill="#000000" font-family="sans-serif" font-size="11" lengthAdjust="spacingAndGlyphs" textLength="58" x="857" y="523.9683">cdr : Term</text><line style="stroke: #A80036; stroke-width: 1.5;" x1="852" x2="934" y1="530.5625" y2="530.5625"/><!--MD5=[1e667c6ad6db7468aaf1f24fbbf1ec5d]
class Variable--><rect fill="#FEFECE" filter="url(#fp69zhgfjrpa8)" height="73.6094" id="Variable" style="stroke: #A80036; stroke-width: 1.5;" width="98" x="6" y="464.9531"/><ellipse cx="28.65" cy="480.9531" fill="#ADD1B2" rx="11" ry="11" style="stroke: #A80036; stroke-width: 1.0;"/><path d="M30.9938,476.625 C30.0563,476.1875 29.4625,476.0469 28.5875,476.0469 C25.9625,476.0469 23.9625,478.125 23.9625,480.8438 L23.9625,481.9688 C23.9625,484.5469 26.0719,486.4375 28.9625,486.4375 C30.1813,486.4375 31.3375,486.1406 32.0875,485.5938 C32.6656,485.1875 32.9938,484.7344 32.9938,484.3438 C32.9938,483.8906 32.6031,483.5 32.1344,483.5 C31.9156,483.5 31.7125,483.5781 31.525,483.7656 C31.0719,484.25 31.0719,484.25 30.8844,484.3438 C30.4625,484.6094 29.775,484.7344 29.0094,484.7344 C26.9625,484.7344 25.6656,483.6406 25.6656,481.9375 L25.6656,480.8438 C25.6656,479.0625 26.9156,477.75 28.65,477.75 C29.2281,477.75 29.8375,477.9063 30.3063,478.1563 C30.7906,478.4375 30.9625,478.6563 31.0563,479.0625 C31.1188,479.4688 31.15,479.5938 31.2906,479.7188 C31.4313,479.8594 31.6656,479.9688 31.8844,479.9688 C32.15,479.9688 32.4156,479.8281 32.5875,479.6094 C32.6969,479.4531 32.7281,479.2656 32.7281,478.8438 L32.7281,477.4219 C32.7281,476.9844 32.7125,476.8594 32.6188,476.7031 C32.4625,476.4375 32.1813,476.2969 31.8844,476.2969 C31.5875,476.2969 31.3844,476.3906 31.1656,476.7031 L30.9938,476.625 Z "/><text fill="#000000" font-family="sans-serif" font-size="12" lengthAdjust="spacingAndGlyphs" textLength="49" x="44.35" y="485.1074">Variable</text><line style="stroke: #A80036; stroke-width: 1.5;" x1="7" x2="103" y1="496.9531" y2="496.9531"/><text fill="#000000" font-family="sans-serif" font-size="11" lengthAdjust="spacingAndGlyphs" textLength="77" x="12" y="511.1636">name : String</text><text fill="#000000" font-family="sans-serif" font-size="11" lengthAdjust="spacingAndGlyphs" textLength="86" x="12" y="523.9683">i_name : String</text><line style="stroke: #A80036; stroke-width: 1.5;" x1="7" x2="103" y1="530.5625" y2="530.5625"/><!--MD5=[a24e4d517bba806fa2e9b9fac30c71bc]
class VariableRef--><rect fill="#FEFECE" filter="url(#fp69zhgfjrpa8)" height="60.8047" id="VariableRef" style="stroke: #A80036; stroke-width: 1.5;" width="100" x="987" y="336.4531"/><ellipse cx="1002" cy="352.4531" fill="#ADD1B2" rx="11" ry="11" style="stroke: #A80036; stroke-width: 1.0;"/><path d="M1004.3438,348.125 C1003.4063,347.6875 1002.8125,347.5469 1001.9375,347.5469 C999.3125,347.5469 997.3125,349.625 997.3125,352.3438 L997.3125,353.4688 C997.3125,356.0469 999.4219,357.9375 1002.3125,357.9375 C1003.5313,357.9375 1004.6875,357.6406 1005.4375,357.0938 C1006.0156,356.6875 1006.3438,356.2344 1006.3438,355.8438 C1006.3438,355.3906 1005.9531,355 1005.4844,355 C1005.2656,355 1005.0625,355.0781 1004.875,355.2656 C1004.4219,355.75 1004.4219,355.75 1004.2344,355.8438 C1003.8125,356.1094 1003.125,356.2344 1002.3594,356.2344 C1000.3125,356.2344 999.0156,355.1406 999.0156,353.4375 L999.0156,352.3438 C999.0156,350.5625 1000.2656,349.25 1002,349.25 C1002.5781,349.25 1003.1875,349.4063 1003.6563,349.6563 C1004.1406,349.9375 1004.3125,350.1563 1004.4063,350.5625 C1004.4688,350.9688 1004.5,351.0938 1004.6406,351.2188 C1004.7813,351.3594 1005.0156,351.4688 1005.2344,351.4688 C1005.5,351.4688 1005.7656,351.3281 1005.9375,351.1094 C1006.0469,350.9531 1006.0781,350.7656 1006.0781,350.3438 L1006.0781,348.9219 C1006.0781,348.4844 1006.0625,348.3594 1005.9688,348.2031 C1005.8125,347.9375 1005.5313,347.7969 1005.2344,347.7969 C1004.9375,347.7969 1004.7344,347.8906 1004.5156,348.2031 L1004.3438,348.125 Z "/><text fill="#000000" font-family="sans-serif" font-size="12" lengthAdjust="spacingAndGlyphs" textLength="68" x="1016" y="356.6074">VariableRef</text><line style="stroke: #A80036; stroke-width: 1.5;" x1="988" x2="1086" y1="368.4531" y2="368.4531"/><text fill="#000000" font-family="sans-serif" font-size="11" lengthAdjust="spacingAndGlyphs" textLength="77" x="993" y="382.6636">name : String</text><line style="stroke: #A80036; stroke-width: 1.5;" x1="988" x2="1086" y1="389.2578" y2="389.2578"/><!--MD5=[b9be2c694e35ab9e85e666b830f85409]
class Association--><rect fill="#FEFECE" filter="url(#fp69zhgfjrpa8)" height="60.8047" id="Association" style="stroke: #A80036; stroke-width: 1.5;" width="101" x="534.5" y="336.4531"/><ellipse cx="549.5" cy="352.4531" fill="#ADD1B2" rx="11" ry="11" style="stroke: #A80036; stroke-width: 1.0;"/><path d="M551.8438,348.125 C550.9063,347.6875 550.3125,347.5469 549.4375,347.5469 C546.8125,347.5469 544.8125,349.625 544.8125,352.3438 L544.8125,353.4688 C544.8125,356.0469 546.9219,357.9375 549.8125,357.9375 C551.0313,357.9375 552.1875,357.6406 552.9375,357.0938 C553.5156,356.6875 553.8438,356.2344 553.8438,355.8438 C553.8438,355.3906 553.4531,355 552.9844,355 C552.7656,355 552.5625,355.0781 552.375,355.2656 C551.9219,355.75 551.9219,355.75 551.7344,355.8438 C551.3125,356.1094 550.625,356.2344 549.8594,356.2344 C547.8125,356.2344 546.5156,355.1406 546.5156,353.4375 L546.5156,352.3438 C546.5156,350.5625 547.7656,349.25 549.5,349.25 C550.0781,349.25 550.6875,349.4063 551.1563,349.6563 C551.6406,349.9375 551.8125,350.1563 551.9063,350.5625 C551.9688,350.9688 552,351.0938 552.1406,351.2188 C552.2813,351.3594 552.5156,351.4688 552.7344,351.4688 C553,351.4688 553.2656,351.3281 553.4375,351.1094 C553.5469,350.9531 553.5781,350.7656 553.5781,350.3438 L553.5781,348.9219 C553.5781,348.4844 553.5625,348.3594 553.4688,348.2031 C553.3125,347.9375 553.0313,347.7969 552.7344,347.7969 C552.4375,347.7969 552.2344,347.8906 552.0156,348.2031 L551.8438,348.125 Z "/><text fill="#000000" font-family="sans-serif" font-size="12" lengthAdjust="spacingAndGlyphs" textLength="69" x="563.5" y="356.6074">Association</text><line style="stroke: #A80036; stroke-width: 1.5;" x1="535.5" x2="634.5" y1="368.4531" y2="368.4531"/><text fill="#000000" font-family="sans-serif" font-size="11" lengthAdjust="spacingAndGlyphs" textLength="86" x="540.5" y="382.6636">i_name : String</text><line style="stroke: #A80036; stroke-width: 1.5;" x1="535.5" x2="634.5" y1="389.2578" y2="389.2578"/><!--MD5=[534474e9f05b14d7c70186ae077f30e0]
class Relation--><rect fill="#FEFECE" filter="url(#fp69zhgfjrpa8)" height="86.4141" id="Relation" style="stroke: #A80036; stroke-width: 1.5;" width="333" x="1014.5" y="166.9531"/><ellipse cx="1152.75" cy="182.9531" fill="#A9DCDF" rx="11" ry="11" style="stroke: #A80036; stroke-width: 1.0;"/><path d="M1154.8281,184.7656 L1155.2188,185.75 L1154.8281,185.75 C1154.375,185.75 1154.2656,185.7656 1154.1094,185.875 C1153.8594,186.0313 1153.7031,186.3125 1153.7031,186.6094 C1153.7031,186.875 1153.8438,187.125 1154.0625,187.2813 C1154.2031,187.4063 1154.4063,187.4531 1154.8281,187.4531 L1157.1875,187.4531 C1157.5469,187.4531 1157.7656,187.4219 1157.9063,187.3281 C1158.1563,187.1875 1158.3125,186.8906 1158.3125,186.6094 C1158.3125,186.3281 1158.1719,186.0781 1157.9531,185.9219 C1157.7813,185.7813 1157.625,185.75 1157.1563,185.75 L1153.7656,177.5469 L1150.0938,177.5469 C1149.6406,177.5469 1149.5156,177.5625 1149.3594,177.6563 C1149.1094,177.8281 1148.9531,178.1094 1148.9531,178.3906 C1148.9531,178.6719 1149.0938,178.9219 1149.3125,179.0938 C1149.4844,179.2031 1149.6563,179.2344 1150.0938,179.2344 L1151.1719,179.2344 L1148.5313,185.75 C1148.1094,185.75 1147.9531,185.7656 1147.7969,185.875 C1147.5469,186.0313 1147.3906,186.3125 1147.3906,186.6094 C1147.3906,187.1719 1147.7656,187.4531 1148.5156,187.4531 L1150.7813,187.4531 C1151.1406,187.4531 1151.3594,187.4219 1151.4844,187.3281 C1151.75,187.1875 1151.8906,186.8906 1151.8906,186.6094 C1151.8906,186.3281 1151.7656,186.0781 1151.5469,185.9063 C1151.375,185.7813 1151.2344,185.75 1150.7813,185.75 L1150.3906,185.75 L1150.7813,184.7656 L1154.8281,184.7656 Z M1154.125,183.0625 L1151.4531,183.0625 L1152.7969,179.7969 L1154.125,183.0625 Z "/><text fill="#000000" font-family="sans-serif" font-size="12" font-style="italic" lengthAdjust="spacingAndGlyphs" textLength="48" x="1173.25" y="187.1074">Relation</text><line style="stroke: #A80036; stroke-width: 1.5;" x1="1015.5" x2="1346.5" y1="198.9531" y2="198.9531"/><text fill="#000000" font-family="sans-serif" font-size="11" lengthAdjust="spacingAndGlyphs" textLength="77" x="1020.5" y="213.1636">name : String</text><text fill="#000000" font-family="sans-serif" font-size="11" lengthAdjust="spacingAndGlyphs" textLength="97" x="1020.5" y="225.9683">alt_name : String</text><line style="stroke: #A80036; stroke-width: 1.5;" x1="1015.5" x2="1346.5" y1="232.5625" y2="232.5625"/><text fill="#000000" font-family="sans-serif" font-size="11" lengthAdjust="spacingAndGlyphs" textLength="321" x="1020.5" y="246.7729">solver_for(Array&lt;Term&gt;, Vocabulary) : Fiber&lt;Outcome&gt;</text><!--MD5=[67b523df484b7b041d90f7257977ead4]
class NullaryRelation--><rect fill="#FEFECE" filter="url(#fp69zhgfjrpa8)" height="60.8047" id="NullaryRelation" style="stroke: #A80036; stroke-width: 1.5;" width="122" x="1275" y="336.4531"/><ellipse cx="1290" cy="352.4531" fill="#A9DCDF" rx="11" ry="11" style="stroke: #A80036; stroke-width: 1.0;"/><path d="M1292.0781,354.2656 L1292.4688,355.25 L1292.0781,355.25 C1291.625,355.25 1291.5156,355.2656 1291.3594,355.375 C1291.1094,355.5313 1290.9531,355.8125 1290.9531,356.1094 C1290.9531,356.375 1291.0938,356.625 1291.3125,356.7813 C1291.4531,356.9063 1291.6563,356.9531 1292.0781,356.9531 L1294.4375,356.9531 C1294.7969,356.9531 1295.0156,356.9219 1295.1563,356.8281 C1295.4063,356.6875 1295.5625,356.3906 1295.5625,356.1094 C1295.5625,355.8281 1295.4219,355.5781 1295.2031,355.4219 C1295.0313,355.2813 1294.875,355.25 1294.4063,355.25 L1291.0156,347.0469 L1287.3438,347.0469 C1286.8906,347.0469 1286.7656,347.0625 1286.6094,347.1563 C1286.3594,347.3281 1286.2031,347.6094 1286.2031,347.8906 C1286.2031,348.1719 1286.3438,348.4219 1286.5625,348.5938 C1286.7344,348.7031 1286.9063,348.7344 1287.3438,348.7344 L1288.4219,348.7344 L1285.7813,355.25 C1285.3594,355.25 1285.2031,355.2656 1285.0469,355.375 C1284.7969,355.5313 1284.6406,355.8125 1284.6406,356.1094 C1284.6406,356.6719 1285.0156,356.9531 1285.7656,356.9531 L1288.0313,356.9531 C1288.3906,356.9531 1288.6094,356.9219 1288.7344,356.8281 C1289,356.6875 1289.1406,356.3906 1289.1406,356.1094 C1289.1406,355.8281 1289.0156,355.5781 1288.7969,355.4063 C1288.625,355.2813 1288.4844,355.25 1288.0313,355.25 L1287.6406,355.25 L1288.0313,354.2656 L1292.0781,354.2656 Z M1291.375,352.5625 L1288.7031,352.5625 L1290.0469,349.2969 L1291.375,352.5625 Z "/><text fill="#000000" font-family="sans-serif" font-size="12" font-style="italic" lengthAdjust="spacingAndGlyphs" textLength="90" x="1304" y="356.6074">NullaryRelation</text><line style="stroke: #A80036; stroke-width: 1.5;" x1="1276" x2="1396" y1="368.4531" y2="368.4531"/><line style="stroke: #A80036; stroke-width: 1.5;" x1="1276" x2="1396" y1="376.4531" y2="376.4531"/><text fill="#000000" font-family="sans-serif" font-size="11" lengthAdjust="spacingAndGlyphs" textLength="85" x="1281" y="390.6636">arity() : Integer</text><!--MD5=[0f49711e09a4e276ecfadbbcb416eaaf]
class Fail--><rect fill="#FEFECE" filter="url(#fp69zhgfjrpa8)" height="53.9375" id="Fail" style="stroke: #A80036; stroke-width: 1.5;" width="97" x="1407.5" y="474.9531"/><ellipse cx="1422.5" cy="493.9219" fill="#FF7700" rx="11" ry="11" style="stroke: #A80036; stroke-width: 1.0;"/><path d="M1426.2813,489.8906 C1426.2813,489.4531 1426.2656,489.3125 1426.1719,489.1563 C1426.0313,488.9219 1425.75,488.7656 1425.4531,488.7656 C1425.1094,488.7656 1424.9688,488.9063 1424.7969,489.3281 C1424.2031,488.9531 1423.4531,488.7656 1422.5781,488.7656 C1420.4688,488.7656 1418.8906,490.0625 1418.8906,491.7813 C1418.8906,492.75 1419.4219,493.6563 1420.2813,494.1406 C1420.8281,494.4531 1421.375,494.625 1422.4844,494.8125 C1423.6406,495.0156 1423.9063,495.0781 1424.2656,495.2656 C1424.6406,495.4688 1424.875,495.8125 1424.875,496.1719 C1424.875,496.9063 1423.8906,497.4531 1422.6406,497.4531 C1421.5156,497.4531 1420.4375,496.9688 1420.2656,496.3594 C1420.1406,495.8906 1420.1406,495.8906 1420.0156,495.7813 C1419.8594,495.625 1419.6406,495.5313 1419.4063,495.5313 C1419.125,495.5313 1418.875,495.6563 1418.7031,495.875 C1418.5938,496.0469 1418.5469,496.2344 1418.5469,496.6563 L1418.5469,497.7813 C1418.5469,498.5469 1418.8281,498.9063 1419.4219,498.9063 C1419.6875,498.9063 1419.8125,498.8438 1420.0938,498.5 C1420.9375,498.9375 1421.8281,499.1563 1422.75,499.1563 C1425.0781,499.1563 1426.6406,497.9688 1426.6406,496.2031 C1426.6406,495.3125 1426.3281,494.625 1425.6406,494.0781 C1425.1094,493.6563 1424.4688,493.4063 1422.9844,493.1406 C1421.7188,492.9063 1421.625,492.875 1421.2969,492.7031 C1420.9219,492.5156 1420.6563,492.125 1420.6563,491.7656 C1420.6563,491.0313 1421.5156,490.4688 1422.5781,490.4688 C1423.6406,490.4688 1424.4531,490.9375 1424.6094,491.6094 C1424.7188,492.1563 1424.7188,492.1563 1424.8438,492.2969 C1424.9844,492.4219 1425.2188,492.5313 1425.4531,492.5313 C1425.7188,492.5313 1425.9688,492.3906 1426.1406,492.1719 C1426.25,492 1426.2813,491.8594 1426.2813,491.3906 L1426.2813,489.8906 Z "/><text fill="#000000" font-family="sans-serif" font-size="12" font-style="italic" lengthAdjust="spacingAndGlyphs" textLength="69" x="1434.5" y="491.0918">«singleton»</text><text fill="#000000" font-family="sans-serif" font-size="12" lengthAdjust="spacingAndGlyphs" textLength="20" x="1459" y="505.0605">Fail</text><line style="stroke: #A80036; stroke-width: 1.5;" x1="1408.5" x2="1503.5" y1="512.8906" y2="512.8906"/><line style="stroke: #A80036; stroke-width: 1.5;" x1="1408.5" x2="1503.5" y1="520.8906" y2="520.8906"/><!--MD5=[dba040c6cba649971931ef65e20ad63c]
class Succeed--><rect fill="#FEFECE" filter="url(#fp69zhgfjrpa8)" height="53.9375" id="Succeed" style="stroke: #A80036; stroke-width: 1.5;" width="97" x="1275.5" y="474.9531"/><ellipse cx="1290.5" cy="493.9219" fill="#FF7700" rx="11" ry="11" style="stroke: #A80036; stroke-width: 1.0;"/><path d="M1294.2813,489.8906 C1294.2813,489.4531 1294.2656,489.3125 1294.1719,489.1563 C1294.0313,488.9219 1293.75,488.7656 1293.4531,488.7656 C1293.1094,488.7656 1292.9688,488.9063 1292.7969,489.3281 C1292.2031,488.9531 1291.4531,488.7656 1290.5781,488.7656 C1288.4688,488.7656 1286.8906,490.0625 1286.8906,491.7813 C1286.8906,492.75 1287.4219,493.6563 1288.2813,494.1406 C1288.8281,494.4531 1289.375,494.625 1290.4844,494.8125 C1291.6406,495.0156 1291.9063,495.0781 1292.2656,495.2656 C1292.6406,495.4688 1292.875,495.8125 1292.875,496.1719 C1292.875,496.9063 1291.8906,497.4531 1290.6406,497.4531 C1289.5156,497.4531 1288.4375,496.9688 1288.2656,496.3594 C1288.1406,495.8906 1288.1406,495.8906 1288.0156,495.7813 C1287.8594,495.625 1287.6406,495.5313 1287.4063,495.5313 C1287.125,495.5313 1286.875,495.6563 1286.7031,495.875 C1286.5938,496.0469 1286.5469,496.2344 1286.5469,496.6563 L1286.5469,497.7813 C1286.5469,498.5469 1286.8281,498.9063 1287.4219,498.9063 C1287.6875,498.9063 1287.8125,498.8438 1288.0938,498.5 C1288.9375,498.9375 1289.8281,499.1563 1290.75,499.1563 C1293.0781,499.1563 1294.6406,497.9688 1294.6406,496.2031 C1294.6406,495.3125 1294.3281,494.625 1293.6406,494.0781 C1293.1094,493.6563 1292.4688,493.4063 1290.9844,493.1406 C1289.7188,492.9063 1289.625,492.875 1289.2969,492.7031 C1288.9219,492.5156 1288.6563,492.125 1288.6563,491.7656 C1288.6563,491.0313 1289.5156,490.4688 1290.5781,490.4688 C1291.6406,490.4688 1292.4531,490.9375 1292.6094,491.6094 C1292.7188,492.1563 1292.7188,492.1563 1292.8438,492.2969 C1292.9844,492.4219 1293.2188,492.5313 1293.4531,492.5313 C1293.7188,492.5313 1293.9688,492.3906 1294.1406,492.1719 C1294.25,492 1294.2813,491.8594 1294.2813,491.3906 L1294.2813,489.8906 Z "/><text fill="#000000" font-family="sans-serif" font-size="12" font-style="italic" lengthAdjust="spacingAndGlyphs" textLength="69" x="1302.5" y="491.0918">«singleton»</text><text fill="#000000" font-family="sans-serif" font-size="12" lengthAdjust="spacingAndGlyphs" textLength="53" x="1310.5" y="505.0605">Succeed</text><line style="stroke: #A80036; stroke-width: 1.5;" x1="1276.5" x2="1371.5" y1="512.8906" y2="512.8906"/><line style="stroke: #A80036; stroke-width: 1.5;" x1="1276.5" x2="1371.5" y1="520.8906" y2="520.8906"/><!--MD5=[534d042e5b1117877e2c9e5c358927c2]
class BinaryRelation--><rect fill="#FEFECE" filter="url(#fp69zhgfjrpa8)" height="60.8047" id="BinaryRelation" style="stroke: #A80036; stroke-width: 1.5;" width="118" x="1122" y="336.4531"/><ellipse cx="1137" cy="352.4531" fill="#A9DCDF" rx="11" ry="11" style="stroke: #A80036; stroke-width: 1.0;"/><path d="M1139.0781,354.2656 L1139.4688,355.25 L1139.0781,355.25 C1138.625,355.25 1138.5156,355.2656 1138.3594,355.375 C1138.1094,355.5313 1137.9531,355.8125 1137.9531,356.1094 C1137.9531,356.375 1138.0938,356.625 1138.3125,356.7813 C1138.4531,356.9063 1138.6563,356.9531 1139.0781,356.9531 L1141.4375,356.9531 C1141.7969,356.9531 1142.0156,356.9219 1142.1563,356.8281 C1142.4063,356.6875 1142.5625,356.3906 1142.5625,356.1094 C1142.5625,355.8281 1142.4219,355.5781 1142.2031,355.4219 C1142.0313,355.2813 1141.875,355.25 1141.4063,355.25 L1138.0156,347.0469 L1134.3438,347.0469 C1133.8906,347.0469 1133.7656,347.0625 1133.6094,347.1563 C1133.3594,347.3281 1133.2031,347.6094 1133.2031,347.8906 C1133.2031,348.1719 1133.3438,348.4219 1133.5625,348.5938 C1133.7344,348.7031 1133.9063,348.7344 1134.3438,348.7344 L1135.4219,348.7344 L1132.7813,355.25 C1132.3594,355.25 1132.2031,355.2656 1132.0469,355.375 C1131.7969,355.5313 1131.6406,355.8125 1131.6406,356.1094 C1131.6406,356.6719 1132.0156,356.9531 1132.7656,356.9531 L1135.0313,356.9531 C1135.3906,356.9531 1135.6094,356.9219 1135.7344,356.8281 C1136,356.6875 1136.1406,356.3906 1136.1406,356.1094 C1136.1406,355.8281 1136.0156,355.5781 1135.7969,355.4063 C1135.625,355.2813 1135.4844,355.25 1135.0313,355.25 L1134.6406,355.25 L1135.0313,354.2656 L1139.0781,354.2656 Z M1138.375,352.5625 L1135.7031,352.5625 L1137.0469,349.2969 L1138.375,352.5625 Z "/><text fill="#000000" font-family="sans-serif" font-size="12" font-style="italic" lengthAdjust="spacingAndGlyphs" textLength="86" x="1151" y="356.6074">BinaryRelation</text><line style="stroke: #A80036; stroke-width: 1.5;" x1="1123" x2="1239" y1="368.4531" y2="368.4531"/><line style="stroke: #A80036; stroke-width: 1.5;" x1="1123" x2="1239" y1="376.4531" y2="376.4531"/><text fill="#000000" font-family="sans-serif" font-size="11" lengthAdjust="spacingAndGlyphs" textLength="85" x="1128" y="390.6636">arity() : Integer</text><!--MD5=[dd047b06638785db7c5e5d57995e2c0b]
class Equals--><rect fill="#FEFECE" filter="url(#fp69zhgfjrpa8)" height="53.9375" id="Equals" style="stroke: #A80036; stroke-width: 1.5;" width="97" x="1132.5" y="474.9531"/><ellipse cx="1147.5" cy="493.9219" fill="#FF7700" rx="11" ry="11" style="stroke: #A80036; stroke-width: 1.0;"/><path d="M1151.2813,489.8906 C1151.2813,489.4531 1151.2656,489.3125 1151.1719,489.1563 C1151.0313,488.9219 1150.75,488.7656 1150.4531,488.7656 C1150.1094,488.7656 1149.9688,488.9063 1149.7969,489.3281 C1149.2031,488.9531 1148.4531,488.7656 1147.5781,488.7656 C1145.4688,488.7656 1143.8906,490.0625 1143.8906,491.7813 C1143.8906,492.75 1144.4219,493.6563 1145.2813,494.1406 C1145.8281,494.4531 1146.375,494.625 1147.4844,494.8125 C1148.6406,495.0156 1148.9063,495.0781 1149.2656,495.2656 C1149.6406,495.4688 1149.875,495.8125 1149.875,496.1719 C1149.875,496.9063 1148.8906,497.4531 1147.6406,497.4531 C1146.5156,497.4531 1145.4375,496.9688 1145.2656,496.3594 C1145.1406,495.8906 1145.1406,495.8906 1145.0156,495.7813 C1144.8594,495.625 1144.6406,495.5313 1144.4063,495.5313 C1144.125,495.5313 1143.875,495.6563 1143.7031,495.875 C1143.5938,496.0469 1143.5469,496.2344 1143.5469,496.6563 L1143.5469,497.7813 C1143.5469,498.5469 1143.8281,498.9063 1144.4219,498.9063 C1144.6875,498.9063 1144.8125,498.8438 1145.0938,498.5 C1145.9375,498.9375 1146.8281,499.1563 1147.75,499.1563 C1150.0781,499.1563 1151.6406,497.9688 1151.6406,496.2031 C1151.6406,495.3125 1151.3281,494.625 1150.6406,494.0781 C1150.1094,493.6563 1149.4688,493.4063 1147.9844,493.1406 C1146.7188,492.9063 1146.625,492.875 1146.2969,492.7031 C1145.9219,492.5156 1145.6563,492.125 1145.6563,491.7656 C1145.6563,491.0313 1146.5156,490.4688 1147.5781,490.4688 C1148.6406,490.4688 1149.4531,490.9375 1149.6094,491.6094 C1149.7188,492.1563 1149.7188,492.1563 1149.8438,492.2969 C1149.9844,492.4219 1150.2188,492.5313 1150.4531,492.5313 C1150.7188,492.5313 1150.9688,492.3906 1151.1406,492.1719 C1151.25,492 1151.2813,491.8594 1151.2813,491.3906 L1151.2813,489.8906 Z "/><text fill="#000000" font-family="sans-serif" font-size="12" font-style="italic" lengthAdjust="spacingAndGlyphs" textLength="69" x="1159.5" y="491.0918">«singleton»</text><text fill="#000000" font-family="sans-serif" font-size="12" lengthAdjust="spacingAndGlyphs" textLength="39" x="1174.5" y="505.0605">Equals</text><line style="stroke: #A80036; stroke-width: 1.5;" x1="1133.5" x2="1228.5" y1="512.8906" y2="512.8906"/><line style="stroke: #A80036; stroke-width: 1.5;" x1="1133.5" x2="1228.5" y1="520.8906" y2="520.8906"/><!--MD5=[ab582a0c263dba417ad352e606b068fa]
class Vocabulary--><rect fill="#FEFECE" filter="url(#fp69zhgfjrpa8)" height="79.5469" id="Vocabulary" style="stroke: #A80036; stroke-width: 1.5;" width="149" x="359.5" y="169.9531"/><ellipse cx="397" cy="188.9219" fill="#DA70D6" rx="11" ry="11" style="stroke: #A80036; stroke-width: 1.0;"/><path d="M393.9063,187.3125 L395.9219,191.5781 L397.4688,191.5781 L399.3594,187.3125 L399.3594,192.2188 L398.7656,192.2188 C398.3125,192.2188 398.2031,192.2344 398.0469,192.3438 C397.7969,192.5 397.6406,192.7813 397.6406,193.0781 C397.6406,193.3281 397.7656,193.5938 398,193.75 C398.125,193.875 398.375,193.9219 398.7656,193.9219 L400.9688,193.9219 C401.3125,193.9219 401.5625,193.875 401.6875,193.7969 C401.9375,193.6406 402.0938,193.3594 402.0938,193.0781 C402.0938,192.5313 401.7188,192.2188 401.0469,192.2188 L401.0469,185.7031 C401.6094,185.6563 401.9375,185.3594 401.9375,184.8594 C401.9375,184.5938 401.7969,184.3281 401.5938,184.1563 C401.4219,184.0469 401.2813,184.0156 400.8125,184.0156 L398.9531,184.0156 L396.6563,189.0625 L394.3125,184.0156 L392.4531,184.0156 C392.4375,184 392.4219,184 392.3906,184 C392.1875,184 391.8281,184.0625 391.7344,184.1094 C391.4844,184.2813 391.3281,184.5781 391.3281,184.8438 C391.3281,185.3594 391.6563,185.6563 392.2188,185.7031 L392.2188,192.2188 C391.5469,192.2188 391.1719,192.5313 391.1719,193.0781 C391.1719,193.3438 391.3125,193.5938 391.5313,193.75 C391.6875,193.875 391.9063,193.9219 392.3125,193.9219 L394.5156,193.9219 C394.8438,193.9219 395.1094,193.875 395.2188,193.7969 C395.4844,193.6406 395.625,193.3594 395.625,193.0781 C395.625,192.7969 395.5156,192.5469 395.2969,192.375 C395.1094,192.25 394.9688,192.2188 394.5156,192.2188 L393.9063,192.2188 L393.9063,187.3125 Z "/><text fill="#000000" font-family="sans-serif" font-size="12" font-style="italic" lengthAdjust="spacingAndGlyphs" textLength="59" x="420" y="186.0918">«module»</text><text fill="#000000" font-family="sans-serif" font-size="12" lengthAdjust="spacingAndGlyphs" textLength="67" x="416" y="200.0605">Vocabulary</text><line style="stroke: #A80036; stroke-width: 1.5;" x1="360.5" x2="507.5" y1="207.8906" y2="207.8906"/><text fill="#000000" font-family="sans-serif" font-size="11" lengthAdjust="spacingAndGlyphs" textLength="86" x="365.5" y="222.1011">rankings : Hash</text><line style="stroke: #A80036; stroke-width: 1.5;" x1="360.5" x2="507.5" y1="228.6953" y2="228.6953"/><text fill="#000000" font-family="sans-serif" font-size="11" lengthAdjust="spacingAndGlyphs" textLength="137" x="365.5" y="242.9058">add_assoc(String, Term)</text><!--MD5=[5d0a77e8f66918aa15fe0099dd6d4ba9]
class Environment--><rect fill="#FEFECE" filter="url(#fp69zhgfjrpa8)" height="73.6094" id="Environment" style="stroke: #A80036; stroke-width: 1.5;" width="112" x="199" y="329.9531"/><ellipse cx="216.7" cy="345.9531" fill="#ADD1B2" rx="11" ry="11" style="stroke: #A80036; stroke-width: 1.0;"/><path d="M219.0438,341.625 C218.1063,341.1875 217.5125,341.0469 216.6375,341.0469 C214.0125,341.0469 212.0125,343.125 212.0125,345.8438 L212.0125,346.9688 C212.0125,349.5469 214.1219,351.4375 217.0125,351.4375 C218.2313,351.4375 219.3875,351.1406 220.1375,350.5938 C220.7156,350.1875 221.0438,349.7344 221.0438,349.3438 C221.0438,348.8906 220.6531,348.5 220.1844,348.5 C219.9656,348.5 219.7625,348.5781 219.575,348.7656 C219.1219,349.25 219.1219,349.25 218.9344,349.3438 C218.5125,349.6094 217.825,349.7344 217.0594,349.7344 C215.0125,349.7344 213.7156,348.6406 213.7156,346.9375 L213.7156,345.8438 C213.7156,344.0625 214.9656,342.75 216.7,342.75 C217.2781,342.75 217.8875,342.9063 218.3563,343.1563 C218.8406,343.4375 219.0125,343.6563 219.1063,344.0625 C219.1688,344.4688 219.2,344.5938 219.3406,344.7188 C219.4813,344.8594 219.7156,344.9688 219.9344,344.9688 C220.2,344.9688 220.4656,344.8281 220.6375,344.6094 C220.7469,344.4531 220.7781,344.2656 220.7781,343.8438 L220.7781,342.4219 C220.7781,341.9844 220.7625,341.8594 220.6688,341.7031 C220.5125,341.4375 220.2313,341.2969 219.9344,341.2969 C219.6375,341.2969 219.4344,341.3906 219.2156,341.7031 L219.0438,341.625 Z "/><text fill="#000000" font-family="sans-serif" font-size="12" lengthAdjust="spacingAndGlyphs" textLength="74" x="231.3" y="350.1074">Environment</text><line style="stroke: #A80036; stroke-width: 1.5;" x1="200" x2="310" y1="361.9531" y2="361.9531"/><text fill="#000000" font-family="sans-serif" font-size="11" lengthAdjust="spacingAndGlyphs" textLength="66" x="205" y="376.1636">ivars : Hash</text><line style="stroke: #A80036; stroke-width: 1.5;" x1="200" x2="310" y1="382.7578" y2="382.7578"/><text fill="#000000" font-family="sans-serif" font-size="11" lengthAdjust="spacingAndGlyphs" textLength="100" x="205" y="396.9683">add_var(Variable)</text><!--MD5=[651984b30145f63e53adab6e7e9bc4b7]
class Outcome--><rect fill="#FEFECE" filter="url(#fp69zhgfjrpa8)" height="60.8047" id="Outcome" style="stroke: #A80036; stroke-width: 1.5;" width="116" x="376" y="336.4531"/><ellipse cx="404.05" cy="352.4531" fill="#ADD1B2" rx="11" ry="11" style="stroke: #A80036; stroke-width: 1.0;"/><path d="M406.3938,348.125 C405.4563,347.6875 404.8625,347.5469 403.9875,347.5469 C401.3625,347.5469 399.3625,349.625 399.3625,352.3438 L399.3625,353.4688 C399.3625,356.0469 401.4719,357.9375 404.3625,357.9375 C405.5813,357.9375 406.7375,357.6406 407.4875,357.0938 C408.0656,356.6875 408.3938,356.2344 408.3938,355.8438 C408.3938,355.3906 408.0031,355 407.5344,355 C407.3156,355 407.1125,355.0781 406.925,355.2656 C406.4719,355.75 406.4719,355.75 406.2844,355.8438 C405.8625,356.1094 405.175,356.2344 404.4094,356.2344 C402.3625,356.2344 401.0656,355.1406 401.0656,353.4375 L401.0656,352.3438 C401.0656,350.5625 402.3156,349.25 404.05,349.25 C404.6281,349.25 405.2375,349.4063 405.7063,349.6563 C406.1906,349.9375 406.3625,350.1563 406.4563,350.5625 C406.5188,350.9688 406.55,351.0938 406.6906,351.2188 C406.8313,351.3594 407.0656,351.4688 407.2844,351.4688 C407.55,351.4688 407.8156,351.3281 407.9875,351.1094 C408.0969,350.9531 408.1281,350.7656 408.1281,350.3438 L408.1281,348.9219 C408.1281,348.4844 408.1125,348.3594 408.0188,348.2031 C407.8625,347.9375 407.5813,347.7969 407.2844,347.7969 C406.9875,347.7969 406.7844,347.8906 406.5656,348.2031 L406.3938,348.125 Z "/><text fill="#000000" font-family="sans-serif" font-size="12" lengthAdjust="spacingAndGlyphs" textLength="55" x="420.95" y="356.6074">Outcome</text><line style="stroke: #A80036; stroke-width: 1.5;" x1="377" x2="491" y1="368.4531" y2="368.4531"/><text fill="#000000" font-family="sans-serif" font-size="11" lengthAdjust="spacingAndGlyphs" textLength="104" x="382" y="382.6636">resultant : Symbol</text><line style="stroke: #A80036; stroke-width: 1.5;" x1="377" x2="491" y1="389.2578" y2="389.2578"/><!--MD5=[87f82f60fd461676c9145eb5c5c61f17]
class Glue::FreshEnv--><rect fill="#FEFECE" filter="url(#fp69zhgfjrpa8)" height="60.8047" id="Glue::FreshEnv" style="stroke: #A80036; stroke-width: 1.5;" width="224" x="139" y="471.4531"/><ellipse cx="201.75" cy="487.4531" fill="#ADD1B2" rx="11" ry="11" style="stroke: #A80036; stroke-width: 1.0;"/><path d="M204.0938,483.125 C203.1563,482.6875 202.5625,482.5469 201.6875,482.5469 C199.0625,482.5469 197.0625,484.625 197.0625,487.3438 L197.0625,488.4688 C197.0625,491.0469 199.1719,492.9375 202.0625,492.9375 C203.2813,492.9375 204.4375,492.6406 205.1875,492.0938 C205.7656,491.6875 206.0938,491.2344 206.0938,490.8438 C206.0938,490.3906 205.7031,490 205.2344,490 C205.0156,490 204.8125,490.0781 204.625,490.2656 C204.1719,490.75 204.1719,490.75 203.9844,490.8438 C203.5625,491.1094 202.875,491.2344 202.1094,491.2344 C200.0625,491.2344 198.7656,490.1406 198.7656,488.4375 L198.7656,487.3438 C198.7656,485.5625 200.0156,484.25 201.75,484.25 C202.3281,484.25 202.9375,484.4063 203.4063,484.6563 C203.8906,484.9375 204.0625,485.1563 204.1563,485.5625 C204.2188,485.9688 204.25,486.0938 204.3906,486.2188 C204.5313,486.3594 204.7656,486.4688 204.9844,486.4688 C205.25,486.4688 205.5156,486.3281 205.6875,486.1094 C205.7969,485.9531 205.8281,485.7656 205.8281,485.3438 L205.8281,483.9219 C205.8281,483.4844 205.8125,483.3594 205.7188,483.2031 C205.5625,482.9375 205.2813,482.7969 204.9844,482.7969 C204.6875,482.7969 204.4844,482.8906 204.2656,483.2031 L204.0938,483.125 Z "/><text fill="#000000" font-family="sans-serif" font-size="12" lengthAdjust="spacingAndGlyphs" textLength="90" x="222.25" y="491.6074">Glue::FreshEnv</text><line style="stroke: #A80036; stroke-width: 1.5;" x1="140" x2="362" y1="503.4531" y2="503.4531"/><line style="stroke: #A80036; stroke-width: 1.5;" x1="140" x2="362" y1="511.4531" y2="511.4531"/><text fill="#000000" font-family="sans-serif" font-size="11" lengthAdjust="spacingAndGlyphs" textLength="212" x="145" y="525.6636">attain(Vocabulary) : Fiber&lt;Outcome&gt;</text><!--MD5=[0992d3fdc9d3d7c02b735131bb70871d]
class Goal--><rect fill="#FEFECE" filter="url(#fp69zhgfjrpa8)" height="60.8047" id="Goal" style="stroke: #A80036; stroke-width: 1.5;" width="224" x="860" y="28.9531"/><ellipse cx="954.25" cy="44.9531" fill="#ADD1B2" rx="11" ry="11" style="stroke: #A80036; stroke-width: 1.0;"/><path d="M956.5938,40.625 C955.6563,40.1875 955.0625,40.0469 954.1875,40.0469 C951.5625,40.0469 949.5625,42.125 949.5625,44.8438 L949.5625,45.9688 C949.5625,48.5469 951.6719,50.4375 954.5625,50.4375 C955.7813,50.4375 956.9375,50.1406 957.6875,49.5938 C958.2656,49.1875 958.5938,48.7344 958.5938,48.3438 C958.5938,47.8906 958.2031,47.5 957.7344,47.5 C957.5156,47.5 957.3125,47.5781 957.125,47.7656 C956.6719,48.25 956.6719,48.25 956.4844,48.3438 C956.0625,48.6094 955.375,48.7344 954.6094,48.7344 C952.5625,48.7344 951.2656,47.6406 951.2656,45.9375 L951.2656,44.8438 C951.2656,43.0625 952.5156,41.75 954.25,41.75 C954.8281,41.75 955.4375,41.9063 955.9063,42.1563 C956.3906,42.4375 956.5625,42.6563 956.6563,43.0625 C956.7188,43.4688 956.75,43.5938 956.8906,43.7188 C957.0313,43.8594 957.2656,43.9688 957.4844,43.9688 C957.75,43.9688 958.0156,43.8281 958.1875,43.6094 C958.2969,43.4531 958.3281,43.2656 958.3281,42.8438 L958.3281,41.4219 C958.3281,40.9844 958.3125,40.8594 958.2188,40.7031 C958.0625,40.4375 957.7813,40.2969 957.4844,40.2969 C957.1875,40.2969 956.9844,40.3906 956.7656,40.7031 L956.5938,40.625 Z "/><text fill="#000000" font-family="sans-serif" font-size="12" lengthAdjust="spacingAndGlyphs" textLength="27" x="974.75" y="49.1074">Goal</text><line style="stroke: #A80036; stroke-width: 1.5;" x1="861" x2="1083" y1="60.9531" y2="60.9531"/><line style="stroke: #A80036; stroke-width: 1.5;" x1="861" x2="1083" y1="68.9531" y2="68.9531"/><text fill="#000000" font-family="sans-serif" font-size="11" lengthAdjust="spacingAndGlyphs" textLength="212" x="866" y="83.1636">attain(Vocabulary) : Fiber&lt;Outcome&gt;</text><!--MD5=[e3dfa27533b99e6d7ec16ccfe52dc068]
class AnyValue--><rect fill="#FEFECE" filter="url(#fp69zhgfjrpa8)" height="60.8047" id="AnyValue" style="stroke: #A80036; stroke-width: 1.5;" width="88" x="216" y="28.9531"/><ellipse cx="231.45" cy="44.9531" fill="#ADD1B2" rx="11" ry="11" style="stroke: #A80036; stroke-width: 1.0;"/><path d="M233.7938,40.625 C232.8563,40.1875 232.2625,40.0469 231.3875,40.0469 C228.7625,40.0469 226.7625,42.125 226.7625,44.8438 L226.7625,45.9688 C226.7625,48.5469 228.8719,50.4375 231.7625,50.4375 C232.9813,50.4375 234.1375,50.1406 234.8875,49.5938 C235.4656,49.1875 235.7938,48.7344 235.7938,48.3438 C235.7938,47.8906 235.4031,47.5 234.9344,47.5 C234.7156,47.5 234.5125,47.5781 234.325,47.7656 C233.8719,48.25 233.8719,48.25 233.6844,48.3438 C233.2625,48.6094 232.575,48.7344 231.8094,48.7344 C229.7625,48.7344 228.4656,47.6406 228.4656,45.9375 L228.4656,44.8438 C228.4656,43.0625 229.7156,41.75 231.45,41.75 C232.0281,41.75 232.6375,41.9063 233.1063,42.1563 C233.5906,42.4375 233.7625,42.6563 233.8563,43.0625 C233.9188,43.4688 233.95,43.5938 234.0906,43.7188 C234.2313,43.8594 234.4656,43.9688 234.6844,43.9688 C234.95,43.9688 235.2156,43.8281 235.3875,43.6094 C235.4969,43.4531 235.5281,43.2656 235.5281,42.8438 L235.5281,41.4219 C235.5281,40.9844 235.5125,40.8594 235.4188,40.7031 C235.2625,40.4375 234.9813,40.2969 234.6844,40.2969 C234.3875,40.2969 234.1844,40.3906 233.9656,40.7031 L233.7938,40.625 Z "/><text fill="#000000" font-family="sans-serif" font-size="12" lengthAdjust="spacingAndGlyphs" textLength="55" x="245.55" y="49.1074">AnyValue</text><line style="stroke: #A80036; stroke-width: 1.5;" x1="217" x2="303" y1="60.9531" y2="60.9531"/><text fill="#000000" font-family="sans-serif" font-size="11" lengthAdjust="spacingAndGlyphs" textLength="76" x="222" y="75.1636">rank : Integer</text><line style="stroke: #A80036; stroke-width: 1.5;" x1="217" x2="303" y1="81.7578" y2="81.7578"/><!--MD5=[0d306c77e59f0c941f615a0514849b05]
class AssociationWalker--><rect fill="#FEFECE" filter="url(#fp69zhgfjrpa8)" height="60.8047" id="AssociationWalker" style="stroke: #A80036; stroke-width: 1.5;" width="143" x="521.5" y="28.9531"/><ellipse cx="536.5" cy="44.9531" fill="#ADD1B2" rx="11" ry="11" style="stroke: #A80036; stroke-width: 1.0;"/><path d="M538.8438,40.625 C537.9063,40.1875 537.3125,40.0469 536.4375,40.0469 C533.8125,40.0469 531.8125,42.125 531.8125,44.8438 L531.8125,45.9688 C531.8125,48.5469 533.9219,50.4375 536.8125,50.4375 C538.0313,50.4375 539.1875,50.1406 539.9375,49.5938 C540.5156,49.1875 540.8438,48.7344 540.8438,48.3438 C540.8438,47.8906 540.4531,47.5 539.9844,47.5 C539.7656,47.5 539.5625,47.5781 539.375,47.7656 C538.9219,48.25 538.9219,48.25 538.7344,48.3438 C538.3125,48.6094 537.625,48.7344 536.8594,48.7344 C534.8125,48.7344 533.5156,47.6406 533.5156,45.9375 L533.5156,44.8438 C533.5156,43.0625 534.7656,41.75 536.5,41.75 C537.0781,41.75 537.6875,41.9063 538.1563,42.1563 C538.6406,42.4375 538.8125,42.6563 538.9063,43.0625 C538.9688,43.4688 539,43.5938 539.1406,43.7188 C539.2813,43.8594 539.5156,43.9688 539.7344,43.9688 C540,43.9688 540.2656,43.8281 540.4375,43.6094 C540.5469,43.4531 540.5781,43.2656 540.5781,42.8438 L540.5781,41.4219 C540.5781,40.9844 540.5625,40.8594 540.4688,40.7031 C540.3125,40.4375 540.0313,40.2969 539.7344,40.2969 C539.4375,40.2969 539.2344,40.3906 539.0156,40.7031 L538.8438,40.625 Z "/><text fill="#000000" font-family="sans-serif" font-size="12" lengthAdjust="spacingAndGlyphs" textLength="111" x="550.5" y="49.1074">AssociationWalker</text><line style="stroke: #A80036; stroke-width: 1.5;" x1="522.5" x2="663.5" y1="60.9531" y2="60.9531"/><text fill="#000000" font-family="sans-serif" font-size="11" lengthAdjust="spacingAndGlyphs" textLength="45" x="527.5" y="75.1636">visitees</text><line style="stroke: #A80036; stroke-width: 1.5;" x1="522.5" x2="663.5" y1="81.7578" y2="81.7578"/><!--MD5=[ade207c4727b5b2deab7d1a601d5255e]
class CompositeGoal--><rect fill="#FEFECE" filter="url(#fp69zhgfjrpa8)" height="48" id="CompositeGoal" style="stroke: #A80036; stroke-width: 1.5;" width="124" x="339" y="35.4531"/><ellipse cx="354" cy="51.4531" fill="#ADD1B2" rx="11" ry="11" style="stroke: #A80036; stroke-width: 1.0;"/><path d="M356.3438,47.125 C355.4063,46.6875 354.8125,46.5469 353.9375,46.5469 C351.3125,46.5469 349.3125,48.625 349.3125,51.3438 L349.3125,52.4688 C349.3125,55.0469 351.4219,56.9375 354.3125,56.9375 C355.5313,56.9375 356.6875,56.6406 357.4375,56.0938 C358.0156,55.6875 358.3438,55.2344 358.3438,54.8438 C358.3438,54.3906 357.9531,54 357.4844,54 C357.2656,54 357.0625,54.0781 356.875,54.2656 C356.4219,54.75 356.4219,54.75 356.2344,54.8438 C355.8125,55.1094 355.125,55.2344 354.3594,55.2344 C352.3125,55.2344 351.0156,54.1406 351.0156,52.4375 L351.0156,51.3438 C351.0156,49.5625 352.2656,48.25 354,48.25 C354.5781,48.25 355.1875,48.4063 355.6563,48.6563 C356.1406,48.9375 356.3125,49.1563 356.4063,49.5625 C356.4688,49.9688 356.5,50.0938 356.6406,50.2188 C356.7813,50.3594 357.0156,50.4688 357.2344,50.4688 C357.5,50.4688 357.7656,50.3281 357.9375,50.1094 C358.0469,49.9531 358.0781,49.7656 358.0781,49.3438 L358.0781,47.9219 C358.0781,47.4844 358.0625,47.3594 357.9688,47.2031 C357.8125,46.9375 357.5313,46.7969 357.2344,46.7969 C356.9375,46.7969 356.7344,46.8906 356.5156,47.2031 L356.3438,47.125 Z "/><text fill="#000000" font-family="sans-serif" font-size="12" lengthAdjust="spacingAndGlyphs" textLength="92" x="368" y="55.6074">CompositeGoal</text><line style="stroke: #A80036; stroke-width: 1.5;" x1="340" x2="462" y1="67.4531" y2="67.4531"/><line style="stroke: #A80036; stroke-width: 1.5;" x1="340" x2="462" y1="75.4531" y2="75.4531"/><!--MD5=[e2fd993529b9c3b41cc3045dcb105886]
class DuckFiber--><rect fill="#FEFECE" filter="url(#fp69zhgfjrpa8)" height="73.6094" id="DuckFiber" style="stroke: #A80036; stroke-width: 1.5;" width="129" x="195.5" y="172.9531"/><ellipse cx="226.7" cy="188.9531" fill="#ADD1B2" rx="11" ry="11" style="stroke: #A80036; stroke-width: 1.0;"/><path d="M229.0438,184.625 C228.1063,184.1875 227.5125,184.0469 226.6375,184.0469 C224.0125,184.0469 222.0125,186.125 222.0125,188.8438 L222.0125,189.9688 C222.0125,192.5469 224.1219,194.4375 227.0125,194.4375 C228.2313,194.4375 229.3875,194.1406 230.1375,193.5938 C230.7156,193.1875 231.0438,192.7344 231.0438,192.3438 C231.0438,191.8906 230.6531,191.5 230.1844,191.5 C229.9656,191.5 229.7625,191.5781 229.575,191.7656 C229.1219,192.25 229.1219,192.25 228.9344,192.3438 C228.5125,192.6094 227.825,192.7344 227.0594,192.7344 C225.0125,192.7344 223.7156,191.6406 223.7156,189.9375 L223.7156,188.8438 C223.7156,187.0625 224.9656,185.75 226.7,185.75 C227.2781,185.75 227.8875,185.9063 228.3563,186.1563 C228.8406,186.4375 229.0125,186.6563 229.1063,187.0625 C229.1688,187.4688 229.2,187.5938 229.3406,187.7188 C229.4813,187.8594 229.7156,187.9688 229.9344,187.9688 C230.2,187.9688 230.4656,187.8281 230.6375,187.6094 C230.7469,187.4531 230.7781,187.2656 230.7781,186.8438 L230.7781,185.4219 C230.7781,184.9844 230.7625,184.8594 230.6688,184.7031 C230.5125,184.4375 230.2313,184.2969 229.9344,184.2969 C229.6375,184.2969 229.4344,184.3906 229.2156,184.7031 L229.0438,184.625 Z "/><text fill="#000000" font-family="sans-serif" font-size="12" lengthAdjust="spacingAndGlyphs" textLength="61" x="244.3" y="193.1074">DuckFiber</text><line style="stroke: #A80036; stroke-width: 1.5;" x1="196.5" x2="323.5" y1="204.9531" y2="204.9531"/><text fill="#000000" font-family="sans-serif" font-size="11" lengthAdjust="spacingAndGlyphs" textLength="113" x="201.5" y="219.1636">outcome : Outcome</text><line style="stroke: #A80036; stroke-width: 1.5;" x1="196.5" x2="323.5" y1="225.7578" y2="225.7578"/><text fill="#000000" font-family="sans-serif" font-size="11" lengthAdjust="spacingAndGlyphs" textLength="117" x="201.5" y="239.9683">resume() : OutCome</text><!--MD5=[a8ba5e2a6b9f24fee84407bac00b4a54]
class Freshness--><rect fill="#FEFECE" filter="url(#fp69zhgfjrpa8)" height="60.8047" id="Freshness" style="stroke: #A80036; stroke-width: 1.5;" width="108" x="562" y="179.4531"/><ellipse cx="582.85" cy="195.4531" fill="#ADD1B2" rx="11" ry="11" style="stroke: #A80036; stroke-width: 1.0;"/><path d="M585.1938,191.125 C584.2563,190.6875 583.6625,190.5469 582.7875,190.5469 C580.1625,190.5469 578.1625,192.625 578.1625,195.3438 L578.1625,196.4688 C578.1625,199.0469 580.2719,200.9375 583.1625,200.9375 C584.3813,200.9375 585.5375,200.6406 586.2875,200.0938 C586.8656,199.6875 587.1938,199.2344 587.1938,198.8438 C587.1938,198.3906 586.8031,198 586.3344,198 C586.1156,198 585.9125,198.0781 585.725,198.2656 C585.2719,198.75 585.2719,198.75 585.0844,198.8438 C584.6625,199.1094 583.975,199.2344 583.2094,199.2344 C581.1625,199.2344 579.8656,198.1406 579.8656,196.4375 L579.8656,195.3438 C579.8656,193.5625 581.1156,192.25 582.85,192.25 C583.4281,192.25 584.0375,192.4063 584.5063,192.6563 C584.9906,192.9375 585.1625,193.1563 585.2563,193.5625 C585.3188,193.9688 585.35,194.0938 585.4906,194.2188 C585.6313,194.3594 585.8656,194.4688 586.0844,194.4688 C586.35,194.4688 586.6156,194.3281 586.7875,194.1094 C586.8969,193.9531 586.9281,193.7656 586.9281,193.3438 L586.9281,191.9219 C586.9281,191.4844 586.9125,191.3594 586.8188,191.2031 C586.6625,190.9375 586.3813,190.7969 586.0844,190.7969 C585.7875,190.7969 585.5844,190.8906 585.3656,191.2031 L585.1938,191.125 Z "/><text fill="#000000" font-family="sans-serif" font-size="12" lengthAdjust="spacingAndGlyphs" textLength="63" x="598.15" y="199.6074">Freshness</text><line style="stroke: #A80036; stroke-width: 1.5;" x1="563" x2="669" y1="211.4531" y2="211.4531"/><text fill="#000000" font-family="sans-serif" font-size="11" lengthAdjust="spacingAndGlyphs" textLength="96" x="568" y="225.6636">degree : Symbol</text><line style="stroke: #A80036; stroke-width: 1.5;" x1="563" x2="669" y1="232.2578" y2="232.2578"/><!--MD5=[dd2ad3db6ae5bc2e7470118455985156]
class Glue::RunStarExpression--><rect fill="#FEFECE" filter="url(#fp69zhgfjrpa8)" height="60.8047" id="Glue::RunStarExpression" style="stroke: #A80036; stroke-width: 1.5;" width="179" x="398.5" y="471.4531"/><ellipse cx="413.5" cy="487.4531" fill="#ADD1B2" rx="11" ry="11" style="stroke: #A80036; stroke-width: 1.0;"/><path d="M415.8438,483.125 C414.9063,482.6875 414.3125,482.5469 413.4375,482.5469 C410.8125,482.5469 408.8125,484.625 408.8125,487.3438 L408.8125,488.4688 C408.8125,491.0469 410.9219,492.9375 413.8125,492.9375 C415.0313,492.9375 416.1875,492.6406 416.9375,492.0938 C417.5156,491.6875 417.8438,491.2344 417.8438,490.8438 C417.8438,490.3906 417.4531,490 416.9844,490 C416.7656,490 416.5625,490.0781 416.375,490.2656 C415.9219,490.75 415.9219,490.75 415.7344,490.8438 C415.3125,491.1094 414.625,491.2344 413.8594,491.2344 C411.8125,491.2344 410.5156,490.1406 410.5156,488.4375 L410.5156,487.3438 C410.5156,485.5625 411.7656,484.25 413.5,484.25 C414.0781,484.25 414.6875,484.4063 415.1563,484.6563 C415.6406,484.9375 415.8125,485.1563 415.9063,485.5625 C415.9688,485.9688 416,486.0938 416.1406,486.2188 C416.2813,486.3594 416.5156,486.4688 416.7344,486.4688 C417,486.4688 417.2656,486.3281 417.4375,486.1094 C417.5469,485.9531 417.5781,485.7656 417.5781,485.3438 L417.5781,483.9219 C417.5781,483.4844 417.5625,483.3594 417.4688,483.2031 C417.3125,482.9375 417.0313,482.7969 416.7344,482.7969 C416.4375,482.7969 416.2344,482.8906 416.0156,483.2031 L415.8438,483.125 Z "/><text fill="#000000" font-family="sans-serif" font-size="12" lengthAdjust="spacingAndGlyphs" textLength="147" x="427.5" y="491.6074">Glue::RunStarExpression</text><line style="stroke: #A80036; stroke-width: 1.5;" x1="399.5" x2="576.5" y1="503.4531" y2="503.4531"/><line style="stroke: #A80036; stroke-width: 1.5;" x1="399.5" x2="576.5" y1="511.4531" y2="511.4531"/><text fill="#000000" font-family="sans-serif" font-size="11" lengthAdjust="spacingAndGlyphs" textLength="87" x="404.5" y="525.6636">run() : ConsCell</text><!--MD5=[2889d1d5329a2eb83895881dc2d76812]
reverse link Term to AtomicTerm--><path d="M852.088,248.8431 C825.883,275.7421 791.196,311.3481 766.976,336.2091 " fill="none" id="Term&lt;-AtomicTerm" style="stroke: #A80036; stroke-width: 1.0;"/><polygon fill="none" points="847.424,243.5991,866.394,234.1581,857.452,253.3691,847.424,243.5991" style="stroke: #A80036; stroke-width: 1.0;"/><!--MD5=[d79c32de261f8af34570b36b088ee1bc]
reverse link Term to CompositeTerm--><path d="M877.425,254.2431 C875.318,282.9641 876.044,319.5261 879.603,342.8431 " fill="none" id="Term&lt;-CompositeTerm" style="stroke: #A80036; stroke-width: 1.0;"/><polygon fill="none" points="870.487,253.2931,879.589,234.1581,884.406,254.7931,870.487,253.2931" style="stroke: #A80036; stroke-width: 1.0;"/><!--MD5=[1bd549c9af1d7a421e7f4512b5543062]
link Term to CompositeTerm--><path d="M898.965,234.1581 C903.038,259.4571 903.591,300.2671 900.624,329.7781 " fill="none" id="Term-&gt;CompositeTerm" style="stroke: #A80036; stroke-width: 1.0;"/><polygon fill="#FFFFFF" points="898.95,342.8431,903.6803,337.4003,900.4756,330.9405,895.7452,336.3833,898.95,342.8431" style="stroke: #A80036; stroke-width: 1.0;"/><ellipse cx="836.2158" cy="249.5352" fill="#000000" rx="2.5" ry="2.5" style="stroke: #000000; stroke-width: 0.0;"/><text fill="#000000" font-family="sans-serif" font-size="13" lengthAdjust="spacingAndGlyphs" textLength="50" x="843.7158" y="253.9693">children</text><!--MD5=[4659537fceaa90790865c3ce9b9d683e]
reverse link Term to VariableRef--><path d="M925.179,248.8431 C950.863,275.7421 984.861,311.3481 1008.6,336.2091 " fill="none" id="Term&lt;-VariableRef" style="stroke: #A80036; stroke-width: 1.0;"/><polygon fill="none" points="919.906,253.4571,911.157,234.1581,930.032,243.7891,919.906,253.4571" style="stroke: #A80036; stroke-width: 1.0;"/><!--MD5=[b3a45eb562896e1c690f25a232e7eb22]
reverse link Term to Association--><path d="M852.568,229.5291 C798.543,257.0741 696.992,308.8521 635.724,340.0911 " fill="none" id="Term&lt;-Association" style="stroke: #A80036; stroke-width: 1.0;"/><polygon fill="#A80036" points="857.327,227.1021,847.492,227.6248,852.8721,229.3724,851.1245,234.7525,857.327,227.1021" style="stroke: #A80036; stroke-width: 1.0;"/><text fill="#000000" font-family="sans-serif" font-size="13" lengthAdjust="spacingAndGlyphs" textLength="35" x="814.4901" y="225.7174">value</text><!--MD5=[cc5b15aadff0384191eb493d8c6ed843]
reverse link AtomicTerm to KInteger--><path d="M751.296,417.0731 C756.909,437.8131 763.18,460.9783 767.706,477.7007 " fill="none" id="AtomicTerm&lt;-KInteger" style="stroke: #A80036; stroke-width: 1.0;"/><polygon fill="none" points="744.458,418.6041,745.99,397.4701,757.972,414.9461,744.458,418.6041" style="stroke: #A80036; stroke-width: 1.0;"/><!--MD5=[b8750604a170845709796474ff3ec1ff]
reverse link AtomicTerm to KSymbol--><path d="M708.956,414.4941 C695.615,435.8711 680.382,460.2815 669.511,477.7007 " fill="none" id="AtomicTerm&lt;-KSymbol" style="stroke: #A80036; stroke-width: 1.0;"/><polygon fill="none" points="703.053,410.7311,719.58,397.4701,714.93,418.1431,703.053,410.7311" style="stroke: #A80036; stroke-width: 1.0;"/><!--MD5=[831c2759321870bfde109678cbecadbb]
reverse link CompositeTerm to ConsCell--><path d="M890.304,411.3251 C890.824,428.6121 891.416,448.2812 891.912,464.7805 " fill="none" id="CompositeTerm&lt;-ConsCell" style="stroke: #A80036; stroke-width: 1.0;"/><polygon fill="none" points="883.301,411.3211,889.697,391.1201,897.295,410.9001,883.301,411.3211" style="stroke: #A80036; stroke-width: 1.0;"/><!--MD5=[27507e58ee5e91d71d233bef69412f4e]
reverse link Relation to NullaryRelation--><path d="M1237.8,267.7521 C1261.09,291.0421 1287.07,317.0251 1306.46,336.4111 " fill="none" id="Relation&lt;-NullaryRelation" style="stroke: #A80036; stroke-width: 1.0;"/><polygon fill="none" points="1232.55,272.3991,1223.35,253.3071,1242.45,262.5001,1232.55,272.3991" style="stroke: #A80036; stroke-width: 1.0;"/><!--MD5=[b6514cfe319be025ceea78dda0fd5704]
reverse link NullaryRelation to Fail--><path d="M1376.18,412.4821 C1394.8,433.1241 1416.3,456.9497 1432.29,474.6716 " fill="none" id="NullaryRelation&lt;-Fail" style="stroke: #A80036; stroke-width: 1.0;"/><polygon fill="none" points="1370.83,417.0081,1362.63,397.4701,1381.23,407.6301,1370.83,417.0081" style="stroke: #A80036; stroke-width: 1.0;"/><!--MD5=[887005c7a797e8b3ba9ea2035a81b18c]
reverse link NullaryRelation to Succeed--><path d="M1331.54,417.3931 C1329.79,436.8241 1327.84,458.3396 1326.37,474.6716 " fill="none" id="NullaryRelation&lt;-Succeed" style="stroke: #A80036; stroke-width: 1.0;"/><polygon fill="none" points="1324.57,416.7601,1333.34,397.4701,1338.51,418.0181,1324.57,416.7601" style="stroke: #A80036; stroke-width: 1.0;"/><!--MD5=[f7764002450bfebcb08b621ea20d0e9c]
reverse link Relation to BinaryRelation--><path d="M1181,273.4291 C1181,295.1861 1181,318.5871 1181,336.4111 " fill="none" id="Relation&lt;-BinaryRelation" style="stroke: #A80036; stroke-width: 1.0;"/><polygon fill="none" points="1174,273.3071,1181,253.3071,1188,273.3071,1174,273.3071" style="stroke: #A80036; stroke-width: 1.0;"/><!--MD5=[fa21b6a5620788cd26beb4c4a59adf23]
reverse link BinaryRelation to Equals--><path d="M1181,417.7031 C1181,437.0531 1181,458.4265 1181,474.6716 " fill="none" id="BinaryRelation&lt;-Equals" style="stroke: #A80036; stroke-width: 1.0;"/><polygon fill="none" points="1174,417.4701,1181,397.4701,1188,417.4701,1174,417.4701" style="stroke: #A80036; stroke-width: 1.0;"/><!--MD5=[33fa57f93f93f3984c13143aac43ff09]
link Vocabulary to Vocabulary--><path d="M508.722,195.0851 C528.511,195.9341 543.5,200.8911 543.5,209.9531 C543.5,218.1661 531.19,223.0061 514.153,224.4741 " fill="none" id="Vocabulary-&gt;Vocabulary" style="stroke: #A80036; stroke-width: 1.0;"/><polygon fill="#A80036" points="508.722,224.8211,517.9586,228.2394,513.7118,224.5025,517.4488,220.2557,508.722,224.8211" style="stroke: #A80036; stroke-width: 1.0;"/><text fill="#000000" font-family="sans-serif" font-size="13" lengthAdjust="spacingAndGlyphs" textLength="66" x="487.5972" y="225.992">0,1 parent</text><!--MD5=[63214d50ccc2993d9eed0392b128bea7]
reverse link Vocabulary to Environment--><path d="M373.636,263.2241 C348.376,285.0971 319.64,309.9801 296.777,329.7771 " fill="none" id="Vocabulary&lt;-Environment" style="stroke: #A80036; stroke-width: 1.0; stroke-dasharray: 7.0,7.0;"/><polygon fill="none" points="369.129,257.8661,388.831,250.0661,378.294,268.4501,369.129,257.8661" style="stroke: #A80036; stroke-width: 1.0;"/><text fill="#000000" font-family="sans-serif" font-size="13" lengthAdjust="spacingAndGlyphs" textLength="51" x="351" y="296.02">«mixin»</text><!--MD5=[5ec97a51db700dad5d527e80b12f1012]
reverse link Vocabulary to Association--><path d="M481.231,259.4351 C505.707,284.5591 534.815,314.4381 555.964,336.1481 " fill="none" id="Vocabulary&lt;-Association" style="stroke: #A80036; stroke-width: 1.0;"/><polygon fill="#FFFFFF" points="472.104,250.0661,473.4258,257.1551,480.4778,258.6615,479.156,251.5725,472.104,250.0661" style="stroke: #A80036; stroke-width: 1.0;"/><ellipse cx="453.9878" cy="320.9144" fill="#000000" rx="2.5" ry="2.5" style="stroke: #000000; stroke-width: 0.0;"/><text fill="#000000" font-family="sans-serif" font-size="13" lengthAdjust="spacingAndGlyphs" textLength="79" x="461.4878" y="325.3485">associations</text><!--MD5=[e828372997c108f2c3729937ef02db2c]
reverse link AssociationWalker to Vocabulary--><path d="M557.407,93.6961 C533.299,116.2111 501.344,146.0561 475.991,169.7351 " fill="none" id="AssociationWalker&lt;-Vocabulary" style="stroke: #A80036; stroke-width: 1.0; stroke-dasharray: 7.0,7.0;"/><polygon fill="#A80036" points="561.206,90.1471,551.8983,93.3667,557.5518,93.5599,557.3587,99.2134,561.206,90.1471" style="stroke: #A80036; stroke-width: 1.0;"/><text fill="#000000" font-family="sans-serif" font-size="13" lengthAdjust="spacingAndGlyphs" textLength="57" x="529" y="133.02">«create»</text><!--MD5=[e2e6c6bf04fd43cc1133d22f4c6325a0]
reverse link Environment to Variable--><path d="M189.776,411.3271 C161.956,429.8271 130.035,451.0548 104.2438,468.206 " fill="none" id="Environment&lt;-Variable" style="stroke: #A80036; stroke-width: 1.0;"/><polygon fill="#FFFFFF" points="200.613,404.1201,193.4019,404.1116,190.6205,410.7647,197.8316,410.7732,200.613,404.1201" style="stroke: #A80036; stroke-width: 1.0;"/><ellipse cx="116.4452" cy="456.0001" fill="#000000" rx="2.5" ry="2.5" style="stroke: #000000; stroke-width: 0.0;"/><text fill="#000000" font-family="sans-serif" font-size="13" lengthAdjust="spacingAndGlyphs" textLength="28" x="123.9452" y="460.4342">vars</text><!--MD5=[a58eb651b81396447c85d4bfc2251fca]
reverse link Vocabulary to Outcome--><path d="M434,270.3081 C434,292.8211 434,317.4991 434,336.1481 " fill="none" id="Vocabulary&lt;-Outcome" style="stroke: #A80036; stroke-width: 1.0; stroke-dasharray: 7.0,7.0;"/><polygon fill="none" points="427,270.0661,434,250.0661,441,270.0661,427,270.0661" style="stroke: #A80036; stroke-width: 1.0;"/><text fill="#000000" font-family="sans-serif" font-size="13" lengthAdjust="spacingAndGlyphs" textLength="51" x="435" y="296.02">«mixin»</text><!--MD5=[064da7ef56b08e66571fddc7434d9d27]
link AssociationWalker to Freshness--><path d="M597.599,90.1471 C601.36,114.4291 606.683,148.7981 610.637,174.3281 " fill="none" id="AssociationWalker-&gt;Freshness" style="stroke: #A80036; stroke-width: 1.0; stroke-dasharray: 7.0,7.0;"/><polygon fill="#A80036" points="611.409,179.3101,613.9836,169.8037,610.6433,174.3691,606.078,171.0288,611.409,179.3101" style="stroke: #A80036; stroke-width: 1.0;"/><text fill="#000000" font-family="sans-serif" font-size="13" lengthAdjust="spacingAndGlyphs" textLength="57" x="606" y="133.02">«create»</text><!--MD5=[84f632f3dafc24cd1c5892dee938bb66]
link Goal to Relation--><path d="M1013.54,89.9691 C1044.49,111.9611 1087.19,142.3001 1121.73,166.8381 " fill="none" id="Goal-Relation" style="stroke: #A80036; stroke-width: 1.0;"/><text fill="#000000" font-family="sans-serif" font-size="13" lengthAdjust="spacingAndGlyphs" textLength="8" x="1103.6463" y="155.8158">1</text><!--MD5=[96abca2f31c9795167941892f28fc351]
link Goal to Term--><path d="M955.403,90.1471 C939.697,118.2481 916.439,159.8601 902.027,185.6451 " fill="none" id="Goal-Term" style="stroke: #A80036; stroke-width: 1.0;"/><ellipse cx="844.5117" cy="170.5409" fill="#000000" rx="2.5" ry="2.5" style="stroke: #000000; stroke-width: 0.0;"/><text fill="#000000" font-family="sans-serif" font-size="13" lengthAdjust="spacingAndGlyphs" textLength="46" x="852.0117" y="174.975">actuals</text><!--MD5=[cc4f549ea03aa9b457592c6bdca3d9d8]
reverse link Environment to Glue::FreshEnv--><path d="M253.303,424.3891 C252.817,440.5521 252.306,457.5266 251.89,471.3742 " fill="none" id="Environment&lt;-Glue::FreshEnv" style="stroke: #A80036; stroke-width: 1.0;"/><polygon fill="none" points="246.309,424.0761,253.907,404.2961,260.302,424.4971,246.309,424.0761" style="stroke: #A80036; stroke-width: 1.0;"/><!--MD5=[9a20c11237e8f7ffcccef175a8ffe4b3]
link Environment to Glue::RunStarExpression--><path d="M311.106,399.9791 C345.222,419.4531 388.89,444.3798 424.303,464.5936 " fill="none" id="Environment-&gt;Glue::RunStarExpression" style="stroke: #A80036; stroke-width: 1.0;"/><polygon fill="#FFFFFF" points="435.97,471.2534,432.742,464.8052,425.5482,465.3048,428.7762,471.753,435.97,471.2534" style="stroke: #A80036; stroke-width: 1.0;"/><text fill="#000000" font-family="sans-serif" font-size="13" lengthAdjust="spacingAndGlyphs" textLength="36" x="319.2113" y="399.8666">1 env</text><!--MD5=[2b1be27ff040a54df173d64dc4b7bf9b]
link AnyValue to CompositeGoal--><!--MD5=[fc3b780b6dfa2bbc88b094a97fa8341c]
link AnyValue to DuckFiber--><!--MD5=[c97110820b748328ce16edfe2ec8fb25]
@startuml
title Implementation model of MiniKraken (as of 2020/10/05)

  abstract class Term
  abstract class AtomicTerm {
    value
  }
  class KInteger
  class KSymbol
  abstract class CompositeTerm
  class ConsCell {
    car : Term
    cdr : Term
  }
  class Variable {
    name : String
    i_name : String
  }
  class VariableRef {
    name : String
  }
  class Association {
    i_name : String
  }
  abstract class Relation {
    name : String
    alt_name : String
    solver_for(Array<Term>, Vocabulary) : Fiber<Outcome>
  }
  abstract class NullaryRelation {
    arity() : Integer  
  }
  class Fail <<(S,#FF7700) singleton>>
  class Succeed <<(S,#FF7700) singleton>>
  abstract class BinaryRelation {
    arity() : Integer
  }
  class Equals <<(S,#FF7700) singleton>> 
  class Vocabulary <<(M,orchid) module>> {
    rankings : Hash
    add_assoc(String, Term)
  } 
  class Environment {
    ivars : Hash
    add_var(Variable)
  } 
  class Outcome {
    resultant : Symbol
  }
  class Glue::FreshEnv {
    attain(Vocabulary) : Fiber<Outcome>
  }
  class Goal {
    attain(Vocabulary) : Fiber<Outcome>
  }
  class AnyValue {
    rank : Integer
  }
  class AssociationWalker {
    visitees
  }
  class CompositeGoal
  class DuckFiber {
    outcome : Outcome
    resume() : OutCome
  }
  class Freshness {
    degree : Symbol
  }
  class Glue::RunStarExpression {
    run() : ConsCell
  }

  Term <|- - AtomicTerm
  Term <|- - CompositeTerm
  Term <|- - VariableRef
  Term "value" <- - Association
  AtomicTerm <|- - KInteger
  AtomicTerm <|- - KSymbol
  CompositeTerm <|- - ConsCell
  Term "* children" - -o CompositeTerm
  Relation <|- - NullaryRelation
  NullaryRelation <|- - Fail
  NullaryRelation <|- - Succeed
  Relation <|- - BinaryRelation
  BinaryRelation <|- - Equals
  Vocabulary - -> "0,1 parent" Vocabulary
  Vocabulary <|..  Environment : <<mixin>>
  Vocabulary o- - "* associations" Association
  AssociationWalker <.. Vocabulary : <<create>>
  Environment o- - "* vars" Variable
  Vocabulary <|..  Outcome : <<mixin>>
  AssociationWalker ..> Freshness : <<create>>
  Goal - - "1" Relation
  Goal O- - "* actuals" Term
  Environment <|- - Glue::FreshEnv
  Environment "1 env"- -o Glue::RunStarExpression
@enduml

PlantUML version 1.2020.09(Sun May 10 10:51:06 UTC 2020)
(GPL source distribution)
Java Runtime: Java(TM) SE Runtime Environment
JVM: Java HotSpot(TM) 64-Bit Server VM
Java Version: 14.0.1+7
Operating System: Linux
Default Encoding: UTF-8
Language: en
Country: US
--></g></svg>